<svg xmlns="http://www.w3.org/2000/svg" xml:space="preserve" id="Layer_1" width="800" height="800" fill="#000" version="1.1" viewBox="0 0 512 512"><path d="M493.736 208.078c-5.55-12.12-17.635-19.953-30.788-19.953h-70.664v-.534c0-6.31-3.547-11.803-8.75-14.6 11.049-12.244 17.301-28.175 17.301-45.258 0-37.426-30.448-67.875-67.875-67.875-8.952 0-16.948 2.142-16.954 2.143L161.224 103.65c-18.837 4.235-32.957 21.087-32.957 41.184 0 9.887 3.426 18.985 9.14 26.188h-1.123c-9.136 0-16.568 7.432-16.568 16.568v.534H49.052c-13.154 0-25.239 7.833-30.788 19.954C6.315 234.177 0 265.532 0 298.756s6.316 64.579 18.264 90.677c5.55 12.12 17.635 19.953 30.788 19.953h49.892l-3.817 26.722h-1.599a8.017 8.017 0 0 0 0 16.034h59.858a8.017 8.017 0 0 0 0-16.034h-1.598l-3.818-26.722h216.059l-3.817 26.722h-1.598a8.017 8.017 0 0 0 0 16.034h59.858a8.017 8.017 0 0 0 0-16.034h-1.598l-3.818-26.722h49.893c13.154 0 25.239-7.833 30.788-19.954C505.685 363.334 512 331.979 512 298.756s-6.316-64.58-18.264-90.678M332.96 75.891c28.585 0 51.841 23.256 51.841 51.841 0 15.396-6.675 29.559-18.171 39.326v-47.877c0-9.136-7.432-16.568-16.568-16.568h-34.205c-9.136 0-16.568 7.432-16.568 16.568v47.877c-11.496-9.768-18.171-23.929-18.171-39.326.001-28.585 23.257-51.841 51.842-51.841m-17.636 60.927v-17.637c0-.295.239-.534.534-.534h34.205c.295 0 .534.239.534.534v17.637zm35.273 16.034v18.171h-35.273v-18.171zm-73.351-63.82c-7.655 10.987-12.161 24.324-12.161 38.7 0 16.182 5.613 31.329 15.596 43.29H203.57c5.714-7.203 9.14-16.301 9.14-26.188-.001-13.845-6.701-26.155-17.029-33.859zm-106.757 29.615c14.44 0 26.188 11.748 26.188 26.188s-11.748 26.188-26.188 26.188-26.188-11.748-26.188-26.188 11.748-26.188 26.188-26.188m-34.74 68.944c0-.295.239-.534.534-.534h239.432c.295 0 .534.239.534.534v17.102a.534.534 0 0 1-.534.534H136.284a.534.534 0 0 1-.534-.534v-17.102zm-24.426 248.518 6.195-43.366a.536.536 0 0 1 .529-.458h10.821c.264 0 .492.198.529.458l6.193 43.366zm265.086 0 6.195-43.366a.536.536 0 0 1 .529-.458h10.821c.264 0 .492.198.529.458l6.193 43.366zm102.749-53.351c-2.946 6.436-9.309 10.595-16.21 10.595h-2.255V264.551a8.017 8.017 0 0 0-16.034 0v128.802h-33.895l-.412-2.877c-1.159-8.11-8.209-14.225-16.401-14.225H383.13c-8.192 0-15.242 6.115-16.401 14.225l-.41 2.877H145.68l-.411-2.877c-1.159-8.11-8.209-14.225-16.401-14.225h-10.821c-8.192 0-15.242 6.115-16.401 14.225l-.41 2.877H67.34V264.551a8.017 8.017 0 0 0-16.034 0v128.802h-2.254c-6.901 0-13.264-4.159-16.21-10.595-10.84-23.675-16.809-53.508-16.809-84.002s5.969-60.326 16.808-84.002c2.946-6.436 9.309-10.595 16.21-10.595h2.255v26.188a8.017 8.017 0 0 0 16.034 0v-26.188h52.376v.534c0 9.136 7.432 16.568 16.568 16.568h17.637v.534a8.017 8.017 0 0 0 16.034 0v-.534h172.092v.534a8.017 8.017 0 0 0 16.034 0v-.534h17.637c9.136 0 16.568-7.432 16.568-16.568v-.534h52.376v26.188a8.017 8.017 0 0 0 16.034 0v-26.188h2.254c6.901 0 13.264 4.159 16.21 10.595 10.84 23.675 16.809 53.508 16.809 84.002s-5.971 60.326-16.811 84.002"/></svg>