<svg xmlns="http://www.w3.org/2000/svg" xml:space="preserve" id="Capa_1" width="800" height="800" fill="#000" version="1.1" viewBox="0 0 433.001 433.001"><path d="M428.204 192.538c-11.473-51.494-42.312-95.436-86.835-123.731-27.493-17.471-58.783-27.834-91.005-30.26a38.3 38.3 0 0 0-2.039-9.428c-4.908-13.854-17.038-23.412-31.655-24.943L180.873.424C161.18-1.64 141.86 5.206 127.859 19.205L19.143 127.921C5.144 141.92-1.702 161.242.361 180.934l3.752 35.797c1.532 14.617 11.09 26.747 24.943 31.655a38.3 38.3 0 0 0 9.439 2.06c4.745 62.002 38.275 118.231 90.993 151.733 32.771 20.827 69.392 30.763 105.617 30.76 65.369-.005 129.419-32.372 167.009-91.506 28.297-44.524 37.562-97.403 26.09-148.895M85.659 222.2l44.156-44.155a8.94 8.94 0 0 0 4.149 1.041c2.96 0 5.86-1.46 7.58-4.13h-.01a9 9 0 0 0 .405-9.036l28.438-28.438a9.04 9.04 0 0 0 5.606 1.954 8.95 8.95 0 0 0 4.41-1.16c4.33-2.45 5.86-7.94 3.41-12.27a9 9 0 0 0-.791-1.159l39.124-39.124c33.202-2.996 65.623 4.886 93.938 22.879 69.958 44.469 90.702 137.57 46.243 207.536-21.543 33.892-54.995 57.366-94.194 66.098-39.198 8.732-79.451 1.677-113.343-19.866-24.146-15.347-43.305-37.081-55.401-62.851a150.83 150.83 0 0 1-13.72-77.319m-63.644-7.346-3.752-35.797c-1.495-14.267 3.465-28.266 13.608-38.409L140.587 31.932c10.143-10.143 24.138-15.102 38.408-13.608l35.797 3.752c7.766.814 13.958 5.693 16.565 13.052 2.606 7.359.867 15.048-4.653 20.569L55.636 226.766c-5.521 5.521-13.214 7.259-20.568 4.653-7.359-2.607-12.239-8.8-13.053-16.565m364.907 116.924c-34.167 53.75-92.37 83.168-151.788 83.166-32.919-.001-66.213-9.031-95.992-27.957-48.32-30.707-78.912-82.428-82.812-139.355a37.9 37.9 0 0 0 10.818-6.979 168.9 168.9 0 0 0 15.938 66.515c13.551 28.869 35.005 53.21 62.04 70.394 27.334 17.375 58.354 26.333 89.977 26.332 12.28 0 24.658-1.353 36.936-4.088 43.892-9.778 81.349-36.062 105.473-74.013 49.781-78.344 26.553-182.59-51.78-232.383-25.567-16.247-55.144-25.244-85.18-26.182 3-3.262 5.347-6.931 7.009-10.851 29.787 1.996 58.749 11.476 84.155 27.621 40.465 25.717 68.493 65.654 78.92 112.454 10.426 46.8 2.004 94.86-23.714 135.326"/><path d="M186.957 311.749c14.671 9.324 31.321 14.132 48.293 14.132 6.594 0 13.237-.726 19.829-2.195 23.559-5.249 43.663-19.358 56.609-39.729s17.187-44.563 11.938-68.122-19.358-43.663-39.729-56.61c-42.052-26.727-98.005-14.259-124.732 27.792-26.726 42.052-14.259 98.006 27.792 124.732m-12.601-115.076c13.772-21.669 37.233-33.527 61.187-33.527a71.94 71.94 0 0 1 38.699 11.272c16.313 10.368 27.611 26.468 31.814 45.333s.809 38.239-9.56 54.552c-10.367 16.313-26.467 27.611-45.333 31.814-18.863 4.204-38.238.809-54.553-9.559-33.673-21.402-43.656-66.211-22.254-99.885M346.623 283.286c.97.34 1.96.5 2.939.5 3.73 0 7.221-2.34 8.5-6.06 1.63-4.7-.859-9.83-5.56-11.45-4.7-1.63-9.82.87-11.45 5.57-1.619 4.69.871 9.82 5.571 11.44M332.623 172.886c1.859 0 3.72-.57 5.33-1.75 4-2.95 4.859-8.58 1.92-12.59-2.95-4-8.58-4.86-12.59-1.91-4 2.94-4.86 8.57-1.91 12.58a8.97 8.97 0 0 0 7.25 3.67M354.743 226.246c.449 0 .91-.03 1.37-.1 4.92-.76 8.29-5.35 7.529-10.26a8.99 8.99 0 0 0-10.26-7.53c-4.91.75-8.28 5.35-7.53 10.26a9.01 9.01 0 0 0 8.891 7.63M212.093 344.756c-4.86-1.05-9.65 2.05-10.689 6.91a9.007 9.007 0 0 0 6.909 10.69c.641.13 1.271.2 1.9.2 4.15 0 7.89-2.89 8.79-7.12 1.04-4.86-2.05-9.64-6.91-10.68M265.513 343.056c-4.79 1.34-7.58 6.31-6.24 11.1a9.013 9.013 0 0 0 11.1 6.24c4.78-1.34 7.58-6.31 6.229-11.1-1.339-4.78-6.299-7.58-11.089-6.24M312.074 316.776c-3.61 3.41-3.78 9.11-.37 12.73a9 9 0 0 0 6.55 2.82c2.21 0 4.43-.81 6.17-2.45 3.62-3.41 3.79-9.1.38-12.72s-9.111-3.79-12.73-.38M163.983 321.386c-3.829-3.17-9.5-2.65-12.68 1.18-3.17 3.82-2.64 9.5 1.18 12.67a8.95 8.95 0 0 0 5.74 2.08c2.59 0 5.15-1.11 6.931-3.25 3.179-3.83 2.649-9.5-1.171-12.68M284.133 134.966c.05.02.1.05.14.07h.011c1.26.62 2.6.91 3.92.91 3.34 0 6.55-1.86 8.109-5.07 2.17-4.47.311-9.85-4.159-12.03-.03-.01-.061-.03-.091-.04-.02-.01-.029-.01-.04-.02a9.004 9.004 0 0 0-12.029 4.17c-2.161 4.46-.311 9.83 4.139 12.01M120.513 273.506c-4.59 1.9-6.76 7.17-4.859 11.76a9.01 9.01 0 0 0 8.319 5.55c1.15 0 2.32-.22 3.45-.69 4.58-1.91 6.76-7.17 4.86-11.76a9 9 0 0 0-11.77-4.86M114.373 233.676c.27.03.54.04.81.04 4.61 0 8.54-3.52 8.96-8.2.44-4.95-3.22-9.32-8.17-9.77-4.95-.44-9.319 3.22-9.76 8.17-.45 4.95 3.21 9.32 8.16 9.76M231.583 123.826c.1 0 .2 0 .3-.01 4.97-.16 8.87-4.32 8.7-9.29a8.996 8.996 0 0 0-9.28-8.7c-4.97.16-8.87 4.32-8.7 9.29.15 4.87 4.15 8.71 8.98 8.71"/><path d="M202.236 287.709c10.047 6.385 21.448 9.677 33.069 9.677 4.515 0 9.064-.497 13.578-1.503 16.132-3.594 29.898-13.256 38.764-27.204 8.865-13.949 11.769-30.515 8.175-46.647-3.595-16.132-13.256-29.899-27.204-38.764h-.001c-28.795-18.303-67.111-9.763-85.411 19.031-18.301 28.793-9.764 67.109 19.03 85.41m-3.839-75.756c8.351-13.139 22.576-20.329 37.1-20.329a43.6 43.6 0 0 1 23.465 6.834c9.892 6.286 16.742 16.048 19.291 27.488s.49 23.186-5.797 33.077c-6.286 9.891-16.048 16.742-27.487 19.291s-23.186.49-33.077-5.796c-20.419-12.978-26.472-40.147-13.495-60.565M67.312 183.42c6.216 0 12.06-2.42 16.455-6.816a23.12 23.12 0 0 0 6.815-16.455c0-6.216-2.421-12.06-6.815-16.455a23.12 23.12 0 0 0-16.455-6.816 23.12 23.12 0 0 0-16.455 6.816 23.12 23.12 0 0 0-6.815 16.455c0 6.216 2.42 12.06 6.815 16.455a23.11 23.11 0 0 0 16.455 6.816m-3.726-26.998a5.24 5.24 0 0 1 3.727-1.543c1.407 0 2.731.548 3.727 1.544s1.544 2.319 1.544 3.727-.548 2.731-1.544 3.727a5.24 5.24 0 0 1-3.727 1.544 5.24 5.24 0 0 1-3.727-1.544c-.996-.996-1.544-2.319-1.544-3.727s.547-2.732 1.544-3.728M160.088 90.644c6.216 0 12.06-2.42 16.455-6.816a23.12 23.12 0 0 0 6.815-16.455c0-6.216-2.421-12.06-6.815-16.455a23.12 23.12 0 0 0-16.455-6.816 23.12 23.12 0 0 0-16.455 6.816 23.12 23.12 0 0 0-6.815 16.455c0 6.216 2.42 12.06 6.815 16.455a23.12 23.12 0 0 0 16.455 6.816m-3.726-26.998a5.24 5.24 0 0 1 3.727-1.543c1.407 0 2.731.548 3.727 1.544s1.544 2.319 1.544 3.727-.548 2.731-1.544 3.727a5.24 5.24 0 0 1-3.727 1.544 5.24 5.24 0 0 1-3.727-1.544c-.996-.996-1.544-2.319-1.544-3.727s.548-2.732 1.544-3.728"/></svg>