<svg xmlns="http://www.w3.org/2000/svg" xml:space="preserve" id="Layer_1" width="800" height="800" fill="#000" version="1.1" viewBox="0 0 512.003 512.003"><path d="M110.345 190.336v34.225a4.96 4.96 0 0 0 4.961 4.952h13.815c.309-1.201.786-2.33 1.218-3.478.212-.565.353-1.156.591-1.704a35.7 35.7 0 0 1 3.01-5.544c.265-.388.591-.724.865-1.103.962-1.333 1.986-2.604 3.125-3.787.521-.539 1.086-1.006 1.633-1.51 1.015-.927 2.048-1.81 3.169-2.613a30 30 0 0 1 2.013-1.333 35 35 0 0 1 3.531-1.924c.733-.344 1.448-.689 2.198-.98 1.351-.53 2.745-.936 4.175-1.307.689-.168 1.342-.397 2.039-.53 2.154-.406 4.352-.671 6.621-.671s4.467.265 6.621.671c.697.132 1.351.362 2.039.53 1.43.371 2.825.777 4.175 1.307.75.291 1.465.636 2.198.98a35 35 0 0 1 3.531 1.924c.689.424 1.359.856 2.013 1.333 1.121.803 2.154 1.686 3.169 2.613.547.503 1.112.971 1.633 1.51 1.139 1.183 2.163 2.454 3.125 3.787.274.38.6.715.865 1.103a35.7 35.7 0 0 1 3.01 5.544c.238.547.38 1.139.591 1.704.433 1.148.909 2.278 1.218 3.478h72.863c.309-1.201.786-2.33 1.218-3.478.212-.565.353-1.156.591-1.704a35.7 35.7 0 0 1 3.01-5.544c.265-.388.591-.724.865-1.103.962-1.333 1.986-2.604 3.125-3.787.521-.539 1.086-1.006 1.633-1.51 1.015-.927 2.048-1.81 3.169-2.613a30 30 0 0 1 2.013-1.333 35 35 0 0 1 3.531-1.924c.733-.344 1.448-.689 2.198-.98 1.351-.53 2.745-.936 4.175-1.307.689-.168 1.342-.397 2.039-.53 2.154-.406 4.352-.671 6.621-.671s4.467.265 6.621.671c.697.132 1.351.362 2.039.53 1.43.371 2.825.777 4.175 1.307.75.291 1.465.636 2.198.98a35 35 0 0 1 3.531 1.924c.689.424 1.359.856 2.013 1.333 1.121.803 2.154 1.686 3.169 2.613.547.503 1.112.971 1.633 1.51 1.139 1.183 2.163 2.454 3.125 3.787.274.38.6.715.865 1.103a35.7 35.7 0 0 1 3.01 5.544c.238.547.38 1.139.591 1.704.433 1.148.909 2.278 1.218 3.478h13.815a4.96 4.96 0 0 0 4.961-4.952v-34.225a4.965 4.965 0 0 0-4.961-4.961H115.306a4.965 4.965 0 0 0-4.961 4.961M285.802 128.405a11.55 11.55 0 0 0-9.375-4.82h-33.668v44.138h71.124zM225.104 123.586h-33.66c-3.716 0-7.23 1.801-9.384 4.82l-28.081 39.318h71.124v-44.138z"/><path d="M163.311 220.69c-9.737 0-17.655 7.918-17.655 17.655S153.574 256 163.311 256s17.655-7.918 17.655-17.655-7.918-17.655-17.655-17.655M304.552 220.69c-9.737 0-17.655 7.918-17.655 17.655S294.815 256 304.552 256s17.655-7.918 17.655-17.655-7.918-17.655-17.655-17.655M295.725 0H172.138v52.965999999999994h123.578zM419.311 52.966v216.788a131.9 131.9 0 0 1 35.31 15.669V26.483C454.621 11.882 442.739 0 428.138 0H313.38v35.31h88.276c9.736 0 17.655 7.919 17.655 17.656"/><path d="M278.32 476.69H66.211c-9.737 0-17.655-7.918-17.655-17.655V52.966c0-9.737 7.918-17.655 17.655-17.655h88.276V0H39.728c-14.61 0-26.483 11.882-26.483 26.483v459.034c0 14.601 11.873 26.483 26.483 26.483h278.493c-15.581-8.969-29.131-21.018-39.901-35.31"/><path d="M66.208 52.964v406.069h200.766c-9.781-18.458-15.386-39.477-15.386-61.793 0-73.013 59.401-132.414 132.414-132.414 6.003 0 11.864.539 17.655 1.324V52.964h-88.276c0 9.737-7.927 17.655-17.655 17.655H172.139c-9.737 0-17.655-7.918-17.655-17.655zm167.724 370.758H101.519c-4.882 0-8.828-3.946-8.828-8.828s3.946-8.828 8.828-8.828h132.414c4.882 0 8.828 3.946 8.828 8.828s-3.947 8.828-8.829 8.828m0-44.138H101.519a8.82 8.82 0 0 1-8.828-8.828 8.82 8.82 0 0 1 8.828-8.828h132.414a8.82 8.82 0 0 1 8.828 8.828 8.82 8.82 0 0 1-8.829 8.828m0-44.137H101.519a8.82 8.82 0 0 1-8.828-8.828 8.82 8.82 0 0 1 8.828-8.828h132.414a8.82 8.82 0 0 1 8.828 8.828 8.82 8.82 0 0 1-8.829 8.828m-66.233-217.3a29.24 29.24 0 0 1 23.737-12.217h84.983c9.41 0 18.282 4.573 23.746 12.217l35.407 49.576h16.984c12.473 0 22.616 10.152 22.616 22.616v34.225c0 12.465-10.143 22.607-22.616 22.607H338.61c-3.946 15.192-17.646 26.483-34.057 26.483s-30.111-11.29-34.057-26.483h-73.128c-3.946 15.192-17.646 26.483-34.057 26.483-16.41 0-30.111-11.29-34.057-26.483h-13.956c-12.465 0-22.607-10.143-22.607-22.607v-34.225c0-12.465 10.143-22.616 22.607-22.616h16.993z"/><path d="M383.999 282.485c-63.276 0-114.759 51.482-114.759 114.759s51.482 114.759 114.759 114.759c63.285 0 114.759-51.483 114.759-114.759s-51.474-114.759-114.759-114.759m60.213 75.662-54.855 78.822a8.87 8.87 0 0 1-6.038 3.699 9 9 0 0 1-1.209.079 8.78 8.78 0 0 1-5.597-2.004l-42.249-34.684c-3.769-3.081-4.317-8.651-1.227-12.42 3.099-3.752 8.66-4.308 12.42-1.218l34.869 28.61 49.39-70.974c2.789-4.008 8.28-5.005 12.288-2.198a8.83 8.83 0 0 1 2.208 12.288"/></svg>