<?xml version="1.0" encoding="iso-8859-1"?>
<!-- Uploaded to: SVG Repo, www.svgrepo.com, Generator: SVG Repo Mixer Tools -->
<svg fill="#000000" height="800px" width="800px" version="1.1" id="Layer_1" xmlns="http://www.w3.org/2000/svg" xmlns:xlink="http://www.w3.org/1999/xlink" viewBox="0 0 512.003 512.003" xml:space="preserve">
<g>
	<g>
		<g>
			<path d="M110.345,190.336v34.225c0,2.737,2.225,4.952,4.961,4.952h13.815c0.309-1.201,0.786-2.33,1.218-3.478
				c0.212-0.565,0.353-1.156,0.591-1.704c0.847-1.942,1.845-3.796,3.01-5.544c0.265-0.388,0.591-0.724,0.865-1.103
				c0.962-1.333,1.986-2.604,3.125-3.787c0.521-0.539,1.086-1.006,1.633-1.51c1.015-0.927,2.048-1.81,3.169-2.613
				c0.653-0.477,1.324-0.909,2.013-1.333c1.139-0.715,2.313-1.342,3.531-1.924c0.733-0.344,1.448-0.689,2.198-0.98
				c1.351-0.53,2.745-0.936,4.175-1.307c0.689-0.168,1.342-0.397,2.039-0.53c2.154-0.406,4.352-0.671,6.621-0.671
				c2.269,0,4.467,0.265,6.621,0.671c0.697,0.132,1.351,0.362,2.039,0.53c1.43,0.371,2.825,0.777,4.175,1.307
				c0.75,0.291,1.465,0.636,2.198,0.98c1.218,0.583,2.392,1.209,3.531,1.924c0.689,0.424,1.359,0.856,2.013,1.333
				c1.121,0.803,2.154,1.686,3.169,2.613c0.547,0.503,1.112,0.971,1.633,1.51c1.139,1.183,2.163,2.454,3.125,3.787
				c0.274,0.38,0.6,0.715,0.865,1.103c1.165,1.748,2.163,3.602,3.01,5.544c0.238,0.547,0.38,1.139,0.591,1.704
				c0.433,1.148,0.909,2.278,1.218,3.478h72.863c0.309-1.201,0.786-2.33,1.218-3.478c0.212-0.565,0.353-1.156,0.591-1.704
				c0.847-1.942,1.845-3.796,3.01-5.544c0.265-0.388,0.591-0.724,0.865-1.103c0.962-1.333,1.986-2.604,3.125-3.787
				c0.521-0.539,1.086-1.006,1.633-1.51c1.015-0.927,2.048-1.81,3.169-2.613c0.653-0.477,1.324-0.909,2.013-1.333
				c1.139-0.715,2.313-1.342,3.531-1.924c0.733-0.344,1.448-0.689,2.198-0.98c1.351-0.53,2.745-0.936,4.175-1.307
				c0.689-0.168,1.342-0.397,2.039-0.53c2.154-0.406,4.352-0.671,6.621-0.671c2.269,0,4.467,0.265,6.621,0.671
				c0.697,0.132,1.351,0.362,2.039,0.53c1.43,0.371,2.825,0.777,4.175,1.307c0.75,0.291,1.465,0.636,2.198,0.98
				c1.218,0.583,2.392,1.209,3.531,1.924c0.689,0.424,1.359,0.856,2.013,1.333c1.121,0.803,2.154,1.686,3.169,2.613
				c0.547,0.503,1.112,0.971,1.633,1.51c1.139,1.183,2.163,2.454,3.125,3.787c0.274,0.38,0.6,0.715,0.865,1.103
				c1.165,1.748,2.163,3.602,3.01,5.544c0.238,0.547,0.38,1.139,0.591,1.704c0.433,1.148,0.909,2.278,1.218,3.478h13.815
				c2.737,0,4.961-2.216,4.961-4.952v-34.225c0-2.737-2.224-4.961-4.961-4.961h-21.522H136.828h-21.522
				C112.57,185.375,110.345,187.599,110.345,190.336z"></path>
			<path d="M285.802,128.405c-2.154-3.019-5.667-4.82-9.375-4.82h-33.668v44.138h71.124L285.802,128.405z"></path>
			<path d="M225.104,123.586h-33.66c-3.716,0-7.23,1.801-9.384,4.82l-28.081,39.318h71.124V123.586z"></path>
			<path d="M163.311,220.69c-9.737,0-17.655,7.918-17.655,17.655c0,9.737,7.918,17.655,17.655,17.655s17.655-7.918,17.655-17.655
				C180.966,228.608,173.048,220.69,163.311,220.69z"></path>
			<path d="M304.552,220.69c-9.737,0-17.655,7.918-17.655,17.655c0,9.737,7.918,17.655,17.655,17.655
				c9.737,0,17.655-7.918,17.655-17.655C322.207,228.608,314.289,220.69,304.552,220.69z"></path>
			<polygon points="295.725,0 172.138,0 172.138,44.138 172.138,52.966 295.716,52.966 			"></polygon>
			<path d="M419.311,52.966v216.788c12.632,3.505,24.488,8.819,35.31,15.669V26.483C454.621,11.882,442.739,0,428.138,0H313.38
				v35.31h88.276C411.392,35.31,419.311,43.229,419.311,52.966z"></path>
			<path d="M278.32,476.69H66.211c-9.737,0-17.655-7.918-17.655-17.655V52.966c0-9.737,7.918-17.655,17.655-17.655h88.276V0H39.728
				c-14.61,0-26.483,11.882-26.483,26.483v459.034c0,14.601,11.873,26.483,26.483,26.483h278.493
				C302.64,503.031,289.09,490.982,278.32,476.69z"></path>
			<path d="M66.208,52.964v406.069h200.766c-9.781-18.458-15.386-39.477-15.386-61.793c0-73.013,59.401-132.414,132.414-132.414
				c6.003,0,11.864,0.539,17.655,1.324V52.964h-88.276c0,9.737-7.927,17.655-17.655,17.655H172.139
				c-9.737,0-17.655-7.918-17.655-17.655H66.208z M233.932,423.722H101.519c-4.882,0-8.828-3.946-8.828-8.828
				s3.946-8.828,8.828-8.828h132.414c4.882,0,8.828,3.946,8.828,8.828S238.814,423.722,233.932,423.722z M233.932,379.584H101.519
				c-4.882,0-8.828-3.946-8.828-8.828c0-4.882,3.946-8.828,8.828-8.828h132.414c4.882,0,8.828,3.946,8.828,8.828
				C242.76,375.638,238.814,379.584,233.932,379.584z M233.932,335.447H101.519c-4.882,0-8.828-3.946-8.828-8.828
				c0-4.882,3.946-8.828,8.828-8.828h132.414c4.882,0,8.828,3.946,8.828,8.828C242.76,331.501,238.814,335.447,233.932,335.447z
				 M167.699,118.147c5.464-7.645,14.336-12.217,23.737-12.217h84.983c9.41,0,18.282,4.573,23.746,12.217l35.407,49.576h16.984
				c12.473,0,22.616,10.152,22.616,22.616v34.225c0,12.465-10.143,22.607-22.616,22.607H338.61
				c-3.946,15.192-17.646,26.483-34.057,26.483s-30.111-11.29-34.057-26.483h-73.128c-3.946,15.192-17.646,26.483-34.057,26.483
				c-16.41,0-30.111-11.29-34.057-26.483h-13.956c-12.465,0-22.607-10.143-22.607-22.607v-34.225
				c0-12.465,10.143-22.616,22.607-22.616h16.993L167.699,118.147z"></path>
			<path d="M383.999,282.485c-63.276,0-114.759,51.482-114.759,114.759s51.482,114.759,114.759,114.759
				c63.285,0,114.759-51.483,114.759-114.759S447.284,282.485,383.999,282.485z M444.212,358.147l-54.855,78.822
				c-1.412,2.013-3.602,3.363-6.038,3.699c-0.406,0.053-0.812,0.079-1.209,0.079c-2.03,0-4.017-0.697-5.597-2.004l-42.249-34.684
				c-3.769-3.081-4.317-8.651-1.227-12.42c3.099-3.752,8.66-4.308,12.42-1.218l34.869,28.61l49.39-70.974
				c2.789-4.008,8.28-5.005,12.288-2.198C446.012,348.648,446.992,354.148,444.212,358.147z"></path>
		</g>
	</g>
</g>
</svg>