<svg xmlns="http://www.w3.org/2000/svg" xml:space="preserve" id="Layer_1" width="800" height="800" fill="#000" version="1.1" viewBox="0 0 491.532 491.532"><path d="M471.05 368.643h-40.958v-52.957l55.442-55.442c7.998-7.998 7.998-20.965 0-28.963l-55.442-55.442v-52.957h40.958c11.311 0 20.48-9.169 20.48-20.48v-61.44c0-11.311-9.169-20.48-20.48-20.48H348.17c-11.311 0-20.48 9.169-20.48 20.48v61.44c0 11.311 9.169 20.48 20.48 20.48h40.962v52.957l-49.443 49.443H151.855l-49.443-49.443v-43.701l24.939 9.808c10.526 4.14 22.415-1.038 26.554-11.564l22.487-57.18c4.14-10.526-1.038-22.415-11.564-26.554L50.468 1.673c-10.526-4.14-22.415 1.038-26.554 11.564L1.426 70.417c-4.14 10.526 1.038 22.415 11.564 26.554l48.461 19.058v59.81L6.01 231.281c-7.998 7.998-7.998 20.965 0 28.963l55.442 55.442v38.219l-10.984-4.32c-10.526-4.14-22.415 1.038-26.554 11.564L1.426 418.33c-4.14 10.526 1.038 22.415 11.564 26.554l114.36 44.974c10.526 4.14 22.415-1.038 26.554-11.564l22.487-57.18c4.14-10.526-1.038-22.415-11.564-26.554l-62.417-24.546v-54.328l49.443-49.443h187.834l49.443 49.443v52.957h-40.96c-11.311 0-20.48 9.169-20.48 20.48v61.44c0 11.311 9.169 20.48 20.48 20.48h122.88c11.311 0 20.48-9.169 20.48-20.48v-61.44c0-11.311-9.17-20.48-20.48-20.48m-102.4-307.2h81.92v20.48h-81.92zM54.536 47.287l76.242 29.983-7.496 19.062L47.04 66.349zm68.746 396.958L47.04 414.261l7.496-19.062 76.242 29.984zM81.932 278.24l-32.477-32.477 32.477-32.477 32.477 32.477zm327.68-64.954 32.477 32.477-32.477 32.477-32.477-32.477zm40.958 216.797h-81.92v-20.48h81.92z"/></svg>