<svg xmlns="http://www.w3.org/2000/svg" xml:space="preserve" id="Layer_1" width="800" height="800" fill="#000" version="1.1" viewBox="0 0 512 512"><path d="M290.208 239.432c-27.996 0-50.773 22.777-50.773 50.773v34.205c0 27.996 22.777 50.773 50.773 50.773s50.773-22.777 50.773-50.773v-34.205c0-27.997-22.778-50.773-50.773-50.773m34.739 84.977c0 19.155-15.585 34.739-34.739 34.739s-34.739-15.585-34.739-34.739v-34.205c0-19.155 15.585-34.739 34.739-34.739 19.155 0 34.739 15.585 34.739 34.739zM226.613 343.656a8.02 8.02 0 0 0-11.225 1.595c-6.636 8.833-16.768 13.899-27.797 13.899-19.155 0-34.739-15.585-34.739-34.739v-34.205c0-19.155 15.585-34.739 34.739-34.739 11.018 0 21.143 5.057 27.779 13.875a8.015 8.015 0 0 0 11.226 1.585 8.016 8.016 0 0 0 1.585-11.226c-9.693-12.88-24.488-20.267-40.591-20.267-27.996 0-50.773 22.777-50.773 50.773v34.205c0 27.996 22.777 50.773 50.773 50.773 16.119 0 30.923-7.4 40.616-20.302a8.02 8.02 0 0 0-1.593-11.227M392.822 376.251h-21.557l19.526-14.644c6.292-4.718 10.048-12.23 10.048-20.095 0-13.851-11.268-25.119-25.119-25.119s-25.119 11.268-25.119 25.119a8.017 8.017 0 0 0 16.034 0c0-5.01 4.076-9.086 9.086-9.086s9.086 4.076 9.086 9.086a9.13 9.13 0 0 1-3.634 7.269l-23.943 17.958a16.65 16.65 0 0 0-6.627 13.254v4.276a8.017 8.017 0 0 0 8.017 8.017h34.205a8.017 8.017 0 1 0-.003-16.035"/><path d="M428.699 248.556c-11.043-1.24-22.151-.464-33.016 2.308-.201.052-.337-.067-.353-.095-3.797-13.443-9.608-26.274-17.092-38.059h90.076c22.353 0 41.457-16.736 43.495-38.101 1.133-11.885-2.795-23.737-10.778-32.516a42.32 42.32 0 0 0-31.246-13.826c-4.588 0-9.115.75-13.458 2.23-.112-.058-.356-.235-.519-.616-9.396-21.76-30.762-35.82-54.433-35.82-23.183 0-44.078 13.55-53.733 34.274-16.962.971-31.406 12.07-37.07 27.665a142 142 0 0 0-18.984-6.253 67.8 67.8 0 0 0-61.24-38.584c-3.928 0-7.91.358-11.833 1.066-.402.073-.838-.119-.984-.346-14.168-21.869-38.148-34.923-64.144-34.923-30.819 0-58.454 18.393-70.406 46.858-.152.36-.421.544-.552.598-11.724-4.983-24.646-6.025-37.374-3.011-21.969 5.202-39.138 22.859-43.741 44.984-3.722 17.892.639 36.141 11.965 50.065 8.225 10.112 19.333 17.073 31.663 20.137-9.248 6.961-17.436 15.26-24.257 24.707C7.504 279.551.355 300.767.014 322.65c-.466 29.897 10.82 58.085 31.779 79.374 20.963 21.292 48.962 33.018 78.838 33.018h304.826c20.274 0 39.738-6.023 56.287-17.418 16.91-11.644 29.18-27.843 35.481-46.848 8.817-26.59 5.19-55.408-9.951-79.063-15.31-23.92-40.946-40.054-68.575-43.157m-78.654-104.257c.12.004.471.052.729.088.495.067.99.131 1.492.174a8.016 8.016 0 0 0 8.248-5.358c6.046-17.41 22.465-29.107 40.859-29.107 17.267 0 32.855 10.261 39.712 26.142 3.524 8.161 12.281 12.224 20.368 9.451a25.6 25.6 0 0 1 8.329-1.388 26.25 26.25 0 0 1 19.383 8.578c5.024 5.525 7.396 12.702 6.681 20.209-1.261 13.228-13.355 23.59-27.533 23.59H366.455c-6.659-7.885-14.141-15.094-22.356-21.408a146 146 0 0 0-18.935-12.337c3.254-10.89 13.25-18.633 24.881-18.634M25.72 206.333c-8.268-10.165-11.442-23.536-8.707-36.683 3.289-15.811 16.043-28.93 31.737-32.646 9.397-2.225 18.892-1.469 27.461 2.187 3.908 1.667 8.257 1.695 12.243.08 4.157-1.685 7.551-5.056 9.31-9.249 9.445-22.495 31.278-37.03 55.623-37.03 20.538 0 39.487 10.321 50.687 27.608 3.708 5.724 10.493 8.631 17.284 7.409a51 51 0 0 1 8.99-.811 51.79 51.79 0 0 1 40.044 18.898c-4.752-.464-9.55-.727-14.391-.727-25.41 0-50.412 6.677-72.299 19.309a145.73 145.73 0 0 0-51.802 50.814c-.059.097-.238.394-.732.298-20.276-3.923-40.215-2.038-59.268 5.601-.749.3-1.487.624-2.228.938H59.324v.001c-13.087 0-25.335-5.831-33.604-15.997m466.287 159.396c-10.567 31.867-41.33 53.279-76.55 53.279H110.632c-25.547 0-49.487-10.026-67.413-28.233-17.921-18.202-27.571-42.307-27.173-67.875.29-18.581 6.39-36.638 17.64-52.219 11.098-15.37 26.377-27.268 44.183-34.409 10.781-4.323 21.589-6.472 32.696-6.472 5.76 0 11.602.578 17.558 1.731 6.983 1.352 13.851-1.694 17.508-7.758a129.67 129.67 0 0 1 46.088-45.208c19.454-11.228 41.683-17.162 64.284-17.162 57.363 0 108.311 38.542 123.899 93.726 2.37 8.389 11.226 13.444 19.745 11.273 8.982-2.292 18.155-2.934 27.265-1.911 22.873 2.57 44.131 15.977 56.861 35.867 12.704 19.85 15.63 43.067 8.234 65.371"/></svg>