<svg xmlns="http://www.w3.org/2000/svg" xml:space="preserve" id="Layer_1" width="800" height="800" fill="#000" version="1.1" viewBox="0 0 512 512"><path d="M448 335.543c-3.831-21.889-16.182-39.84-33.319-50.731L146.11 50.695C143.963 22.451 120.199 0 91.429 0 61.257 0 36.571 24.686 36.571 54.857c0 27.057 19.857 49.688 45.714 54.075v73.925c0 5.486 3.657 9.143 9.143 9.143C111.543 192 128 208.457 128 228.571s-16.457 36.571-36.571 36.571-36.571-16.457-36.571-36.571c0-5.486-3.657-9.143-9.143-9.143s-9.143 3.657-9.143 9.143c0 30.171 24.686 54.857 54.857 54.857s54.857-24.686 54.857-54.857c0-27.057-19.857-49.688-45.714-54.075v-56.952l199.505 227.882-25.79 155.601c0 2.743 0 5.486 1.829 7.314 1.829 2.743 4.571 3.657 7.314 3.657h182.857c2.743 0 5.486-.914 7.314-3.657 1.829-1.829 1.829-4.571 1.829-7.314zM54.857 54.857c0-20.114 16.457-36.571 36.571-36.571s36.571 16.457 36.571 36.571q-.001.899-.046 1.787c-.011.234-.033.466-.049.699-.024.351-.047.702-.081 1.051-.029.301-.068.599-.105.897-.033.271-.065.543-.104.812q-.078.52-.171 1.036-.053.312-.112.622a35 35 0 0 1-.348 1.598q-.161.666-.346 1.324l-.055.193C122.639 78.538 110.822 89.032 96 90.514c-.639.213-1.277.482-1.905.806-.882.064-1.769.109-2.667.109-20.114 0-36.571-16.458-36.571-36.572m88.686 17.372 229.283 201.189c-31.324.846-57.643 21.152-67.832 49.808L114.286 105.143c13.714-6.4 24.685-18.286 29.257-32.914M294.4 493.714 320 339.2c4.571-27.429 27.429-46.629 54.857-46.629q1.22.002 2.425.055c11.872.536 22.841 4.98 31.404 11.83a9.7 9.7 0 0 0 1.466.905 56.47 56.47 0 0 1 19.563 33.838l25.6 154.514H294.4z"/><path d="M374.857 310.857c-20.114 0-36.571 16.457-36.571 36.571S354.743 384 374.857 384s36.571-16.457 36.571-36.571-16.457-36.572-36.571-36.572m0 54.857c-10.057 0-18.286-8.229-18.286-18.286s8.229-18.286 18.286-18.286 18.286 8.229 18.286 18.286-8.229 18.286-18.286 18.286M109.714 54.857c0-10.057-8.229-18.286-18.286-18.286S73.142 44.8 73.142 54.857s8.229 18.286 18.286 18.286 18.286-8.229 18.286-18.286"/></svg>