<?xml version="1.0" encoding="iso-8859-1"?>
<!-- Uploaded to: SVG Repo, www.svgrepo.com, Generator: SVG Repo Mixer Tools -->
<svg fill="#000000" height="800px" width="800px" version="1.1" id="Layer_1" xmlns="http://www.w3.org/2000/svg" xmlns:xlink="http://www.w3.org/1999/xlink" viewBox="0 0 512 512" xml:space="preserve">
<g transform="translate(1 1)">
	<g>
		<g>
			<path d="M447,334.543c-3.831-21.889-16.182-39.84-33.319-50.731L145.11,49.695C142.963,21.451,119.199-1,90.429-1
				C60.257-1,35.571,23.686,35.571,53.857c0,27.057,19.857,49.688,45.714,54.075v73.925c0,5.486,3.657,9.143,9.143,9.143
				C110.543,191,127,207.457,127,227.571c0,20.114-16.457,36.571-36.571,36.571c-20.114,0-36.571-16.457-36.571-36.571
				c0-5.486-3.657-9.143-9.143-9.143s-9.143,3.657-9.143,9.143c0,30.171,24.686,54.857,54.857,54.857
				c30.171,0,54.857-24.686,54.857-54.857c0-27.057-19.857-49.688-45.714-54.075v-56.952l199.505,227.882l-25.79,155.601
				c0,2.743,0,5.486,1.829,7.314c1.829,2.743,4.571,3.657,7.314,3.657h182.857c2.743,0,5.486-0.914,7.314-3.657
				c1.829-1.829,1.829-4.571,1.829-7.314L447,334.543z M53.857,53.857c0-20.114,16.457-36.571,36.571-36.571
				c20.114,0,36.571,16.457,36.571,36.571c0,0.599-0.017,1.195-0.046,1.787c-0.011,0.234-0.033,0.466-0.049,0.699
				c-0.024,0.351-0.047,0.702-0.081,1.051c-0.029,0.301-0.068,0.599-0.105,0.897c-0.033,0.271-0.065,0.543-0.104,0.812
				c-0.051,0.347-0.11,0.692-0.171,1.036c-0.036,0.208-0.072,0.415-0.112,0.622c-0.076,0.393-0.16,0.784-0.249,1.172
				c-0.032,0.142-0.065,0.284-0.099,0.426c-0.108,0.444-0.222,0.886-0.346,1.324c-0.018,0.064-0.037,0.129-0.055,0.193
				C121.639,77.538,109.822,88.032,95,89.514c-0.639,0.213-1.277,0.482-1.905,0.806c-0.882,0.064-1.769,0.109-2.667,0.109
				C70.314,90.429,53.857,73.971,53.857,53.857z M142.543,71.229l229.283,201.189c-31.324,0.846-57.643,21.152-67.832,49.808
				L113.286,104.143C127,97.743,137.971,85.857,142.543,71.229z M293.4,492.714L319,338.2c4.571-27.429,27.429-46.629,54.857-46.629
				c0.813,0,1.621,0.021,2.425,0.055c11.872,0.536,22.841,4.98,31.404,11.83c0.462,0.346,0.953,0.648,1.466,0.905
				c10.084,8.379,17.223,20.265,19.563,33.838l25.6,154.514H293.4z"></path>
			<path d="M373.857,309.857c-20.114,0-36.571,16.457-36.571,36.571S353.743,383,373.857,383c20.114,0,36.571-16.457,36.571-36.571
				S393.971,309.857,373.857,309.857z M373.857,364.714c-10.057,0-18.286-8.229-18.286-18.286s8.229-18.286,18.286-18.286
				s18.286,8.229,18.286,18.286S383.914,364.714,373.857,364.714z"></path>
			<path d="M108.714,53.857c0-10.057-8.229-18.286-18.286-18.286c-10.057,0-18.286,8.229-18.286,18.286
				c0,10.057,8.229,18.286,18.286,18.286C100.486,72.143,108.714,63.914,108.714,53.857z"></path>
		</g>
	</g>
</g>
</svg>