<svg xmlns="http://www.w3.org/2000/svg" xml:space="preserve" id="Capa_1" width="800" height="800" fill="#000" version="1.1" viewBox="0 0 349.667 349.667"><path d="M174.834 197.204c24.125 0 80.846-29.034 80.846-98.603 0-9.703-.237-19.076-1.036-27.933-1.313-17.433-4.884-32.883-13.775-44.724C229.468 9.836 209.52 0 174.834 0c-34.688 0-54.637 9.837-66.038 25.948-8.885 11.834-12.456 27.273-13.77 44.694-.802 8.865-1.039 18.247-1.039 27.96 0 69.568 56.722 98.602 80.847 98.602m26.389-161.081c-2.355 5.951-3.534 8.927-5.89 14.877-15.209-4.297-25.791-4.297-41 0l-5.89-14.877c19.019-5.758 33.762-5.757 52.78 0m-95.208 47.391c.929 2.034 4.886 9.872 11.014 10.607 7.04.845 18.727-24.935 57.804-24.998 39.077.063 50.764 25.843 57.804 24.998 6.127-.735 10.085-8.574 11.014-10.607.19 4.994.26 10.048.26 15.088 0 34.005-15.016 55.075-27.612 66.762-15.872 14.727-33.494 20.072-41.466 20.072s-25.594-5.345-41.466-20.072c-12.597-11.687-27.612-32.757-27.612-66.762 0-5.04.07-10.095.26-15.088"/><path d="M324.926 298.327c-4.128-25.665-12.624-58.724-29.667-70.472-11.638-8.024-52.243-29.718-69.582-38.982l-.3-.16a5.67 5.67 0 0 0-6.17.541c-9.083 7.131-19.033 11.937-29.573 14.284a5.67 5.67 0 0 0-4.067 3.521l-10.732 28.291-10.733-28.291a5.67 5.67 0 0 0-4.067-3.521c-10.54-2.347-20.49-7.153-29.573-14.284a5.67 5.67 0 0 0-6.17-.541c-17.134 9.155-58.235 31.291-69.831 39.107-19.619 13.217-28.198 61.052-29.719 70.507a5.7 5.7 0 0 0 .254 2.792c.702 1.982 18.708 48.548 149.839 48.548s149.137-46.566 149.839-48.548a5.7 5.7 0 0 0 .252-2.792m-69.277-20.99-12.655 27.928a1.256 1.256 0 0 1-2.387-.362l-2.33-18.468h-5.821a1.255 1.255 0 0 1-1.254-1.267l.281-27.927a1.254 1.254 0 0 1 1.254-1.242h19.732a1.255 1.255 0 0 1 1.199 1.623l-5.515 17.942h6.353a1.256 1.256 0 0 1 1.143 1.773"/></svg>