<svg xmlns="http://www.w3.org/2000/svg" width="50" height="50" viewBox="0 0 256 256"><path fill="#ad2424" stroke-miterlimit="10" d="M16 3C8.832 3 3 8.832 3 16v18c0 7.168 5.832 13 13 13h18c7.168 0 13-5.832 13-13V16c0-7.168-5.832-13-13-13zm0 2h18c6.086 0 11 4.914 11 11v18c0 6.086-4.914 11-11 11H16C9.914 45 5 40.086 5 34V16C5 9.914 9.914 5 16 5m21 6a2 2 0 1 0 0 4 2 2 0 0 0 0-4m-12 3c-6.063 0-11 4.937-11 11s4.937 11 11 11 11-4.937 11-11-4.937-11-11-11m0 2c4.982 0 9 4.018 9 9s-4.018 9-9 9-9-4.018-9-9 4.018-9 9-9" font-family="none" font-size="none" font-weight="none" style="mix-blend-mode:normal" text-anchor="none" transform="scale(5.12)"/></svg>