<svg xmlns="http://www.w3.org/2000/svg" id="svg237" width="540" height="180.855" preserveAspectRatio="xMidYMid" version="1.0" viewBox="0 0 405 135.641" zoomAndPan="magnify"><defs id="defs7"><clipPath id="40ef8b7d1e"><path id="path4" d="M38 113.574h300v63.75H38Zm0 0" clip-rule="nonzero"/></clipPath></defs><g id="g618" transform="translate(14.653 -113.574)"><g id="g17" clip-path="url('#40ef8b7d1e')" style="fill:#fff"><path id="path15" fill="#fff" fill-opacity="1" fill-rule="nonzero" d="m39.328 146.41 1.844.125q.303.017.613.027l1.227.06 1.226.03c.817.031 1.637.02 2.45.028.203.004.41-.004.613-.008l1.222-.02.305-.008.309-.012c.812-.035 1.625-.054 2.433-.117.407-.027.813-.047 1.22-.082l1.21-.105q.303-.02.605-.055l.606-.066 1.207-.137 1.203-.164.598-.078.597-.101 1.196-.192 1.187-.222.598-.114c.195-.035.39-.082.586-.125l1.18-.254c.199-.039.39-.09.585-.14l.586-.14c.387-.099.786-.188 1.16-.294l1.133-.312.285-.078.297-.09.602-.184.894-.273.25-.086 1.145-.39 1.14-.391q.286-.095.57-.208l.567-.214 1.13-.43.566-.215c.191-.07.379-.152.566-.23l2.242-.93 2.23-.988c.372-.16.743-.34 1.114-.512l1.11-.52.554-.261.273-.13.278-.136 2.21-1.078q.552-.278 1.102-.555l1.106-.558q.55-.274 1.101-.559l2.207-1.137 4.438-2.297 2.238-1.144 1.121-.574 1.13-.567 1.136-.562.562-.281.575-.274 2.296-1.101 2.325-1.059c.383-.18.789-.352 1.187-.523l1.203-.516.598-.254.3-.125.294-.117 1.16-.461 1.164-.461.145-.055.199-.074.297-.11.597-.218 1.2-.441.597-.22.602-.21 2.41-.832 2.43-.785c.203-.067.402-.133.609-.196l.61-.187 1.222-.367q.608-.183 1.223-.368l1.23-.343c.816-.23 1.637-.465 2.465-.672l1.851-.477.313-.078.309-.078 2.488-.586c6.652-1.492 13.406-2.566 20.21-3.11l1.278-.105.32-.023.325-.02 1.933-.117c.43-.023.867-.054 1.282-.062l2.5-.094.19-.008h.161l.316-.008.637-.008 1.27-.023c.847-.02 1.695-.016 2.547-.016.847.004 1.695-.004 2.546.02l2.543.05 2.547.098.637.023q.319.02.637.04l1.273.078 1.27.074q.322.018.636.043l.637.055c.848.07 1.695.132 2.543.207l2.54.27.632.065.637.082 2.531.325c.422.062.844.129 1.266.191l1.261.2.63.097.316.05.316.06 2.516.46c.422.07.836.164 1.254.254l1.25.266 1.253.27 1.243.304 1.246.305.62.152c.208.05.415.113.618.168l2.777.774.922.289 1.223.382.61.192c.202.066.41.125.613.199l1.226.434 1.227.43.61.218.581.227 2.328.914.188.074.144.062.297.13.59.253 1.18.512c.398.164.78.351 1.168.531l1.156.547c.781.352 1.531.75 2.293 1.125.379.195.762.379 1.137.578l1.12.594c2.997 1.582 5.907 3.262 8.798 4.93 2.886 1.671 5.75 3.332 8.648 4.89.719.403 1.45.77 2.18 1.153.363.187.722.382 1.09.562l1.101.543 1.102.54c.367.175.738.339 1.113.507l1.11.508c.37.176.741.316 1.113.476l1.109.465.555.227c.191.078.39.148.586.218l1.171.438.582.219.297.11c.055.019.004 0 .036.01l.07.024.144.047c1.508.524 3.067.95 4.641 1.328 3.16.758 6.414 1.301 9.695 1.817 1.645.257 3.293.507 4.953.78l.622.099.625.109c.414.07.84.137 1.246.215l2.46.449c3.266.59 6.555 1.137 9.848 1.707 6.582 1.137 13.192 2.352 19.684 4.133 3.246.89 6.465 1.918 9.594 3.195a57 57 0 0 1 4.613 2.11l.285.144.281.149.559.304c.37.2.734.418 1.105.625.364.219.727.434 1.086.66.356.235.719.457 1.067.7l.523.359.516.375c.347.246.68.508 1.02.77.167.128.331.265.495.402l.489.406.476.426c.16.14.32.277.473.43l.465.437.113.11.336.343c.144.153.3.305.441.461l.43.473c.07.082.145.156.21.238l.208.246.41.488.39.504c.13.172.262.34.38.516l.367.52q.091.129.18.265l.343.54q.09.128.168.269l.32.55c.055.09.114.184.16.278l.446.844.27.578c.09.191.183.383.261.578l.242.59.063.148.055.145.109.3c.07.2.145.399.211.598l.187.61.098.3c.031.102.055.207.082.309l.16.617.043.152.035.153.2.918a.346.346 0 0 1-.254.402.34.34 0 0 1-.418-.246l-.156-.606-.079-.3a2 2 0 0 0-.039-.153l-.043-.144-.18-.586c-.03-.094-.054-.192-.09-.29l-.1-.288-.208-.578c-.07-.192-.152-.38-.226-.57l-.118-.282-.054-.14-.067-.141-.254-.559c-.082-.183-.18-.363-.273-.547l-.281-.543-.301-.53-.152-.267a9 9 0 0 0-.16-.257l-.329-.516c-.05-.09-.11-.172-.168-.258l-.175-.25-.172-.25c-.059-.082-.117-.168-.18-.246l-.371-.488c-.121-.164-.254-.32-.383-.477l-.387-.468-.41-.453-.203-.227-.21-.223-.427-.437c-.14-.145-.293-.281-.441-.426l-.219-.21-.113-.106-.113-.098-.457-.406a9 9 0 0 0-.47-.395l-.468-.39-.484-.372q-.241-.193-.488-.37c-.332-.239-.66-.481-1.004-.704l-.504-.34-.524-.328c-.34-.222-.695-.426-1.047-.636-.175-.106-.355-.204-.53-.305l-.536-.3c-.367-.188-.723-.384-1.09-.571l-.55-.27-.274-.136-.281-.133c-1.48-.703-3-1.332-4.543-1.903-3.086-1.14-6.266-2.043-9.477-2.812-3.215-.77-6.469-1.399-9.734-1.961-3.274-.559-6.559-1.043-9.856-1.512-3.297-.465-6.605-.91-9.918-1.418l-2.476-.375c-.41-.066-.813-.117-1.223-.176l-.61-.085-.613-.082c-1.644-.22-3.296-.422-4.957-.633a207 207 0 0 1-4.996-.688 91 91 0 0 1-5.02-.902c-1.675-.356-3.35-.762-5.01-1.285l-.235-.07c-.016-.005-.117-.04-.11-.036l-.89-.304-1.184-.403q-.291-.099-.59-.203l-.605-.23-1.215-.465c-.816-.301-1.59-.64-2.379-.973-.39-.164-.785-.328-1.176-.5l-1.16-.527-1.156-.531c-.387-.176-.762-.368-1.145-.555-.761-.371-1.527-.735-2.273-1.125-3.016-1.524-5.961-3.137-8.887-4.727-2.922-1.597-5.832-3.164-8.77-4.636l-1.097-.551c-.367-.18-.738-.352-1.11-.528-.738-.347-1.468-.71-2.218-1.03l-1.117-.493c-.371-.164-.739-.336-1.118-.48l-1.125-.457-.562-.227-.285-.113-.137-.063h-.004s-.004 0-.027-.008l-.074-.027-2.348-.86-.59-.214-.57-.188-1.145-.37-1.14-.376c-.188-.066-.387-.117-.582-.176l-.582-.168-1.754-.508-.297-.085-.293-.079-2.363-.605c-.2-.047-.395-.105-.594-.148l-.594-.13-1.191-.269-1.192-.262-2.398-.46c-.399-.079-.797-.16-1.203-.22l-2.41-.39-.305-.05-.3-.04-.61-.082-1.211-.164c-.407-.055-.809-.113-1.215-.16l-1.215-.129-1.219-.133-.605-.066-.613-.05-2.442-.204c-.812-.055-1.633-.094-2.45-.145l-.608-.035q-.307-.018-.614-.031l-2.453-.082q-.304-.007-.613-.02l-3.07-.03-2.454.023c-.82.004-1.64.035-2.457.058-.82.028-1.64.047-2.46.094l-2.419.125-2.5.18c-.421.023-.812.066-1.214.105l-1.203.113-.602.055-.297.031-.305.036-1.214.14c-6.473.746-12.887 1.992-19.22 3.559-3.163.793-6.304 1.68-9.425 2.633l-1.168.363-.586.183-.582.188-2.328.762-2.32.793-.578.199-.575.207-1.156.418-.578.203-.285.105-.074.024c-.004.004-.094.039-.024.012l-.148.054-1.164.45-1.461.554-.282.117-.55.227-1.106.453a42 42 0 0 0-1.11.461l-2.241.973-2.239 1.007-.562.254-.559.258-2.242 1.043-1.121.531L98 137.5c-5.996 2.86-12.105 5.79-18.52 8.188a92 92 0 0 1-9.863 3.05l-.61.149-.3.07-.324.07-1.301.274c-.434.093-.855.16-1.285.238l-.637.113c-.215.036-.426.078-.64.11l-1.282.191c-.215.031-.425.066-.64.09l-.645.078-1.285.152-1.285.114-.645.058-1.93.121c-.43.024-.859.032-1.288.051l-.645.02c-.215.011-.426.008-.64.011l-1.29.012c-.43.004-.855-.012-1.285-.016-.855-.004-1.71-.046-2.562-.082l-.32-.011-.321-.024-1.277-.086q-.318-.017-.64-.046c-.849-.079-1.696-.145-2.544-.25-.254-.032-.504-.06-.758-.09.164.222.328.445.477.676.5.769.93 1.582 1.273 2.433.34.856.59 1.746.73 2.656.071.453.11.91.126 1.368q.022.689-.043 1.367c-.047.449-.114.898-.211 1.34-.043.218-.106.433-.16.648-.063.215-.121.434-.2.64q-.177.528-.402 1.032.352-.282.723-.55.244-.177.488-.352c.168-.118.332-.23.5-.344l.246-.172c.086-.063.168-.117.254-.176l.5-.34.254-.168.254-.164q.251-.164.508-.328c.34-.215.683-.422 1.02-.625.429-.254.855-.492 1.28-.723.47-.375.954-.746 1.465-1.117a61 61 0 0 1 2.29-1.574q.304-.193.609-.39.31-.19.62-.383.322-.19.641-.38.33-.187.657-.374a48 48 0 0 1 5.746-2.762 56.99 56.99 0 0 1 6.582-2.187 74 74 0 0 1 7.238-1.536q1.876-.303 3.805-.543a122 122 0 0 1 5.89-.59c.34-.027.676-.05 1.016-.078q.498-.032.996-.062l.5-.031.516-.024q.519-.023 1.039-.043c.683-.02 1.37-.05 2.066-.054a88 88 0 0 1 4.184.027 95 95 0 0 0 1.055.031l1.058.047c.356.02.707.04 1.063.063q.528.027 1.062.066c2.836.195 5.695.504 8.555.898 5.715.778 11.418 1.86 17.094 2.746 1.421.22 2.836.422 4.257.618 1.43.187 2.86.379 4.286.566 1.425.184 2.851.367 4.27.54 1.417.171 2.831.343 4.241.5 5.64.644 11.196 1.167 16.578 1.515 5.383.351 10.594.531 15.532.515 2.472-.011 4.875-.066 7.195-.164 2.32-.097 4.562-.25 6.707-.43 2.148-.187 4.203-.421 6.152-.675 1.95-.258 3.793-.55 5.52-.856 1.726-.308 3.336-.64 4.824-.964q.551-.128 1.086-.25l1.043-.25q.506-.123.988-.247c.324-.085.64-.16.946-.246.609-.164 1.187-.316 1.726-.472.27-.078.535-.149.79-.223l.73-.219c.472-.136.906-.277 1.304-.398.399-.121.758-.242 1.082-.344.32-.11.61-.2.852-.281q.369-.129.621-.211c.328-.113.504-.172.504-.172l-.484.227c-.317.148-.79.37-1.414.644-.31.137-.657.293-1.043.453-.387.164-.805.344-1.266.524l-.711.289q-.37.145-.77.297c-.527.207-1.093.41-1.691.629a93 93 0 0 1-8.8 2.671c-1.723.442-3.571.86-5.528 1.246-1.961.395-4.031.747-6.2 1.06-4.34.624-9.074 1.077-14.09 1.308-5.015.226-10.316.234-15.784.03-5.465-.198-11.102-.608-16.809-1.171q-2.138-.21-4.289-.45a415 415 0 0 1-4.305-.495q-1.076-.136-2.16-.266-1.078-.14-2.156-.277l-1.086-.145q-.545-.069-1.09-.144c-.723-.102-1.45-.211-2.168-.32-5.781-.883-11.457-1.985-17.039-2.79a158 158 0 0 0-4.168-.55 116 116 0 0 0-4.129-.418 102 102 0 0 0-8.105-.368c-.668-.008-1.328.004-1.992.008l-.977.024c-.164.004-.324.004-.488.011-.164.004-.332.012-.5.016q-.498.02-.996.04c-.325.015-.645.026-.97.042l-.976.051c-.324.02-.648.035-.968.055q-1.94.112-3.817.277-1.886.165-3.707.383a83 83 0 0 0-3.578.508 68 68 0 0 0-3.434.644 59 59 0 0 0-6.386 1.73 51 51 0 0 0-5.649 2.278c-.87.418-1.715.852-2.523 1.289-.809.445-1.578.895-2.317 1.352-.742.457-1.449.91-2.12 1.37q-1.014.683-1.923 1.36-.913.675-1.734 1.32-.709.562-1.351 1.094-.093.094-.192.188c-.27.257-.523.52-.781.77q-.782.744-1.504 1.425-.355.342-.688.672-.171.156-.332.32l-.308.313c-.418.406-.781.797-1.121 1.132-.086.082-.16.172-.239.25-.078.082-.152.165-.222.239l-.403.41c-.234.258-.425.457-.558.594l-.211.203-.004.004a.11.11 0 0 1-.098.027c-.054-.016-.09-.07-.074-.125 0 0 .024-.101.078-.285.051-.188.133-.457.254-.797.059-.168.137-.348.219-.547.09-.2.176-.422.289-.64.11-.223.238-.457.367-.707.133-.25.293-.497.453-.758.082-.133.164-.262.254-.399.09-.133.184-.261.281-.398.2-.27.391-.551.622-.82.148-.192.316-.375.484-.567.176-.36.344-.723.492-1.09.035-.097.078-.191.11-.285l.105-.285.05-.14.048-.145.093-.285c.118-.387.223-.77.297-1.16.043-.196.067-.391.102-.586.023-.196.055-.387.066-.582q.058-.588.04-1.168c0-.192-.016-.383-.032-.575-.02-.191-.039-.382-.066-.57a11 11 0 0 0-.235-1.125 10 10 0 0 0-.37-1.078c-.141-.352-.306-.695-.481-1.035-.36-.672-.79-1.309-1.274-1.907a14.6 14.6 0 0 0-2.476-2.402 19 19 0 0 0-.453-.336 6 6 0 0 0-.23-.152l-.11-.074-.055-.032c-.012-.011-.039-.023-.035-.023z" style="fill:#fff"/></g><g id="g25" fill="#fff" fill-opacity="1" style="fill:#fff"><g id="g23" style="fill:#fff" transform="translate(37.51 217.632)"><g id="g21" style="fill:#fff"><path id="path19" d="M8.656.328q-3.75 0-5.578-2.64-1.828-2.638-1.828-8v-14.891q-.001-4.794 2.125-7.25 2.138-2.451 6.375-2.453 3.42.001 5.313 1.375 1.886 1.359 2.609 3.984.733 2.612.734 6.719h-6.765v-3.11c0-.82-.118-1.46-.344-1.921q-.344-.687-1.235-.688-1.968 0-1.968 2.578v16.75q-.002 1.566.406 2.375.404.797 1.406.797.996 0 1.406-.797.406-.81.407-2.375v-4.953h-1.86v-5.953h8.47V0h-2.782l-1.172-2.906Q12.512.328 8.656.328m0 0" style="fill:#fff"/></g></g></g><g id="g33" fill="#fff" fill-opacity="1" style="fill:#fff"><g id="g31" style="fill:#fff" transform="translate(58.489 217.632)"><g id="g29" style="fill:#fff"><path id="path27" d="M1.531 0v-34.594h13.844v6.688H8.578v6.734h6.516v6.516H8.578v7.937h7.25V0Zm0 0" style="fill:#fff"/></g></g></g><g id="g41" fill="#fff" fill-opacity="1" style="fill:#fff"><g id="g39" style="fill:#fff" transform="translate(76.528 217.632)"><g id="g37" style="fill:#fff"><path id="path35" d="M9.781.328c-2.793 0-4.914-.851-6.36-2.562Q1.25-4.794 1.25-9.422V-25.89q0-4.465 2.172-6.734 2.168-2.28 6.36-2.281 4.184 0 6.359 2.281 2.186 2.269 2.187 6.734v16.47q0 4.675-2.187 7.218Q13.966.327 9.78.328m0-6.375q.921 0 1.25-.797.328-.808.328-2.25v-16.922q0-1.125-.312-1.828-.3-.702-1.219-.703-1.734 0-1.734 2.61v16.875c0 1 .117 1.757.36 2.265q.355.75 1.327.75m0 0" style="fill:#fff"/></g></g></g><g id="g49" fill="#fff" fill-opacity="1" style="fill:#fff"><g id="g47" style="fill:#fff" transform="translate(97.547 217.632)"><g id="g45" style="fill:#fff"><path id="path43" d="M1.531-34.594h10.625q2.544.001 3.922 1.157 1.388 1.142 1.875 3.218c.32 1.387.485 3.153.485 5.297 0 1.961-.258 3.492-.766 4.594q-.77 1.641-2.656 2.297 1.577.315 2.28 1.562.704 1.254.704 3.375L17.922 0h-6.766v-13.531q0-1.452-.562-1.844-.563-.406-2.063-.406V0h-7zm8.703 12.813q1.437 0 1.438-3.14-.001-1.373-.125-2.048-.11-.684-.438-.953-.314-.264-.921-.265h-1.61v6.406zm0 0" style="fill:#fff"/></g></g></g><g id="g57" fill="#fff" fill-opacity="1" style="fill:#fff"><g id="g55" style="fill:#fff" transform="translate(118.203 217.632)"><g id="g53" style="fill:#fff"><path id="path51" d="M8.656.328q-3.75 0-5.578-2.64-1.828-2.638-1.828-8v-14.891q-.001-4.794 2.125-7.25 2.138-2.451 6.375-2.453 3.42.001 5.313 1.375 1.886 1.359 2.609 3.984.733 2.612.734 6.719h-6.765v-3.11c0-.82-.118-1.46-.344-1.921q-.344-.687-1.235-.688-1.968 0-1.968 2.578v16.75q-.002 1.566.406 2.375.404.797 1.406.797.996 0 1.406-.797.406-.81.407-2.375v-4.953h-1.86v-5.953h8.47V0h-2.782l-1.172-2.906Q12.512.328 8.656.328m0 0" style="fill:#fff"/></g></g></g><g id="g65" fill="#fff" fill-opacity="1" style="fill:#fff"><g id="g63" style="fill:#fff" transform="translate(139.182 217.632)"><g id="g61" style="fill:#fff"><path id="path59" d="M1.203 0v-34.594h6.688V0Zm0 0" style="fill:#fff"/></g></g></g><g id="g73" fill="#fff" fill-opacity="1" style="fill:#fff"><g id="g71" style="fill:#fff" transform="translate(149.772 217.632)"><g id="g69" style="fill:#fff"><path id="path67" d="m.61 0 3.343-34.594h11.703L18.97 0h-6.563l-.484-5.594H7.734L7.328 0Zm7.64-11.11h3.14L9.86-28.702h-.313zm0 0" style="fill:#fff"/></g></g></g><g id="g87" fill="#fff" fill-opacity="1" style="fill:#fff"><g id="g85" style="fill:#fff" transform="translate(181.623 217.632)"><g id="g83" style="fill:#fff"><path id="path81" d="M1.531 0v-34.594h6.922v28.719h7.125V0Zm0 0" style="fill:#fff"/></g></g></g><g id="g95" fill="#fff" fill-opacity="1" style="fill:#fff"><g id="g93" style="fill:#fff" transform="translate(199.058 217.632)"><g id="g91" style="fill:#fff"><path id="path89" d="M1.203 0v-34.594h6.688V0Zm0 0" style="fill:#fff"/></g></g></g><g id="g103" fill="#fff" fill-opacity="1" style="fill:#fff"><g id="g101" style="fill:#fff" transform="translate(209.648 217.632)"><g id="g99" style="fill:#fff"><path id="path97" d="M1.531 0v-34.594h6.844v13.86l3.219-13.86h6.969l-3.86 15.828L19.375 0h-7.172L8.422-16.75V0Zm0 0" style="fill:#fff"/></g></g></g><g id="g111" fill="#fff" fill-opacity="1" style="fill:#fff"><g id="g109" style="fill:#fff" transform="translate(230.103 217.632)"><g id="g107" style="fill:#fff"><path id="path105" d="M1.531 0v-34.594h13.844v6.688H8.578v6.734h6.516v6.516H8.578v7.937h7.25V0Zm0 0" style="fill:#fff"/></g></g></g><g id="g125" fill="#fff" fill-opacity="1" style="fill:#fff"><g id="g123" style="fill:#fff" transform="translate(259.014 217.632)"><g id="g121" style="fill:#fff"><path id="path119" d="m.61 0 3.343-34.594h11.703L18.97 0h-6.563l-.484-5.594H7.734L7.328 0Zm7.64-11.11h3.14L9.86-28.702h-.313zm0 0" style="fill:#fff"/></g></g></g><g id="g133" fill="#fff" fill-opacity="1" style="fill:#fff"><g id="g131" style="fill:#fff" transform="translate(279.993 217.632)"><g id="g129" style="fill:#fff"><path id="path127" d="M9.547.328Q5.279.33 3.203-2.094q-2.08-2.42-2.078-7.172v-25.328h6.734v25.047q-.002 1.659.313 2.578.327.924 1.375.922 1.042.002 1.36-.906.327-.905.327-2.594v-25.047h6.72v25.328c0 3.168-.696 5.559-2.079 7.172Q13.813.33 9.547.328m0 0" style="fill:#fff"/></g></g></g><g id="g141" fill="#fff" fill-opacity="1" style="fill:#fff"><g id="g139" style="fill:#fff" transform="translate(300.529 217.632)"><g id="g137" style="fill:#fff"><path id="path135" d="M4.516 0v-27.937H.406v-6.657h15.14v6.657h-4.108V0Zm0 0" style="fill:#fff"/></g></g></g><g id="g149" fill="#fff" fill-opacity="1" style="fill:#fff"><g id="g147" style="fill:#fff" transform="translate(317.924 217.632)"><g id="g145" style="fill:#fff"><path id="path143" d="M9.781.328c-2.793 0-4.914-.851-6.36-2.562Q1.25-4.794 1.25-9.422V-25.89q0-4.465 2.172-6.734 2.168-2.28 6.36-2.281 4.184 0 6.359 2.281 2.186 2.269 2.187 6.734v16.47q0 4.675-2.187 7.218Q13.966.327 9.78.328m0-6.375q.921 0 1.25-.797.328-.808.328-2.25v-16.922q0-1.125-.312-1.828-.3-.702-1.219-.703-1.734 0-1.734 2.61v16.875c0 1 .117 1.757.36 2.265q.355.75 1.327.75m0 0" style="fill:#fff"/></g></g></g><g id="g157" fill="#fff" fill-opacity="1" style="fill:#fff"><g id="g155" style="fill:#fff" transform="translate(96.088 248.98)"><g id="g153" style="fill:#fff"><path id="path151" d="M9.734-14.797q-2.127 0-3.28 1.594-1.159 1.581-1.157 4.422c0 3.937 1.476 5.906 4.437 5.906q1.858 0 4.5-.937v3.14Q12.06.236 9.375.234c-2.574 0-4.543-.773-5.906-2.328Q1.437-4.436 1.438-8.813q-.001-2.749 1-4.812.997-2.074 2.875-3.187c1.257-.739 2.734-1.11 4.421-1.11q2.56.001 5.172 1.25l-1.219 3.047a17 17 0 0 0-2-.828 6.1 6.1 0 0 0-1.953-.344m0 0" style="fill:#fff"/></g></g></g><g id="g165" fill="#fff" fill-opacity="1" style="fill:#fff"><g id="g163" style="fill:#fff" transform="translate(115.151 248.98)"><g id="g161" style="fill:#fff"><path id="path159" d="m10.516 0-.72-1.844h-.093Q8.777-.67 7.781-.219 6.796.233 5.22.234c-1.293 0-2.313-.367-3.063-1.109q-1.111-1.107-1.11-3.156c0-1.438.5-2.492 1.5-3.172q1.499-1.031 4.532-1.14l2.344-.063V-9q-.002-2.062-2.094-2.062-1.628 0-3.812.984l-1.22-2.485Q4.623-13.78 7.47-13.78q2.718.002 4.172 1.187Q13.093-11.422 13.094-9v9ZM9.422-6.266 8-6.219q-1.611.065-2.39.594-.784.531-.782 1.61 0 1.563 1.781 1.562c.852 0 1.536-.242 2.047-.735.508-.488.766-1.14.766-1.953zm0 0" style="fill:#fff"/></g></g></g><g id="g173" fill="#fff" fill-opacity="1" style="fill:#fff"><g id="g171" style="fill:#fff" transform="translate(133.393 248.98)"><g id="g169" style="fill:#fff"><path id="path167" d="M9.469-13.766c.5 0 .914.04 1.25.11l-.281 3.453a4 4 0 0 0-1.079-.125c-1.18 0-2.093.305-2.75.906q-.984.907-.984 2.547V0H1.938v-13.516h2.78l.548 2.282h.187a5 5 0 0 1 1.688-1.828 4.18 4.18 0 0 1 2.328-.704m0 0" style="fill:#fff"/></g></g></g><g id="g187" fill="#fff" fill-opacity="1" style="fill:#fff"><g id="g185" style="fill:#fff" transform="translate(157.646 248.98)"><g id="g183" style="fill:#fff"><path id="path181" d="M12.656-4.906c0 1.593-.578 2.851-1.734 3.765Q9.199.235 6.14.234c-1.887 0-3.555-.351-5-1.062v-3.469q1.78.797 3.015 1.125 1.247.315 2.266.313c.82 0 1.453-.157 1.89-.47q.67-.466.672-1.39-.002-.528-.296-.922-.283-.405-.844-.78-.562-.374-2.297-1.204-1.63-.762-2.438-1.453a5.6 5.6 0 0 1-1.28-1.64q-.486-.937-.485-2.173c0-1.562.523-2.789 1.578-3.687q1.593-1.343 4.406-1.344 1.372 0 2.625.328 1.249.33 2.61.922l-1.204 2.906q-1.405-.574-2.343-.796a7.4 7.4 0 0 0-1.813-.235q-1.066.001-1.64.5Q5-13.812 5-13.016c0 .336.078.625.234.875.157.243.399.477.735.704q.499.344 2.375 1.234 2.465 1.19 3.39 2.375.922 1.189.922 2.922m0 0" style="fill:#fff"/></g></g></g><g id="g195" fill="#fff" fill-opacity="1" style="fill:#fff"><g id="g193" style="fill:#fff" transform="translate(174.57 248.98)"><g id="g191" style="fill:#fff"><path id="path189" d="M7.531-11.14q-1.173 0-1.843.75c-.438.492-.688 1.187-.75 2.093h5.171c-.023-.906-.261-1.601-.718-2.094-.461-.5-1.078-.75-1.86-.75M8.047.233q-3.27.001-5.11-1.796Q1.11-3.357 1.11-6.656q0-3.405 1.688-5.25 1.701-1.86 4.703-1.86 2.873 0 4.469 1.641 1.593 1.629 1.594 4.5v1.781h-8.72c.04 1.055.348 1.875.923 2.469q.872.877 2.453.875 1.218.001 2.297-.25a12.4 12.4 0 0 0 2.28-.812V-.72A8.6 8.6 0 0 1 10.72 0Q9.624.234 8.047.234m0 0" style="fill:#fff"/></g></g></g><g id="g203" fill="#fff" fill-opacity="1" style="fill:#fff"><g id="g201" style="fill:#fff" transform="translate(192.485 248.98)"><g id="g199" style="fill:#fff"><path id="path197" d="M9.469-13.766c.5 0 .914.04 1.25.11l-.281 3.453a4 4 0 0 0-1.079-.125c-1.18 0-2.093.305-2.75.906q-.984.907-.984 2.547V0H1.938v-13.516h2.78l.548 2.282h.187a5 5 0 0 1 1.688-1.828 4.18 4.18 0 0 1 2.328-.704m0 0" style="fill:#fff"/></g></g></g><g id="g211" fill="#fff" fill-opacity="1" style="fill:#fff"><g id="g209" style="fill:#fff" transform="translate(207.016 248.98)"><g id="g207" style="fill:#fff"><path id="path205" d="M5.14 0 0-13.516h3.86l2.609 7.704q.434 1.47.547 2.765h.062q.06-1.155.547-2.765l2.594-7.704h3.86L8.936 0Zm0 0" style="fill:#fff"/></g></g></g><g id="g219" fill="#fff" fill-opacity="1" style="fill:#fff"><g id="g217" style="fill:#fff" transform="translate(224.387 248.98)"><g id="g215" style="fill:#fff"><path id="path213" d="M1.781-17c0-1.195.664-1.797 2-1.797 1.332 0 2 .602 2 1.797q-.001.862-.5 1.344-.504.468-1.5.469c-1.336 0-2-.602-2-1.813M5.625 0H1.938v-13.516h3.687Zm0 0" style="fill:#fff"/></g></g></g><g id="g227" fill="#fff" fill-opacity="1" style="fill:#fff"><g id="g225" style="fill:#fff" transform="translate(235.233 248.98)"><g id="g223" style="fill:#fff"><path id="path221" d="M7.422.234C3.21.234 1.109-2.07 1.109-6.687c0-2.29.57-4.04 1.72-5.25q1.716-1.83 4.921-1.829c1.563 0 2.96.309 4.203.922L10.86-10a20 20 0 0 0-1.609-.562q-.75-.235-1.5-.235-2.876.002-2.875 4.094Q4.874-2.75 7.75-2.75q1.06 0 1.969-.281a7 7 0 0 0 1.812-.89v3.155A5.4 5.4 0 0 1 9.72.016Q8.81.233 7.422.234m0 0" style="fill:#fff"/></g></g></g><g id="g235" fill="#fff" fill-opacity="1" style="fill:#fff"><g id="g233" style="fill:#fff" transform="translate(251.25 248.98)"><g id="g231" style="fill:#fff"><path id="path229" d="M7.531-11.14q-1.173 0-1.843.75c-.438.492-.688 1.187-.75 2.093h5.171c-.023-.906-.261-1.601-.718-2.094-.461-.5-1.078-.75-1.86-.75M8.047.233q-3.27.001-5.11-1.796Q1.11-3.357 1.11-6.656q0-3.405 1.688-5.25 1.701-1.86 4.703-1.86 2.873 0 4.469 1.641 1.593 1.629 1.594 4.5v1.781h-8.72c.04 1.055.348 1.875.923 2.469q.872.877 2.453.875 1.218.001 2.297-.25a12.4 12.4 0 0 0 2.28-.812V-.72A8.6 8.6 0 0 1 10.72 0Q9.624.234 8.047.234m0 0" style="fill:#fff"/></g></g></g></g></svg>