<svg xmlns="http://www.w3.org/2000/svg" width="800" height="800" viewBox="0 0 64 64"><defs><style>.cls-1{fill:none;stroke:#000;stroke-linecap:round;stroke-linejoin:round;stroke-width:2px}</style></defs><g id="online-pay"><path d="m14.586 6.586 2.828 2.828M17.414 6.586l-2.828 2.828" class="cls-1"/><circle cx="13.993" cy="18.723" r="1.069"/><circle cx="52.993" cy="34.723" r="1.069"/><path d="M41.001 30.906v10.839M11.77 50H3.236a2.164 2.164 0 0 1-2.215-2.11V29.107a2.164 2.164 0 0 1 2.215-2.11h31.683M.991 31.112l39.988-.142M41 37l-39.987.142M5.034 43.097l7-.024M5.045 46.097l10.999-.039M18 49.744v-.897A3.847 3.847 0 0 1 21.846 45H28s2-5 9-4c6.262.895 6.122 2.59 11.75 2.937" class="cls-1"/><path d="m34 48-5 2H7.618A1.62 1.62 0 0 0 6 51.618h0a1.62 1.62 0 0 0 1.365 1.598L25 56l15-3 8.893 2.425" class="cls-1"/><circle cx="53" cy="46" r="1"/><path d="M63 42H49v16h8V42.327M57 56V42.327M63 56h-6" class="cls-1"/><circle cx="43" cy="21" r="10" class="cls-1"/><path d="m47 16-8 10" class="cls-1"/><circle cx="39.5" cy="17.5" r="1.5" class="cls-1"/><circle cx="46.5" cy="24.5" r="1.5" class="cls-1"/></g></svg>