<svg xmlns="http://www.w3.org/2000/svg" xml:space="preserve" id="Layer_1" width="800" height="800" version="1.1" viewBox="0 0 512.853 512.853"><path d="M490.52 421.827H19.48c-6.827 0-11.947-5.12-11.947-11.947v-79.36c0-5.973 5.12-11.093 11.947-11.093h471.893c6.827 0 11.947 5.12 11.947 11.947v79.36c-.853 5.973-5.973 11.093-12.8 11.093M417.133 20.76H41.667v247.46699999999998h51.2V71.96h324.266v196.267h51.2V20.76zM33.133 490.093h51.2v-68.266h-51.2zM425.667 490.093h51.2v-68.266h-51.2z" style="fill:#52dbdb" transform="translate(1 1)"/><path d="M485.4 319.427H24.6v-38.4c0-6.827 5.973-12.8 12.8-12.8h435.2c6.827 0 12.8 5.973 12.8 12.8zM490.52 319.427h-17.067c6.827 0 11.947 5.12 11.947 11.947v79.36c0 6.827-5.12 11.947-11.947 11.947h17.067c6.827 0 11.947-5.12 11.947-11.947v-79.36c0-6.827-5.12-11.947-11.947-11.947M451.267 20.76v247.46699999999998h17.066V20.76z" style="fill:#52dbdb" transform="translate(1 1)"/><path d="M459.8 490.093h17.067v-68.266H459.8zM472.6 268.227h-17.067c6.827 0 12.8 5.973 12.8 12.8v38.4H485.4v-38.4c0-6.827-5.973-12.8-12.8-12.8M19.48 319.427h17.067c-6.827 0-11.947 5.12-11.947 11.947v79.36c0 5.973 5.12 11.093 11.947 11.093H19.48c-6.827 0-11.947-5.12-11.947-11.947v-79.36c0-5.973 5.12-11.093 11.947-11.093M58.733 20.76v247.46699999999998H41.667V20.76z" style="fill:#52dbdb" transform="translate(1 1)"/><path d="M33.133 490.093H50.2v-68.266H33.133zM37.4 268.227h17.067c-6.827 0-12.8 5.973-12.8 12.8v38.4H24.6v-38.4c0-6.827 5.973-12.8 12.8-12.8M195.267 157.293h119.466V71.96H195.267zM195.267 268.227h119.466V225.56H195.267zM229.4 191.427h51.2v-34.134h-51.2zM101.4 370.627c0 9.387-7.68 17.067-17.067 17.067s-17.067-7.68-17.067-17.067 7.68-17.067 17.067-17.067 17.067 7.68 17.067 17.067M169.667 370.627c0 9.387-7.68 17.067-17.067 17.067s-17.067-7.68-17.067-17.067 7.68-17.067 17.067-17.067 17.067 7.68 17.067 17.067M237.933 370.627c0 9.387-7.68 17.067-17.067 17.067s-17.067-7.68-17.067-17.067 7.68-17.067 17.067-17.067 17.067 7.68 17.067 17.067M306.2 370.627c0 9.387-7.68 17.067-17.067 17.067s-17.067-7.68-17.067-17.067 7.68-17.067 17.067-17.067 17.067 7.68 17.067 17.067M374.467 370.627c0 9.387-7.68 17.067-17.067 17.067s-17.067-7.68-17.067-17.067 7.68-17.067 17.067-17.067 17.067 7.68 17.067 17.067M442.733 370.627c0 9.387-7.68 17.067-17.067 17.067s-17.067-7.68-17.067-17.067 7.68-17.067 17.067-17.067 17.067 7.68 17.067 17.067" style="fill:#52dbdb" transform="translate(1 1)"/><path d="M85.333 499.627h-51.2c-5.12 0-8.533-3.413-8.533-8.533v-68.267c0-5.12 3.413-8.533 8.533-8.533h51.2c5.12 0 8.533 3.413 8.533 8.533v68.267c.001 5.119-3.413 8.533-8.533 8.533M42.667 482.56H76.8v-51.2H42.667zM477.867 499.627h-51.2c-5.12 0-8.533-3.413-8.533-8.533v-68.267c0-5.12 3.413-8.533 8.533-8.533h51.2c5.12 0 8.533 3.413 8.533 8.533v68.267c0 5.119-3.413 8.533-8.533 8.533M435.2 482.56h34.133v-51.2H435.2z"/><path d="M491.52 431.36H20.48C9.387 431.36 0 421.973 0 410.88v-79.36c0-11.093 9.387-20.48 20.48-20.48h471.893c11.093 0 20.48 9.387 20.48 20.48v79.36c-.853 11.093-10.24 20.48-21.333 20.48M20.48 328.96c-1.707 0-3.413 1.707-3.413 3.413v79.36c0 .853 1.707 2.56 3.413 2.56h471.893c1.707 0 3.413-1.707 3.413-3.413v-79.36c0-1.707-1.707-3.413-3.413-3.413H20.48z"/><path d="M85.333 397.227c-14.507 0-25.6-11.093-25.6-25.6s11.093-25.6 25.6-25.6 25.6 11.093 25.6 25.6c0 14.506-11.093 25.6-25.6 25.6m0-34.134c-5.12 0-8.533 3.413-8.533 8.533s3.413 8.533 8.533 8.533 8.533-3.413 8.533-8.533c.001-5.119-3.413-8.533-8.533-8.533M153.6 397.227c-14.507 0-25.6-11.093-25.6-25.6s11.093-25.6 25.6-25.6 25.6 11.093 25.6 25.6c0 14.506-11.093 25.6-25.6 25.6m0-34.134c-5.12 0-8.533 3.413-8.533 8.533s3.413 8.533 8.533 8.533 8.533-3.413 8.533-8.533-3.413-8.533-8.533-8.533M221.867 397.227c-14.507 0-25.6-11.093-25.6-25.6s11.093-25.6 25.6-25.6 25.6 11.093 25.6 25.6c0 14.506-11.094 25.6-25.6 25.6m0-34.134c-5.12 0-8.533 3.413-8.533 8.533s3.413 8.533 8.533 8.533 8.533-3.413 8.533-8.533-3.413-8.533-8.533-8.533M290.133 397.227c-14.507 0-25.6-11.093-25.6-25.6s11.093-25.6 25.6-25.6 25.6 11.093 25.6 25.6c0 14.506-11.093 25.6-25.6 25.6m0-34.134c-5.12 0-8.533 3.413-8.533 8.533s3.413 8.533 8.533 8.533 8.533-3.413 8.533-8.533c.001-5.119-3.413-8.533-8.533-8.533M358.4 397.227c-14.507 0-25.6-11.093-25.6-25.6s11.093-25.6 25.6-25.6 25.6 11.093 25.6 25.6c0 14.506-11.093 25.6-25.6 25.6m0-34.134c-5.12 0-8.533 3.413-8.533 8.533s3.413 8.533 8.533 8.533 8.533-3.413 8.533-8.533-3.413-8.533-8.533-8.533M426.667 397.227c-14.507 0-25.6-11.093-25.6-25.6s11.093-25.6 25.6-25.6 25.6 11.093 25.6 25.6c0 14.506-11.094 25.6-25.6 25.6m0-34.134c-5.12 0-8.533 3.413-8.533 8.533s3.413 8.533 8.533 8.533 8.533-3.413 8.533-8.533-3.413-8.533-8.533-8.533M486.4 328.96H25.6c-5.12 0-8.533-3.413-8.533-8.533v-38.4c0-11.947 9.387-21.333 21.333-21.333h435.2c11.947 0 21.333 9.387 21.333 21.333v38.4c0 5.12-3.413 8.533-8.533 8.533M34.133 311.893h443.733v-29.867c0-2.56-1.707-4.267-4.267-4.267H38.4c-2.56 0-4.267 1.707-4.267 4.267zM503.467 499.627H8.533c-5.12 0-8.533-3.413-8.533-8.533s3.413-8.533 8.533-8.533h494.933c5.12 0 8.533 3.413 8.533 8.533.001 5.119-3.412 8.533-8.532 8.533"/><path d="M469.333 277.76h-51.2c-5.12 0-8.533-3.413-8.533-8.533V81.493H102.4v187.733c0 5.12-3.413 8.533-8.533 8.533h-51.2c-5.12 0-8.533-3.413-8.533-8.533V21.76c0-5.12 3.413-8.533 8.533-8.533h426.667c5.12 0 8.533 3.413 8.533 8.533v247.467c0 5.12-3.414 8.533-8.534 8.533m-42.666-17.067H460.8v-230.4H51.2v230.4h34.133V72.96c0-5.12 3.413-8.533 8.533-8.533h324.267c5.12 0 8.533 3.413 8.533 8.533z"/><path d="M315.733 277.76H196.267c-5.12 0-8.533-3.413-8.533-8.533V226.56c0-5.12 3.413-8.533 8.533-8.533h119.467c5.12 0 8.533 3.413 8.533 8.533v42.667c0 5.12-3.414 8.533-8.534 8.533M204.8 260.693h102.4v-25.6H204.8zM315.733 166.827H196.267c-5.12 0-8.533-3.413-8.533-8.533V72.96c0-5.12 3.413-8.533 8.533-8.533h119.467c5.12 0 8.533 3.413 8.533 8.533v85.333c0 5.12-3.414 8.534-8.534 8.534M204.8 149.76h102.4V81.493H204.8z"/><path d="M349.867 132.693h-34.133c-5.12 0-8.533-3.413-8.533-8.533s3.413-8.533 8.533-8.533h34.133c5.12 0 8.533 3.413 8.533 8.533s-3.413 8.533-8.533 8.533"/><path d="M349.867 149.76c-5.12 0-8.533-3.413-8.533-8.533v-34.133c0-5.12 3.413-8.533 8.533-8.533s8.533 3.413 8.533 8.533v34.133c0 5.12-3.413 8.533-8.533 8.533M196.267 132.693h-34.133c-5.12 0-8.533-3.413-8.533-8.533s3.413-8.533 8.533-8.533h34.133c5.12 0 8.533 3.413 8.533 8.533s-3.413 8.533-8.533 8.533"/><path d="M162.133 149.76c-5.12 0-8.533-3.413-8.533-8.533v-34.133c0-5.12 3.413-8.533 8.533-8.533s8.533 3.413 8.533 8.533v34.133c.001 5.12-3.413 8.533-8.533 8.533M281.6 200.96h-51.2c-5.12 0-8.533-3.413-8.533-8.533v-34.133c0-5.12 3.413-8.533 8.533-8.533h51.2c5.12 0 8.533 3.413 8.533 8.533v34.133c0 5.12-3.413 8.533-8.533 8.533m-42.667-17.067h34.133v-17.067h-34.133z"/></svg>