<?xml version="1.0" encoding="iso-8859-1"?>
<!-- Uploaded to: SVG Repo, www.svgrepo.com, Generator: SVG Repo Mixer Tools -->
<svg height="800px" width="800px" version="1.1" id="Layer_1" xmlns="http://www.w3.org/2000/svg" xmlns:xlink="http://www.w3.org/1999/xlink" viewBox="0 0 512.853 512.853" xml:space="preserve">
<g transform="translate(1 1)">
	<g>
		<path style="fill: #52dbdb" d="M490.52,421.827H19.48c-6.827,0-11.947-5.12-11.947-11.947v-79.36
			c0-5.973,5.12-11.093,11.947-11.093h471.893c6.827,0,11.947,5.12,11.947,11.947v79.36
			C502.467,416.707,497.347,421.827,490.52,421.827"></path>
		<polygon style="fill: #52dbdb" points="417.133,20.76 92.867,20.76 41.667,20.76 41.667,71.96 41.667,268.227 92.867,268.227 
			92.867,71.96 417.133,71.96 417.133,268.227 468.333,268.227 468.333,71.96 468.333,20.76 		"></polygon>
	</g>
	<g>
		<polygon style="fill: #52dbdb" points="33.133,490.093 84.333,490.093 84.333,421.827 33.133,421.827 		"></polygon>
		<polygon style="fill: #52dbdb" points="425.667,490.093 476.867,490.093 476.867,421.827 425.667,421.827 		"></polygon>
		<path style="fill: #52dbdb" d="M485.4,319.427H24.6v-38.4c0-6.827,5.973-12.8,12.8-12.8h435.2c6.827,0,12.8,5.973,12.8,12.8
			V319.427z"></path>
	</g>
	<g>
		<path style="fill: #52dbdb" d="M490.52,319.427h-17.067c6.827,0,11.947,5.12,11.947,11.947v79.36
			c0,6.827-5.12,11.947-11.947,11.947h17.067c6.827,0,11.947-5.12,11.947-11.947v-79.36
			C502.467,324.547,497.347,319.427,490.52,319.427"></path>
		<polygon style="fill: #52dbdb" points="451.267,20.76 451.267,71.96 451.267,268.227 468.333,268.227 468.333,71.96 
			468.333,20.76 		"></polygon>
		<polygon style="fill: #52dbdb" points="459.8,490.093 476.867,490.093 476.867,421.827 459.8,421.827 		"></polygon>
		<path style="fill: #52dbdb" d="M472.6,268.227h-17.067c6.827,0,12.8,5.973,12.8,12.8v38.4H485.4v-38.4
			C485.4,274.2,479.427,268.227,472.6,268.227"></path>
	</g>
	<g>
		<path style="fill: #52dbdb" d="M19.48,319.427h17.067c-6.827,0-11.947,5.12-11.947,11.947v79.36
			c0,5.973,5.12,11.093,11.947,11.093H19.48c-6.827,0-11.947-5.12-11.947-11.947v-79.36C7.533,324.547,12.653,319.427,19.48,319.427
			"></path>
		<polygon style="fill: #52dbdb" points="58.733,20.76 58.733,71.96 58.733,268.227 41.667,268.227 41.667,71.96 41.667,20.76 		"></polygon>
		<polygon style="fill: #52dbdb" points="33.133,490.093 50.2,490.093 50.2,421.827 33.133,421.827 		"></polygon>
		<path style="fill: #52dbdb" d="M37.4,268.227h17.067c-6.827,0-12.8,5.973-12.8,12.8v38.4H24.6v-38.4
			C24.6,274.2,30.573,268.227,37.4,268.227"></path>
	</g>
	<polygon style="fill: #52dbdb" points="195.267,157.293 314.733,157.293 314.733,71.96 195.267,71.96 	"></polygon>
	<g>
		<polygon style="fill: #52dbdb" points="195.267,268.227 314.733,268.227 314.733,225.56 195.267,225.56 		"></polygon>
		<polygon style="fill: #52dbdb" points="229.4,191.427 280.6,191.427 280.6,157.293 229.4,157.293 		"></polygon>
	</g>
	<g>
		<path style="fill: #52dbdb" d="M101.4,370.627c0,9.387-7.68,17.067-17.067,17.067s-17.067-7.68-17.067-17.067
			c0-9.387,7.68-17.067,17.067-17.067S101.4,361.24,101.4,370.627"></path>
		<path style="fill: #52dbdb" d="M169.667,370.627c0,9.387-7.68,17.067-17.067,17.067s-17.067-7.68-17.067-17.067
			c0-9.387,7.68-17.067,17.067-17.067S169.667,361.24,169.667,370.627"></path>
		<path style="fill: #52dbdb" d="M237.933,370.627c0,9.387-7.68,17.067-17.067,17.067c-9.387,0-17.067-7.68-17.067-17.067
			c0-9.387,7.68-17.067,17.067-17.067C230.253,353.56,237.933,361.24,237.933,370.627"></path>
		<path style="fill: #52dbdb" d="M306.2,370.627c0,9.387-7.68,17.067-17.067,17.067c-9.387,0-17.067-7.68-17.067-17.067
			c0-9.387,7.68-17.067,17.067-17.067C298.52,353.56,306.2,361.24,306.2,370.627"></path>
		<path style="fill: #52dbdb" d="M374.467,370.627c0,9.387-7.68,17.067-17.067,17.067s-17.067-7.68-17.067-17.067
			c0-9.387,7.68-17.067,17.067-17.067S374.467,361.24,374.467,370.627"></path>
		<path style="fill: #52dbdb" d="M442.733,370.627c0,9.387-7.68,17.067-17.067,17.067s-17.067-7.68-17.067-17.067
			c0-9.387,7.68-17.067,17.067-17.067S442.733,361.24,442.733,370.627"></path>
	</g>
	<path d="M84.333,498.627h-51.2c-5.12,0-8.533-3.413-8.533-8.533v-68.267c0-5.12,3.413-8.533,8.533-8.533h51.2
		c5.12,0,8.533,3.413,8.533,8.533v68.267C92.867,495.213,89.453,498.627,84.333,498.627z M41.667,481.56H75.8v-51.2H41.667V481.56z"></path>
	<path d="M476.867,498.627h-51.2c-5.12,0-8.533-3.413-8.533-8.533v-68.267c0-5.12,3.413-8.533,8.533-8.533h51.2
		c5.12,0,8.533,3.413,8.533,8.533v68.267C485.4,495.213,481.987,498.627,476.867,498.627z M434.2,481.56h34.133v-51.2H434.2V481.56z
		"></path>
	<path d="M490.52,430.36H19.48C8.387,430.36-1,420.973-1,409.88v-79.36c0-11.093,9.387-20.48,20.48-20.48h471.893
		c11.093,0,20.48,9.387,20.48,20.48v79.36C511,420.973,501.613,430.36,490.52,430.36z M19.48,327.96
		c-1.707,0-3.413,1.707-3.413,3.413v79.36c0,0.853,1.707,2.56,3.413,2.56h471.893c1.707,0,3.413-1.707,3.413-3.413v-79.36
		c0-1.707-1.707-3.413-3.413-3.413H19.48V327.96z"></path>
	<path d="M84.333,396.227c-14.507,0-25.6-11.093-25.6-25.6c0-14.507,11.093-25.6,25.6-25.6s25.6,11.093,25.6,25.6
		C109.933,385.133,98.84,396.227,84.333,396.227z M84.333,362.093c-5.12,0-8.533,3.413-8.533,8.533c0,5.12,3.413,8.533,8.533,8.533
		s8.533-3.413,8.533-8.533C92.867,365.507,89.453,362.093,84.333,362.093z"></path>
	<path d="M152.6,396.227c-14.507,0-25.6-11.093-25.6-25.6c0-14.507,11.093-25.6,25.6-25.6c14.507,0,25.6,11.093,25.6,25.6
		C178.2,385.133,167.107,396.227,152.6,396.227z M152.6,362.093c-5.12,0-8.533,3.413-8.533,8.533c0,5.12,3.413,8.533,8.533,8.533
		c5.12,0,8.533-3.413,8.533-8.533C161.133,365.507,157.72,362.093,152.6,362.093z"></path>
	<path d="M220.867,396.227c-14.507,0-25.6-11.093-25.6-25.6c0-14.507,11.093-25.6,25.6-25.6c14.507,0,25.6,11.093,25.6,25.6
		C246.467,385.133,235.373,396.227,220.867,396.227z M220.867,362.093c-5.12,0-8.533,3.413-8.533,8.533
		c0,5.12,3.413,8.533,8.533,8.533c5.12,0,8.533-3.413,8.533-8.533C229.4,365.507,225.987,362.093,220.867,362.093z"></path>
	<path d="M289.133,396.227c-14.507,0-25.6-11.093-25.6-25.6c0-14.507,11.093-25.6,25.6-25.6c14.507,0,25.6,11.093,25.6,25.6
		C314.733,385.133,303.64,396.227,289.133,396.227z M289.133,362.093c-5.12,0-8.533,3.413-8.533,8.533
		c0,5.12,3.413,8.533,8.533,8.533c5.12,0,8.533-3.413,8.533-8.533C297.667,365.507,294.253,362.093,289.133,362.093z"></path>
	<path d="M357.4,396.227c-14.507,0-25.6-11.093-25.6-25.6c0-14.507,11.093-25.6,25.6-25.6s25.6,11.093,25.6,25.6
		C383,385.133,371.907,396.227,357.4,396.227z M357.4,362.093c-5.12,0-8.533,3.413-8.533,8.533c0,5.12,3.413,8.533,8.533,8.533
		s8.533-3.413,8.533-8.533C365.933,365.507,362.52,362.093,357.4,362.093z"></path>
	<path d="M425.667,396.227c-14.507,0-25.6-11.093-25.6-25.6c0-14.507,11.093-25.6,25.6-25.6s25.6,11.093,25.6,25.6
		C451.267,385.133,440.173,396.227,425.667,396.227z M425.667,362.093c-5.12,0-8.533,3.413-8.533,8.533
		c0,5.12,3.413,8.533,8.533,8.533s8.533-3.413,8.533-8.533C434.2,365.507,430.787,362.093,425.667,362.093z"></path>
	<path d="M485.4,327.96H24.6c-5.12,0-8.533-3.413-8.533-8.533v-38.4c0-11.947,9.387-21.333,21.333-21.333h435.2
		c11.947,0,21.333,9.387,21.333,21.333v38.4C493.933,324.547,490.52,327.96,485.4,327.96z M33.133,310.893h443.733v-29.867
		c0-2.56-1.707-4.267-4.267-4.267H37.4c-2.56,0-4.267,1.707-4.267,4.267V310.893z"></path>
	<path d="M502.467,498.627H7.533c-5.12,0-8.533-3.413-8.533-8.533c0-5.12,3.413-8.533,8.533-8.533h494.933
		c5.12,0,8.533,3.413,8.533,8.533C511,495.213,507.587,498.627,502.467,498.627z"></path>
	<path d="M468.333,276.76h-51.2c-5.12,0-8.533-3.413-8.533-8.533V80.493H101.4v187.733c0,5.12-3.413,8.533-8.533,8.533h-51.2
		c-5.12,0-8.533-3.413-8.533-8.533V20.76c0-5.12,3.413-8.533,8.533-8.533h426.667c5.12,0,8.533,3.413,8.533,8.533v247.467
		C476.867,273.347,473.453,276.76,468.333,276.76z M425.667,259.693H459.8v-230.4H50.2v230.4h34.133V71.96
		c0-5.12,3.413-8.533,8.533-8.533h324.267c5.12,0,8.533,3.413,8.533,8.533V259.693z"></path>
	<path d="M314.733,276.76H195.267c-5.12,0-8.533-3.413-8.533-8.533V225.56c0-5.12,3.413-8.533,8.533-8.533h119.467
		c5.12,0,8.533,3.413,8.533,8.533v42.667C323.267,273.347,319.853,276.76,314.733,276.76z M203.8,259.693h102.4v-25.6H203.8V259.693
		z"></path>
	<path d="M314.733,165.827H195.267c-5.12,0-8.533-3.413-8.533-8.533V71.96c0-5.12,3.413-8.533,8.533-8.533h119.467
		c5.12,0,8.533,3.413,8.533,8.533v85.333C323.267,162.413,319.853,165.827,314.733,165.827z M203.8,148.76h102.4V80.493H203.8
		V148.76z"></path>
	<path d="M348.867,131.693h-34.133c-5.12,0-8.533-3.413-8.533-8.533c0-5.12,3.413-8.533,8.533-8.533h34.133
		c5.12,0,8.533,3.413,8.533,8.533C357.4,128.28,353.987,131.693,348.867,131.693z"></path>
	<path d="M348.867,148.76c-5.12,0-8.533-3.413-8.533-8.533v-34.133c0-5.12,3.413-8.533,8.533-8.533c5.12,0,8.533,3.413,8.533,8.533
		v34.133C357.4,145.347,353.987,148.76,348.867,148.76z"></path>
	<path d="M195.267,131.693h-34.133c-5.12,0-8.533-3.413-8.533-8.533c0-5.12,3.413-8.533,8.533-8.533h34.133
		c5.12,0,8.533,3.413,8.533,8.533C203.8,128.28,200.387,131.693,195.267,131.693z"></path>
	<path d="M161.133,148.76c-5.12,0-8.533-3.413-8.533-8.533v-34.133c0-5.12,3.413-8.533,8.533-8.533c5.12,0,8.533,3.413,8.533,8.533
		v34.133C169.667,145.347,166.253,148.76,161.133,148.76z"></path>
	<path d="M280.6,199.96h-51.2c-5.12,0-8.533-3.413-8.533-8.533v-34.133c0-5.12,3.413-8.533,8.533-8.533h51.2
		c5.12,0,8.533,3.413,8.533,8.533v34.133C289.133,196.547,285.72,199.96,280.6,199.96z M237.933,182.893h34.133v-17.067h-34.133
		V182.893z"></path>
</g>
</svg>