<svg xmlns="http://www.w3.org/2000/svg" xml:space="preserve" id="Layer_1" fill="#000" version="1.1" viewBox="0 0 295.239 295.239"><path d="M280.953 247.619h-4.762V85.714h4.761c7.876 0 14.286-6.41 14.286-14.286V52.381c0-7.876-6.41-14.286-14.286-14.286h-4.762v-9.524h-9.524v9.524H197.21l-19.048-19.048h-73.4V0H61.905v19.048h-7.143L40.476 38.095H28.571v-9.524h-9.524v9.524h-4.762C6.41 38.095 0 44.505 0 52.381v19.048c0 7.876 6.41 14.286 14.286 14.286h4.762V247.62h-4.762C6.41 247.619 0 254.029 0 261.905v19.048c0 7.876 6.41 14.286 14.286 14.286h266.667c7.876 0 14.286-6.41 14.286-14.286v-19.048c0-7.876-6.41-14.286-14.286-14.286M71.429 9.524h23.81v9.524h-23.81zM59.524 28.571h114.695l9.524 9.524H52.381zm-45.238 47.62a4.77 4.77 0 0 1-4.762-4.762V52.381a4.766 4.766 0 0 1 4.762-4.762h266.667a4.766 4.766 0 0 1 4.762 4.762v19.048a4.766 4.766 0 0 1-4.762 4.762zm252.381 9.523v161.905h-9.524V85.714zm-9.524 185.714a4.763 4.763 0 0 1-4.762 4.762 4.763 4.763 0 0 1-4.762-4.762 4.763 4.763 0 0 1 4.762-4.762 4.763 4.763 0 0 1 4.762 4.762m-9.524-185.714v161.905h-9.524V85.714zm-19.047 0v161.905h-9.524V85.714zm-19.048 0v161.905H200V85.714zm-19.048 0v161.905h-9.524V85.714zm-19.047 0v161.905h-9.524V85.714zm-19.048 0v161.905h-9.524V85.714zm-19.047 0v161.905h-9.524V85.714zm-19.048 0v161.905h-9.524V85.714zm-19.048 0v161.905h-9.524V85.714zm-19.047 0v161.905h-9.524V85.714zm-19.048 0v161.905h-9.524V85.714zm-19.048 0v161.905h-9.524V85.714zm247.619 195.239a4.763 4.763 0 0 1-4.762 4.762H14.286a4.763 4.763 0 0 1-4.762-4.762v-19.048a4.763 4.763 0 0 1 4.762-4.762H252.38c-7.875.001-14.285 6.41-14.285 14.286s6.41 14.286 14.286 14.286 14.286-6.41 14.286-14.286-6.409-14.285-14.285-14.286h28.57a4.763 4.763 0 0 1 4.762 4.762z"/><path d="M42.857 57.143h9.524v9.524h-9.524zM23.81 57.143h9.524v9.524H23.81zM61.905 57.143h9.524v9.524h-9.524zM261.905 57.143h9.524v9.524h-9.524z"/></svg>