<svg xmlns="http://www.w3.org/2000/svg" xml:space="preserve" id="Layer_1" fill="#000" version="1.1" viewBox="0 0 295.991 295.991"><path d="M286.091 167.419V63.781l9.523-19.048V.752h-57.143v43.981l9.524 19.048v103.638h-9.524v104.762c0 13.129 10.681 23.81 23.81 23.81h9.524c13.129 0 23.81-10.681 23.81-23.81V167.419zm-14.287 119.048h-9.524c-7.876 0-14.286-6.41-14.286-14.286v-95.238h38.095v95.238h.001c0 7.876-6.41 14.286-14.286 14.286M286.09 42.485l-9.524 19.048v105.886h-19.047V61.533l-9.524-19.048v-32.21h38.095z"/><path d="M262.281 186.467h9.524v9.524h-9.524zM262.281 205.662h9.524v9.524h-9.524zM262.281 224.562h9.524v9.524h-9.524zM200.376 105.514c0-31.738-14.581-60.895-39.995-79.995l-7.624-5.729v10.771L100.376 0 47.995 30.557V19.79l-7.624 5.724C14.957 44.609.376 73.766.376 105.514c0 40.005 23.667 74.5 57.686 90.476h-.543v100h9.524v-96.31c10.443 3.71 21.633 5.833 33.333 5.833s22.89-2.124 33.333-5.833v96.31h9.524v-100h-.543c34.02-15.976 57.686-50.471 57.686-90.476M47.995 41.581l52.381-30.552 52.381 30.557v65.962l-52.381 30.557-52.381-30.557zm0 76.986 52.381 30.557 52.381-30.557v8.024l-52.381 30.557-52.381-30.558zm52.381 77.423c-49.89 0-90.476-40.585-90.476-90.476 0-25.386 10.3-48.938 28.571-65.995v92.543l61.905 36.11 61.905-36.11V39.519c18.267 17.062 28.571 40.619 28.571 65.995 0 49.89-40.586 90.476-90.476 90.476"/><path d="M105.138 110.276V76.943h33.333v-9.524h-33.333V34.086h-9.524v33.333H62.281v9.524h33.333v33.333zM155.319 210.814l4.405 8.443c31.386-16.367 54.819-45.21 64.29-79.133l-9.176-2.562c-8.767 31.405-30.457 58.105-59.519 73.252M155.319 239.386l4.405 8.443c9.662-5.038 19.543-11.619 29.367-19.567l-5.99-7.405c-9.334 7.553-18.682 13.786-27.782 18.529M76.567 215.038h9.524v9.524h-9.524zM76.567 234.086h9.524v9.524h-9.524zM179.424 1.705l-5.714 7.619c20.605 15.457 34.443 35.429 41.129 59.376l9.176-2.562c-7.267-26.014-22.267-47.69-44.591-64.433"/></svg>