<svg xmlns="http://www.w3.org/2000/svg" xml:space="preserve" id="Layer_1" fill="#000" version="1.1" viewBox="0 0 295.238 295.238"><path d="M25.781 197.714 1.714 217.771l6.095 7.314 26.995-22.495a56.8 56.8 0 0 0 22.338 4.552c10.757 0 24.305-4.471 30.776-9.952 13.967 17.633 35.514 29 59.7 29 24.567 0 46.395-11.738 60.338-29.848l-1.01 1.548c9.271 6.052 20.052 9.252 31.171 9.252a56.8 56.8 0 0 0 22.319-4.548l26.99 22.49 6.095-7.314-24.062-20.052c15.505-10.229 25.776-27.786 25.776-47.719 0-31.51-25.624-57.143-57.119-57.143-11.129 0-21.914 3.2-31.195 9.262l.805 1.233c-13.952-17.938-35.681-29.543-60.11-29.543-24.186 0-45.733 11.367-59.7 29-6.471-5.481-20.019-9.952-30.776-9.952C25.633 92.857 0 118.49 0 150c0 19.929 10.271 37.486 25.781 47.714m212.338-95.333c26.243 0 47.595 21.362 47.595 47.619s-21.352 47.619-47.595 47.619a47.4 47.4 0 0 1-25.786-7.6c7.229-11.648 11.476-25.333 11.476-40.019 0-7.795-1.2-15.319-3.386-22.41a28 28 0 0 1 12.91-5.738v9.1h9.524v-9.095c14.286 2.276 23.819 14.01 23.819 28.143 0 6.924-2.538 13.9-6.876 19.048h-7.419v9.524h11.524l1.4-1.429c6.933-7.081 10.91-16.971 10.91-27.143 0-21.005-17.09-38.095-38.095-38.095-7.7 0-15.033 2.267-21.267 6.481a76 76 0 0 0-4.524-8.405 47.43 47.43 0 0 1 25.79-7.6m-90.5-19.048c36.762 0 66.667 29.905 66.667 66.667s-29.905 66.667-66.667 66.667S80.952 186.762 80.952 150s29.905-66.667 66.667-66.667m-90.476 19.048c9.457 0 21.524 4.448 25.205 8.129l.61-.61a76 76 0 0 0-4.567 8.476c-6.229-4.21-13.552-6.471-21.248-6.471-21.005 0-38.095 17.09-38.095 38.095 0 10.019 3.867 19.486 10.881 26.652l6.805-6.662a28.4 28.4 0 0 1-7.738-15.229h9.1v-9.524H29c2.014-11.938 11.443-21.362 23.381-23.381v9.095h9.524v-9.1a28.14 28.14 0 0 1 12.9 5.724 76 76 0 0 0-3.376 22.424c0 14.724 4.267 28.433 11.529 40.1l-.61-.61c-3.681 3.681-15.748 8.129-25.205 8.129-26.257 0-47.619-21.362-47.619-47.619s21.362-47.618 47.619-47.618"/><path d="m100.771 181.171 2.319 3.562 13.324-6.662-4.262-8.519-5.61 2.805c-3.395-5.981-5.438-11.871-6.186-17.595h9.167v-9.524h-9.281c.533-5.367 2.005-10.448 4.176-15.143l7.229 4.819 5.281-7.924-7.657-5.105a48 48 0 0 1 10.233-10.233l5.105 7.657 7.924-5.281-4.819-7.229c4.695-2.171 9.776-3.638 15.143-4.176v9.281h9.524v-9.281c5.367.533 10.448 2.005 15.143 4.176l-4.819 7.229 7.924 5.281 5.105-7.657a48 48 0 0 1 10.233 10.233l-7.657 5.105 5.281 7.924 7.229-4.819c2.171 4.695 3.638 9.776 4.176 15.143h-9.281v9.524h9.162c-.748 5.724-2.79 11.61-6.186 17.595l-5.61-2.805-4.262 8.519 13.324 6.662 2.319-3.562c6.833-10.481 10.3-20.967 10.3-31.171 0-31.51-25.633-57.143-57.143-57.143S90.476 118.49 90.476 150c0 10.205 3.467 20.69 10.295 31.171M123.81 188.095h47.619v9.524H123.81zM138.095 202.381h19.048v9.524h-19.048z"/><path d="M157.143 169.048v-9.524h-7.295l-22.381-26.857-7.315 6.095 17.943 21.533v8.753zM61.905 178.571h9.524v9.524h-9.524zM42.857 178.571h9.524v9.524h-9.524zM233.333 178.571h9.524v9.524h-9.524zM254.284 141.43l5.717 7.618-19.047 14.292-5.716-7.619zM52.381 135.714h9.524v19.048h-9.524zM285.714 283.333h9.524v9.524h-9.524zM0 283.333h276.19v9.524H0zM142.857 2.381h9.524v38.095h-9.524zM142.857 50h9.524v9.524h-9.524zM84.32 13.299l42.856 42.856-6.734 6.734-42.856-42.856zM210.918 13.299l6.734 6.734-42.856 42.856-6.734-6.734zM95.238 254.762H200c10.505 0 19.048 8.543 19.048 19.048h9.524c0-15.757-12.814-28.571-28.571-28.571H95.238c-15.757 0-28.571 12.814-28.571 28.571h9.524c-.001-10.505 8.542-19.048 19.047-19.048M80.952 216.667h9.524v9.524h-9.524zM61.905 216.667h9.524v9.524h-9.524zM204.762 216.667h9.524v9.524h-9.524z"/></svg>