<?xml version="1.0" encoding="iso-8859-1"?>
<!-- Uploaded to: SVG Repo, www.svgrepo.com, Generator: SVG Repo Mixer Tools -->
<svg fill="#000000" version="1.1" id="Layer_1" xmlns="http://www.w3.org/2000/svg" xmlns:xlink="http://www.w3.org/1999/xlink" viewBox="0 0 295.238 295.238" xml:space="preserve">
<g>
	<g>
		<g>
			<path d="M25.781,197.714L1.714,217.771l6.095,7.314l26.995-22.495c6.867,2.929,14.414,4.552,22.338,4.552
				c10.757,0,24.305-4.471,30.776-9.952c13.967,17.633,35.514,29,59.7,29c24.567,0,46.395-11.738,60.338-29.848l-1.01,1.548
				c9.271,6.052,20.052,9.252,31.171,9.252c7.914,0,15.457-1.624,22.319-4.548l26.99,22.49l6.095-7.314l-24.062-20.052
				c15.505-10.229,25.776-27.786,25.776-47.719c0-31.51-25.624-57.143-57.119-57.143c-11.129,0-21.914,3.2-31.195,9.262l0.805,1.233
				c-13.952-17.938-35.681-29.543-60.11-29.543c-24.186,0-45.733,11.367-59.7,29c-6.471-5.481-20.019-9.952-30.776-9.952
				C25.633,92.857,0,118.49,0,150C0,169.929,10.271,187.486,25.781,197.714z M238.119,102.381c26.243,0,47.595,21.362,47.595,47.619
				s-21.352,47.619-47.595,47.619c-9.195,0-18.105-2.638-25.786-7.6c7.229-11.648,11.476-25.333,11.476-40.019
				c0-7.795-1.2-15.319-3.386-22.41c3.776-2.995,8.148-4.948,12.91-5.738v9.1h9.524v-9.095c14.286,2.276,23.819,14.01,23.819,28.143
				c0,6.924-2.538,13.9-6.876,19.048h-7.419v9.524h11.524l1.4-1.429c6.933-7.081,10.91-16.971,10.91-27.143
				c0-21.005-17.09-38.095-38.095-38.095c-7.7,0-15.033,2.267-21.267,6.481c-1.333-2.91-2.848-5.705-4.524-8.405
				C220.014,105.019,228.924,102.381,238.119,102.381z M147.619,83.333c36.762,0,66.667,29.905,66.667,66.667
				c0,36.762-29.905,66.667-66.667,66.667c-36.762,0-66.667-29.905-66.667-66.667C80.952,113.238,110.857,83.333,147.619,83.333z
				 M57.143,102.381c9.457,0,21.524,4.448,25.205,8.129l0.61-0.61c-1.69,2.719-3.224,5.543-4.567,8.476
				c-6.229-4.21-13.552-6.471-21.248-6.471c-21.005,0-38.095,17.09-38.095,38.095c0,10.019,3.867,19.486,10.881,26.652l6.805-6.662
				c-4.133-4.224-6.781-9.514-7.738-15.229h9.1v-9.524H29c2.014-11.938,11.443-21.362,23.381-23.381v9.095h9.524v-9.1
				c4.724,0.786,9.129,2.738,12.9,5.724c-2.186,7.09-3.376,14.619-3.376,22.424c0,14.724,4.267,28.433,11.529,40.1l-0.61-0.61
				c-3.681,3.681-15.748,8.129-25.205,8.129c-26.257,0-47.619-21.362-47.619-47.619C9.524,123.742,30.886,102.381,57.143,102.381z"></path>
			<path d="M100.771,181.171l2.319,3.562l13.324-6.662l-4.262-8.519l-5.61,2.805c-3.395-5.981-5.438-11.871-6.186-17.595h9.167
				v-9.524h-9.281c0.533-5.367,2.005-10.448,4.176-15.143l7.229,4.819l5.281-7.924l-7.657-5.105
				c2.876-3.91,6.324-7.357,10.233-10.233l5.105,7.657l7.924-5.281l-4.819-7.229c4.695-2.171,9.776-3.638,15.143-4.176v9.281h9.524
				v-9.281c5.367,0.533,10.448,2.005,15.143,4.176l-4.819,7.229l7.924,5.281l5.105-7.657c3.91,2.876,7.357,6.324,10.233,10.233
				l-7.657,5.105l5.281,7.924l7.229-4.819c2.171,4.695,3.638,9.776,4.176,15.143h-9.281v9.524h9.162
				c-0.748,5.724-2.79,11.61-6.186,17.595l-5.61-2.805l-4.262,8.519l13.324,6.662l2.319-3.562c6.833-10.481,10.3-20.967,10.3-31.171
				c0-31.51-25.633-57.143-57.143-57.143S90.476,118.49,90.476,150C90.476,160.205,93.943,170.69,100.771,181.171z"></path>
			<rect x="123.81" y="188.095" width="47.619" height="9.524"></rect>
			<rect x="138.095" y="202.381" width="19.048" height="9.524"></rect>
			<polygon points="157.143,169.048 157.143,159.524 149.848,159.524 127.467,132.667 120.152,138.762 138.095,160.295 
				138.095,169.048 			"></polygon>
			<rect x="61.905" y="178.571" width="9.524" height="9.524"></rect>
			<rect x="42.857" y="178.571" width="9.524" height="9.524"></rect>
			<rect x="233.333" y="178.571" width="9.524" height="9.524"></rect>
			
				<rect x="242.857" y="140.468" transform="matrix(0.6002 0.7999 -0.7999 0.6002 220.8819 -137.1401)" width="9.524" height="23.811"></rect>
			<rect x="52.381" y="135.714" width="9.524" height="19.048"></rect>
			<rect x="285.714" y="283.333" width="9.524" height="9.524"></rect>
			<rect y="283.333" width="276.19" height="9.524"></rect>
			<rect x="142.857" y="2.381" width="9.524" height="38.095"></rect>
			<rect x="142.857" y="50" width="9.524" height="9.524"></rect>
			<rect x="72.077" y="33.333" transform="matrix(0.7071 0.7071 -0.7071 0.7071 56.9243 -61.2365)" width="60.608" height="9.524"></rect>
			<rect x="188.096" y="7.791" transform="matrix(0.7071 0.7071 -0.7071 0.7071 83.424 -125.2131)" width="9.524" height="60.608"></rect>
			<path d="M95.238,254.762H200c10.505,0,19.048,8.543,19.048,19.048h9.524c0-15.757-12.814-28.571-28.571-28.571H95.238
				c-15.757,0-28.571,12.814-28.571,28.571h9.524C76.19,263.305,84.733,254.762,95.238,254.762z"></path>
			<rect x="80.952" y="216.667" width="9.524" height="9.524"></rect>
			<rect x="61.905" y="216.667" width="9.524" height="9.524"></rect>
			<rect x="204.762" y="216.667" width="9.524" height="9.524"></rect>
		</g>
	</g>
</g>
</svg>