<svg xmlns="http://www.w3.org/2000/svg" xml:space="preserve" id="Layer_1" fill="#000" version="1.1" viewBox="0 0 295.239 295.239"><path d="M107.071 19.048 80.952 55.62v11.048h71.429v-47.62zm35.787 38.096H91.567l20.41-28.571h30.881zM157.142 19.048v47.619h71.429V55.62l-26.119-36.571h-45.31zm9.525 38.094V28.571h30.881l20.41 28.571zM138.095 71.43h14.286v9.524h-14.286zM66.667 147.62c7.876 0 14.286-6.41 14.286-14.286s-6.41-14.286-14.286-14.286-14.286 6.41-14.286 14.286c0 7.877 6.41 14.286 14.286 14.286m0-19.049a4.763 4.763 0 0 1 4.762 4.762 4.764 4.764 0 0 1-4.762 4.762 4.763 4.763 0 0 1-4.762-4.762 4.763 4.763 0 0 1 4.762-4.762"/><path d="M280.953 138.095c11.805 0 14.286-7.771 14.286-14.286V80.953c0-11.805-9.629-22.271-17.895-23.667l-19.033-4.762c-4.79-1.214-7.562-3.086-11.581-7.671l-23.929-33.5C216.657 3.501 209.624.001 200 .001h-90.476c-9.629 0-16.667 3.5-22.919 11.519L63.076 44.495c-4.276 4.924-7.538 7.162-11.471 7.952l-28.762 4.795C9.181 60.087 0 71.529 0 85.714v33.333c0 10.324 8.724 19.048 19.048 19.048h14.667a33.26 33.26 0 0 0 9.671 19.048H0v38.095h84.995l46.429 14.286-47.11 14.495.162 9.152 44.824 12.067-44.219 11.905H0v38.095h295.238v-38.095h-85.081l-44.219-11.905 44.824-12.067.162-9.152-47.11-14.495 46.429-14.286h84.995v-38.095h-43.386a33.23 33.23 0 0 0 9.672-19.048zm-238.096-4.761c0-13.129 10.681-23.81 23.81-23.81s23.81 10.681 23.81 23.81-10.681 23.81-23.81 23.81-23.81-10.682-23.81-23.81m56.762 4.761h96a33.26 33.26 0 0 0 9.671 19.048H89.948a33.23 33.23 0 0 0 9.671-19.048m186.095 128.571v19.048H9.524v-19.048zm-112.195-9.523h-51.8l25.9-6.971zm18.824-28.876-44.724 12.038-44.724-12.043 44.724-13.757zm-44.724-23.729-30.233-9.3h60.467zm138.095-37.871v19.048H9.524v-19.048zm-57.142-9.523c-13.129 0-23.81-10.681-23.81-23.81s10.681-23.81 23.81-23.81 23.81 10.681 23.81 23.81-10.681 23.81-23.81 23.81m-.001-57.143c-16.758 0-30.629 12.448-32.952 28.571h-96c-2.324-16.123-16.195-28.571-32.952-28.571s-30.629 12.448-32.952 28.571H19.048c-5.072 0-9.524-4.452-9.524-9.523v-23.81h9.524v9.524h9.524v-9.524c0-6.143-3.381-9.524-9.524-9.524H9.524c0-11.781 7.881-17.614 15.067-19.114l28.724-4.79c6.219-1.248 11.281-4.557 17.224-11.424l23.69-33.171c4.381-5.605 8.529-7.69 15.295-7.69H200c6.762 0 10.91 2.086 15.176 7.529l24.09 33.69c4.667 5.371 9.095 9.086 16.729 11.014l19.4 4.838c4.057.7 10.319 7.171 10.319 14.357v42.857c0 4.09-.671 4.762-4.762 4.762h-19.429c-2.323-16.124-16.194-28.572-32.952-28.572"/><path d="M228.571 119.048c-7.876 0-14.286 6.41-14.286 14.286s6.41 14.286 14.286 14.286 14.286-6.41 14.286-14.286-6.409-14.286-14.286-14.286m0 19.047a4.763 4.763 0 0 1-4.762-4.762 4.763 4.763 0 0 1 4.762-4.762 4.763 4.763 0 0 1 4.762 4.762 4.763 4.763 0 0 1-4.762 4.762M38.095 204.762h9.524v23.81h-9.524zM19.048 214.287h9.524v33.333h-9.524zM261.905 204.762h9.524v19.048h-9.524zM242.857 204.762h9.524v42.857h-9.524zM176.19 109.524h9.524v9.524h-9.524zM157.143 109.524h9.524v9.524h-9.524zM266.667 109.524h9.524v9.524h-9.524zM19.048 271.429h9.524v9.524h-9.524zM38.095 271.429h9.524v9.524h-9.524z"/></svg>