<?xml version="1.0" encoding="iso-8859-1"?>
<!-- Uploaded to: SVG Repo, www.svgrepo.com, Generator: SVG Repo Mixer Tools -->
<svg fill="#000000" version="1.1" id="Layer_1" xmlns="http://www.w3.org/2000/svg" xmlns:xlink="http://www.w3.org/1999/xlink" viewBox="0 0 512 512" xml:space="preserve">
<g>
	<g>
		<path d="M481.349,457.189l-83.934-134.295c-3.074-4.902-11.164-4.902-14.238,0l-83.934,134.295
			c-1.615,2.59-1.701,5.852-0.221,8.516c1.479,2.672,4.287,4.328,7.34,4.328H474.23c3.053,0,5.861-1.656,7.34-4.328
			C483.049,463.041,482.963,459.779,481.349,457.189z M321.504,453.246l68.791-110.066l68.791,110.066H321.504z"></path>
	</g>
</g>
<g>
	<g>
		<path d="M390.295,360.918c-4.635,0-8.393,3.754-8.393,8.393v41.967c0,4.639,3.758,8.393,8.393,8.393
			c4.635,0,8.393-3.754,8.393-8.393v-41.967C398.689,364.672,394.931,360.918,390.295,360.918z"></path>
	</g>
</g>
<g>
	<g>
		<path d="M396.254,430.5c-0.84-0.754-1.68-1.344-2.77-1.762c-2.016-0.844-4.365-0.844-6.381,0c-1.09,0.418-2.012,1.008-2.766,1.762
			c-1.512,1.59-2.435,3.779-2.435,5.959c0,1.09,0.25,2.18,0.668,3.188c0.422,1.008,1.008,1.926,1.766,2.77
			c0.836,0.754,1.762,1.344,2.766,1.762c1.008,0.418,2.098,0.672,3.193,0.672c1.09,0,2.18-0.254,3.188-0.672
			c1.008-0.418,1.93-1.008,2.77-1.762c0.754-0.844,1.34-1.762,1.762-2.77c0.504-1.008,0.672-2.098,0.672-3.188
			C398.689,434.279,397.763,432.09,396.254,430.5z"></path>
	</g>
</g>
<g>
	<g>
		<path d="M365.07,0H54.603c-13.91,0-25.225,11.287-25.225,25.156v461.688c0,13.869,11.316,25.156,25.221,25.156h252.16
			c4.635,0,8.393-3.754,8.393-8.393s-3.758-8.393-8.393-8.393H54.599c-4.652,0-8.434-3.754-8.434-8.369V25.156
			c0-4.615,3.787-8.369,8.439-8.369H365.07c4.652,0,8.439,3.771,8.439,8.41v276.188c0,4.639,3.758,8.393,8.393,8.393
			s8.393-3.754,8.393-8.393V25.197C390.295,11.303,378.98,0,365.07,0z"></path>
	</g>
</g>
<g>
	<g>
		<path d="M209.836,394.492c-20.828,0-37.771,16.943-37.771,37.77c0,20.828,16.943,37.771,37.771,37.771
			s37.771-16.943,37.771-37.771C247.607,411.434,230.664,394.492,209.836,394.492z M209.836,453.246
			c-11.57,0-20.984-9.41-20.984-20.984c0-11.574,9.414-20.984,20.984-20.984c11.57,0,20.984,9.41,20.984,20.984
			C230.82,443.836,221.406,453.246,209.836,453.246z"></path>
	</g>
</g>
<g>
	<g>
		<path d="M297.951,58.754h-176.23c-23.152,0-41.984,18.787-41.984,41.885v268.672c0,4.639,3.758,8.393,8.393,8.393h243.41
			c4.635,0,8.393-3.754,8.393-8.393V100.639C339.935,77.541,321.103,58.754,297.951,58.754z M323.148,360.918H96.525V100.639
			c0-13.836,11.303-25.098,25.197-25.098h176.23c13.893,0,25.197,11.262,25.197,25.098V360.918z"></path>
	</g>
</g>
<g>
	<g>
		<path d="M180.459,100.721h-58.754c-4.635,0-8.393,3.754-8.393,8.393v58.754c0,4.639,3.758,8.393,8.393,8.393h58.754
			c4.635,0,8.393-3.754,8.393-8.393v-58.754C188.853,104.476,185.095,100.721,180.459,100.721z M172.066,159.475h-41.967v-41.967
			h41.967V159.475z"></path>
	</g>
</g>
<g>
	<g>
		<path d="M180.459,201.443h-58.754c-4.635,0-8.393,3.754-8.393,8.393v58.754c0,4.639,3.758,8.393,8.393,8.393h58.754
			c4.635,0,8.393-3.754,8.393-8.393v-58.754C188.853,205.197,185.095,201.443,180.459,201.443z M172.066,260.197h-41.967v-41.967
			h41.967V260.197z"></path>
	</g>
</g>
<g>
	<g>
		<path d="M297.968,100.721h-58.754c-4.635,0-8.393,3.754-8.393,8.393v58.754c0,4.639,3.758,8.393,8.393,8.393h58.754
			c4.635,0,8.393-3.754,8.393-8.393v-58.754C306.361,104.476,302.603,100.721,297.968,100.721z M289.574,159.475h-41.967v-41.967
			h41.967V159.475z"></path>
	</g>
</g>
<g>
	<g>
		<path d="M297.968,201.443h-58.754c-4.635,0-8.393,3.754-8.393,8.393v58.754c0,4.639,3.758,8.393,8.393,8.393h58.754
			c4.635,0,8.393-3.754,8.393-8.393v-58.754C306.361,205.197,302.603,201.443,297.968,201.443z M289.574,260.197h-41.967v-41.967
			h41.967V260.197z"></path>
	</g>
</g>
<g>
	<g>
		<rect x="197.246" y="33.574" width="25.18" height="16.787"></rect>
	</g>
</g>
</svg>