<svg xmlns="http://www.w3.org/2000/svg" xml:space="preserve" id="Layer_1" fill="#000" version="1.1" viewBox="0 0 512 512"><path d="m481.349 457.189-83.934-134.295c-3.074-4.902-11.164-4.902-14.238 0l-83.934 134.295a8.4 8.4 0 0 0-.221 8.516 8.39 8.39 0 0 0 7.34 4.328H474.23a8.399 8.399 0 0 0 7.119-12.844m-159.845-3.943 68.791-110.066 68.791 110.066z"/><path d="M390.295 360.918a8.39 8.39 0 0 0-8.393 8.393v41.967a8.39 8.39 0 0 0 8.393 8.393 8.39 8.39 0 0 0 8.393-8.393v-41.967a8.39 8.39 0 0 0-8.393-8.393M396.254 430.5c-.84-.754-1.68-1.344-2.77-1.762a8.36 8.36 0 0 0-6.381 0q-1.635.629-2.766 1.762c-1.512 1.59-2.435 3.779-2.435 5.959 0 1.09.25 2.18.668 3.188a9.8 9.8 0 0 0 1.766 2.77 9.7 9.7 0 0 0 2.766 1.762c1.008.418 2.098.672 3.193.672 1.09 0 2.18-.254 3.188-.672a9.7 9.7 0 0 0 2.77-1.762 9.8 9.8 0 0 0 1.762-2.77c.504-1.008.672-2.098.672-3.188.002-2.18-.924-4.369-2.433-5.959M365.07 0H54.603c-13.91 0-25.225 11.287-25.225 25.156v461.688c0 13.869 11.316 25.156 25.221 25.156h252.16c4.635 0 8.393-3.754 8.393-8.393s-3.758-8.393-8.393-8.393H54.599c-4.652 0-8.434-3.754-8.434-8.369V25.156c0-4.615 3.787-8.369 8.439-8.369H365.07c4.652 0 8.439 3.771 8.439 8.41v276.188c0 4.639 3.758 8.393 8.393 8.393s8.393-3.754 8.393-8.393V25.197C390.295 11.303 378.98 0 365.07 0"/><path d="M209.836 394.492c-20.828 0-37.771 16.943-37.771 37.77s16.943 37.771 37.771 37.771 37.771-16.943 37.771-37.771-16.943-37.77-37.771-37.77m0 58.754c-11.57 0-20.984-9.41-20.984-20.984s9.414-20.984 20.984-20.984 20.984 9.41 20.984 20.984-9.414 20.984-20.984 20.984M297.951 58.754h-176.23c-23.152 0-41.984 18.787-41.984 41.885v268.672a8.39 8.39 0 0 0 8.393 8.393h243.41a8.39 8.39 0 0 0 8.393-8.393V100.639c.002-23.098-18.83-41.885-41.982-41.885m25.197 302.164H96.525V100.639c0-13.836 11.303-25.098 25.197-25.098h176.23c13.893 0 25.197 11.262 25.197 25.098z"/><path d="M180.459 100.721h-58.754a8.39 8.39 0 0 0-8.393 8.393v58.754a8.39 8.39 0 0 0 8.393 8.393h58.754a8.39 8.39 0 0 0 8.393-8.393v-58.754a8.39 8.39 0 0 0-8.393-8.393m-8.393 58.754h-41.967v-41.967h41.967zM180.459 201.443h-58.754a8.39 8.39 0 0 0-8.393 8.393v58.754a8.39 8.39 0 0 0 8.393 8.393h58.754a8.39 8.39 0 0 0 8.393-8.393v-58.754a8.39 8.39 0 0 0-8.393-8.393m-8.393 58.754h-41.967V218.23h41.967zM297.968 100.721h-58.754a8.39 8.39 0 0 0-8.393 8.393v58.754a8.39 8.39 0 0 0 8.393 8.393h58.754a8.39 8.39 0 0 0 8.393-8.393v-58.754a8.39 8.39 0 0 0-8.393-8.393m-8.394 58.754h-41.967v-41.967h41.967zM297.968 201.443h-58.754a8.39 8.39 0 0 0-8.393 8.393v58.754a8.39 8.39 0 0 0 8.393 8.393h58.754a8.39 8.39 0 0 0 8.393-8.393v-58.754a8.39 8.39 0 0 0-8.393-8.393m-8.394 58.754h-41.967V218.23h41.967zM197.246 33.574h25.18v16.787h-25.18z"/></svg>