<svg xmlns="http://www.w3.org/2000/svg" xml:space="preserve" id="Capa_1" width="800" height="800" fill="#000" version="1.1" viewBox="0 0 432.138 432.138"><path d="M92.093 274.582c-36.172 0-65.6 29.428-65.6 65.599s29.428 65.6 65.6 65.6 65.599-29.428 65.599-65.6-29.428-65.599-65.599-65.599m0 113.198c-26.247 0-47.6-21.353-47.6-47.6 0-26.246 21.353-47.599 47.6-47.599 26.246 0 47.599 21.353 47.599 47.599 0 26.247-21.353 47.6-47.599 47.6"/><path d="M92.093 316.684c-12.956 0-23.497 10.541-23.497 23.497s10.541 23.497 23.497 23.497 23.497-10.541 23.497-23.497-10.541-23.497-23.497-23.497m0 28.993c-3.031 0-5.497-2.466-5.497-5.497s2.466-5.497 5.497-5.497 5.497 2.466 5.497 5.497-2.466 5.497-5.497 5.497M144.976 107.529c18.55 0 33.642-15.092 33.642-33.642s-15.091-33.642-33.642-33.642-33.642 15.092-33.642 33.642 15.092 33.642 33.642 33.642m0-49.284c8.625 0 15.642 7.017 15.642 15.642s-7.017 15.642-15.642 15.642-15.642-7.017-15.642-15.642 7.017-15.642 15.642-15.642"/><circle cx="374.542" cy="189.021" r="13.707"/><path d="M404.55 237.99c16.452-10.118 27.451-28.278 27.451-48.968 0-20.441-10.738-38.411-26.86-48.599L182.014 9.944l.021.063A73.4 73.4 0 0 0 144.976 0c-32.441 0-60.047 21.024-69.955 50.156-.368 1.083-72.058 267.258-72.55 269.392l-.004.016.001-.001A92 92 0 0 0 .136 340.18c0 50.705 41.252 91.957 91.957 91.957 17.403 0 33.69-4.862 47.58-13.295 1.196-.725 264.558-180.656 264.877-180.852m-42.454 7.118L179.038 370.13a91.6 91.6 0 0 0 5.012-29.949c0-50.705-41.252-91.957-91.957-91.957-21.426 0-41.163 7.367-56.814 19.699l43.234-161.784c11.998 24.625 37.279 41.635 66.463 41.635 40.742 0 73.887-33.146 73.887-73.887a73.5 73.5 0 0 0-3.981-23.875l143.47 83.886c-23.824 7.01-41.271 29.061-41.271 55.123.001 27.41 19.297 50.384 45.015 56.087m12.446-16.627c-21.758 0-39.46-17.702-39.46-39.46 0-21.759 17.702-39.46 39.46-39.46s39.46 17.702 39.46 39.46c0 21.759-17.702 39.46-39.46 39.46M144.976 18c30.816 0 55.887 25.071 55.887 55.887s-25.071 55.887-55.887 55.887-55.887-25.071-55.887-55.887S114.159 18 144.976 18M18.136 340.181c0-40.78 33.177-73.957 73.957-73.957s73.957 33.177 73.957 73.957-33.177 73.957-73.957 73.957-73.957-33.177-73.957-73.957"/></svg>