<svg xmlns="http://www.w3.org/2000/svg" xml:space="preserve" id="Capa_1" width="800" height="800" fill="#000" version="1.1" viewBox="0 0 297 297"><path d="M264.124 72.473h-6.585V32.959c0-3.819-2.174-7.303-5.603-8.984C219.92 8.291 184.152 0 148.5 0S77.08 8.291 45.064 23.975a10 10 0 0 0-5.603 8.984v39.514h-6.585c-14.572 0-26.426 11.855-26.426 26.426v33.178c0 14.572 11.855 26.426 26.426 26.426h6.585v105.538c0 3.819 2.174 7.303 5.603 8.984C77.08 288.71 112.848 297 148.5 297s71.42-8.29 103.436-23.974a10 10 0 0 0 5.603-8.984V158.504h6.585c14.572 0 26.426-11.855 26.426-26.426V98.9c.001-14.572-11.854-26.427-26.426-26.427M59.468 75.974h178.064v65.189H59.468zm0-36.68c56.917-25.929 121.147-25.929 178.064 0v16.673H59.468zm-33.012 92.784V98.9a6.427 6.427 0 0 1 6.419-6.419h6.585v46.016h-6.585a6.427 6.427 0 0 1-6.419-6.419m211.076 125.629c-56.917 25.929-121.147 25.929-178.064 0v-96.536h178.064zm33.012-125.629a6.427 6.427 0 0 1-6.419 6.419h-6.585V92.48h6.585a6.427 6.427 0 0 1 6.419 6.419z"/><path d="m143.548 88.029-33.012 33.012a7.005 7.005 0 0 0 4.952 11.955 6.98 6.98 0 0 0 4.952-2.051l33.012-33.012a7.005 7.005 0 0 0 0-9.904 7.005 7.005 0 0 0-9.904 0M120.44 88.029a7.007 7.007 0 0 0-9.904 0L77.524 121.04a7.005 7.005 0 0 0 4.952 11.955 6.98 6.98 0 0 0 4.952-2.051l33.012-33.012a7 7 0 0 0 0-9.903M214.521 188.515c1.84 0 3.651-.75 4.952-2.051a7.07 7.07 0 0 0 2.051-4.952c0-1.84-.75-3.652-2.051-4.952a7.05 7.05 0 0 0-4.952-2.051c-1.841 0-3.642.75-4.952 2.051a7.07 7.07 0 0 0-2.051 4.952c0 1.841.75 3.651 2.051 4.952a7.08 7.08 0 0 0 4.952 2.051M108.882 188.515c3.872 0 7.003-3.131 7.003-7.003s-3.131-7.003-7.003-7.003c-3.861 0-7.003 3.131-7.003 7.003s3.143 7.003 7.003 7.003M135.292 188.515c3.872 0 7.003-3.131 7.003-7.003s-3.131-7.003-7.003-7.003a7.004 7.004 0 0 0 0 14.006M161.702 188.515c3.871 0 7.003-3.131 7.003-7.003s-3.132-7.003-7.003-7.003a7.004 7.004 0 0 0 0 14.006M188.111 188.515c3.872 0 7.003-3.131 7.003-7.003s-3.131-7.003-7.003-7.003a7.004 7.004 0 0 0 0 14.006M82.473 188.515c1.841 0 3.651-.75 4.952-2.051a7.02 7.02 0 0 0 2.051-4.952c0-1.84-.741-3.652-2.051-4.952a7.07 7.07 0 0 0-4.952-2.051 7.08 7.08 0 0 0-4.952 2.051 7.07 7.07 0 0 0-2.051 4.952c0 1.841.75 3.651 2.051 4.952a7.08 7.08 0 0 0 4.952 2.051M214.521 37.461c-1.841 0-3.642.75-4.952 2.051a7.07 7.07 0 0 0-2.051 4.952c0 1.841.75 3.651 2.051 4.952a7.08 7.08 0 0 0 4.952 2.051c1.85 0 3.651-.75 4.952-2.051a7.02 7.02 0 0 0 2.051-4.952 7.02 7.02 0 0 0-2.051-4.952 7.05 7.05 0 0 0-4.952-2.051M188.111 37.461a7.004 7.004 0 1 0 7.003 7.003 7 7 0 0 0-7.003-7.003M161.702 37.461a7.004 7.004 0 1 0 7.003 7.003 7 7 0 0 0-7.003-7.003M135.292 37.461a7.004 7.004 0 1 0 7.003 7.003 6.997 6.997 0 0 0-7.003-7.003M108.882 37.461c-3.861 0-7.003 3.131-7.003 7.003s3.142 7.003 7.003 7.003c3.872 0 7.003-3.131 7.003-7.003s-3.131-7.003-7.003-7.003M82.473 37.461c-1.84 0-3.652.75-4.952 2.051s-2.051 3.111-2.051 4.952.75 3.651 2.051 4.952a7.07 7.07 0 0 0 4.952 2.051c1.85 0 3.651-.75 4.952-2.051a7.02 7.02 0 0 0 2.051-4.952c0-1.84-.741-3.652-2.051-4.952a7.05 7.05 0 0 0-4.952-2.051"/></svg>