<?xml version="1.0" encoding="UTF-8" standalone="no"?>
<svg
   width="500"
   zoomAndPan="magnify"
   viewBox="0 0 375 374.999991"
   height="500"
   preserveAspectRatio="xMidYMid meet"
   version="1.0"
   id="svg237"
   sodipodi:docname="favicon.svg"
   inkscape:version="1.2.2 (732a01da63, 2022-12-09)"
   xmlns:inkscape="http://www.inkscape.org/namespaces/inkscape"
   xmlns:sodipodi="http://sodipodi.sourceforge.net/DTD/sodipodi-0.dtd"
   xmlns="http://www.w3.org/2000/svg"
   xmlns:svg="http://www.w3.org/2000/svg">
  <sodipodi:namedview
     id="namedview239"
     pagecolor="#ffffff"
     bordercolor="#000000"
     borderopacity="0.25"
     inkscape:showpageshadow="2"
     inkscape:pageopacity="0.0"
     inkscape:pagecheckerboard="0"
     inkscape:deskcolor="#d1d1d1"
     showgrid="false"
     inkscape:zoom="0.83"
     inkscape:cx="145.18072"
     inkscape:cy="362.04819"
     inkscape:window-width="1920"
     inkscape:window-height="991"
     inkscape:window-x="-9"
     inkscape:window-y="-9"
     inkscape:window-maximized="1"
     inkscape:current-layer="svg237" />
  <defs
     id="defs7">
    <g
       id="g2" />
    <clipPath
       id="40ef8b7d1e">
      <path
         d="M 38 113.574219 L 338 113.574219 L 338 177.324219 L 38 177.324219 Z M 38 113.574219 "
         clip-rule="nonzero"
         id="path4" />
    </clipPath>
  </defs>
  <circle
     style="fill:#ad2424;stroke-width:14.9188;stroke-linejoin:round;stroke-miterlimit:3.8;paint-order:fill markers stroke;stop-color:#000000;fill-opacity:1"
     id="path658"
     cx="187.5"
     cy="187.5"
     r="187.5" />
  <g
     fill="#ffffff"
     fill-opacity="1"
     id="g79">
    <g
       transform="translate(170.750743, 217.631955)"
       id="g77">
      <g
         id="g75" />
    </g>
  </g>
  <g
     fill="#ffffff"
     fill-opacity="1"
     id="g117">
    <g
       transform="translate(248.142485, 217.631955)"
       id="g115">
      <g
         id="g113" />
    </g>
  </g>
  <g
     id="g1256"
     transform="translate(2.4865009,-28.040658)">
    <g
       fill="#ffffff"
       fill-opacity="1"
       id="g25"
       transform="matrix(4.4003305,0,0,4.4003305,-124.82152,-666.03426)">
      <g
         transform="translate(37.510053,217.63195)"
         id="g23">
        <g
           id="g21">
          <path
             d="m 8.65625,0.328125 c -2.5,0 -4.359375,-0.878906 -5.578125,-2.640625 C 1.859375,-4.070312 1.25,-6.738281 1.25,-10.3125 v -14.890625 c 0,-3.195313 0.707031,-5.613281 2.125,-7.25 1.425781,-1.632813 3.550781,-2.453125 6.375,-2.453125 2.28125,0 4.050781,0.460938 5.3125,1.375 1.257812,0.90625 2.128906,2.234375 2.609375,3.984375 0.488281,1.742187 0.734375,3.980469 0.734375,6.71875 H 11.640625 V -25.9375 c 0,-0.820312 -0.117187,-1.460938 -0.34375,-1.921875 -0.230469,-0.457031 -0.640625,-0.6875 -1.234375,-0.6875 -1.3125,0 -1.96875,0.859375 -1.96875,2.578125 v 16.75 c 0,1.042969 0.132812,1.835938 0.40625,2.375 0.269531,0.53125 0.738281,0.796875 1.40625,0.796875 0.664062,0 1.132812,-0.265625 1.40625,-0.796875 0.269531,-0.539062 0.40625,-1.332031 0.40625,-2.375 v -4.953125 H 9.859375 V -20.125 h 8.46875 V 0 h -2.78125 L 14.375,-2.90625 C 13.132812,-0.75 11.226562,0.328125 8.65625,0.328125 Z m 0,0"
             id="path19" />
        </g>
      </g>
    </g>
    <g
       fill="#ffffff"
       fill-opacity="1"
       id="g87"
       transform="matrix(4.4818182,0,0,4.4818182,-667.14144,-682.32473)">
      <g
         transform="translate(181.6227,217.63195)"
         id="g85">
        <g
           id="g83">
          <path
             d="M 1.53125,0 V -34.59375 H 8.453125 V -5.875 h 7.125 V 0 Z m 0,0"
             id="path81" />
        </g>
      </g>
    </g>
    <g
       fill="#ffffff"
       fill-opacity="1"
       id="g125"
       transform="matrix(4.4818182,0,0,4.4818182,-921.57865,-682.32473)">
      <g
         transform="translate(259.01444,217.63195)"
         id="g123">
        <g
           id="g121">
          <path
             d="m 0.609375,0 3.34375,-34.59375 H 15.65625 L 18.96875,0 h -6.5625 l -0.484375,-5.59375 h -4.1875 L 7.328125,0 Z M 8.25,-11.109375 h 3.140625 l -1.53125,-17.59375 h -0.3125 z m 0,0"
             id="path119" />
        </g>
      </g>
    </g>
  </g>
  <g
     fill="#ffffff"
     fill-opacity="1"
     id="g179">
    <g
       transform="translate(147.924093, 248.980736)"
       id="g177">
      <g
         id="g175" />
    </g>
  </g>
</svg>
