<?xml version="1.0" encoding="UTF-8" standalone="no"?>
<svg
   width="540"
   zoomAndPan="magnify"
   viewBox="0 0 405 135.64124"
   height="180.855"
   preserveAspectRatio="xMidYMid"
   version="1.0"
   id="svg237"
   sodipodi:docname="logo_black_wide.svg"
   inkscape:version="1.2.2 (732a01da63, 2022-12-09)"
   inkscape:export-filename="logo_black_wide.png"
   inkscape:export-xdpi="96"
   inkscape:export-ydpi="96"
   xmlns:inkscape="http://www.inkscape.org/namespaces/inkscape"
   xmlns:sodipodi="http://sodipodi.sourceforge.net/DTD/sodipodi-0.dtd"
   xmlns="http://www.w3.org/2000/svg"
   xmlns:svg="http://www.w3.org/2000/svg">
  <sodipodi:namedview
     id="namedview239"
     pagecolor="#ffffff"
     bordercolor="#ffffff"
     borderopacity="0.25"
     inkscape:showpageshadow="2"
     inkscape:pageopacity="0.0"
     inkscape:pagecheckerboard="0"
     inkscape:deskcolor="#d1d1d1"
     showgrid="false"
     inkscape:zoom="0.56851385"
     inkscape:cx="58.925565"
     inkscape:cy="104.65884"
     inkscape:window-width="1920"
     inkscape:window-height="991"
     inkscape:window-x="-9"
     inkscape:window-y="-9"
     inkscape:window-maximized="1"
     inkscape:current-layer="svg237" />
  <defs
     id="defs7">
    <g
       id="g2" />
    <clipPath
       id="40ef8b7d1e">
      <path
         d="m 38,113.57422 h 300 v 63.75 H 38 Z m 0,0"
         clip-rule="nonzero"
         id="path4" />
    </clipPath>
  </defs>
  <g
     fill="#ffffff"
     fill-opacity="1"
     id="g79"
     transform="translate(-38.29649,-113.57422)">
    <g
       transform="translate(170.75074,217.63195)"
       id="g77">
      <g
         id="g75" />
    </g>
  </g>
  <g
     fill="#ffffff"
     fill-opacity="1"
     id="g117"
     transform="translate(-38.29649,-113.57422)">
    <g
       transform="translate(248.14248,217.63195)"
       id="g115">
      <g
         id="g113" />
    </g>
  </g>
  <g
     fill="#ffffff"
     fill-opacity="1"
     id="g179"
     transform="translate(-38.29649,-113.57422)">
    <g
       transform="translate(147.92409,248.98074)"
       id="g177">
      <g
         id="g175" />
    </g>
  </g>
  <g
     id="g618"
     transform="translate(52.949627)">
    <g
       clip-path="url(#40ef8b7d1e)"
       id="g17"
       style="fill:#ffffff"
       transform="translate(-38.29649,-113.57422)">
      <path
         fill="#ffffff"
         d="m 39.328125,146.41016 1.84375,0.125 c 0.203125,0.0117 0.40625,0.0195 0.613281,0.0273 l 1.226563,0.0586 c 0.410156,0.0117 0.816406,0.0195 1.226562,0.0312 0.816407,0.0312 1.636719,0.0195 2.449219,0.0273 0.203125,0.004 0.410156,-0.004 0.613281,-0.008 l 1.222657,-0.0195 0.304687,-0.008 0.308594,-0.0117 c 0.8125,-0.0352 1.625,-0.0547 2.433593,-0.11719 0.40625,-0.0273 0.8125,-0.0469 1.21875,-0.082 L 54,146.32812 c 0.203125,-0.0156 0.402344,-0.0312 0.605469,-0.0547 l 0.605469,-0.0664 1.207031,-0.13672 1.203125,-0.16406 0.597656,-0.0781 0.597656,-0.10156 1.195313,-0.1914 1.1875,-0.22266 0.597656,-0.11328 c 0.195313,-0.0352 0.390625,-0.082 0.585937,-0.125 l 1.179688,-0.25391 c 0.199219,-0.0391 0.390625,-0.0898 0.585938,-0.14062 l 0.585937,-0.14063 c 0.386719,-0.0977 0.785156,-0.1875 1.160156,-0.29297 l 1.132813,-0.3125 0.285156,-0.0781 0.296875,-0.0898 0.601563,-0.18359 0.894531,-0.27344 0.25,-0.0859 1.144531,-0.39063 1.140625,-0.39062 c 0.191406,-0.0625 0.378906,-0.13282 0.570313,-0.20704 l 0.566406,-0.21484 1.128906,-0.42969 0.566406,-0.21484 c 0.191406,-0.0703 0.378906,-0.15234 0.566406,-0.23047 l 2.242188,-0.92969 2.230469,-0.98828 c 0.371093,-0.16015 0.742187,-0.33984 1.113281,-0.51172 l 1.109375,-0.51953 0.554687,-0.26172 0.273438,-0.1289 0.277344,-0.13672 2.210937,-1.07813 c 0.367188,-0.18359 0.734375,-0.37109 1.101563,-0.55468 l 1.105468,-0.5586 c 0.367188,-0.18359 0.734376,-0.36719 1.101563,-0.55859 l 2.207031,-1.13672 4.4375,-2.29688 2.238282,-1.14453 1.121093,-0.57422 1.128907,-0.5664 1.136722,-0.5625 0.5625,-0.28125 0.57422,-0.27344 2.29687,-1.10156 2.32422,-1.05859 c 0.38281,-0.17969 0.78906,-0.35157 1.1875,-0.52344 l 1.20312,-0.51563 0.59766,-0.2539 0.30078,-0.125 0.29297,-0.11719 1.16016,-0.46094 1.16406,-0.46094 0.14453,-0.0547 0.19922,-0.0742 0.29687,-0.10938 0.59766,-0.21875 1.19922,-0.4414 0.59766,-0.21875 c 0.19921,-0.0703 0.40234,-0.14063 0.60156,-0.21094 l 2.41015,-0.83203 2.42969,-0.78516 c 0.20313,-0.0664 0.40235,-0.13281 0.60938,-0.19531 l 0.60937,-0.1875 1.22266,-0.36719 c 0.40625,-0.12109 0.8125,-0.24609 1.22265,-0.36719 l 1.23047,-0.34375 c 0.81641,-0.23046 1.63672,-0.46484 2.46485,-0.67187 l 1.85156,-0.47656 0.3125,-0.0781 0.30859,-0.0781 2.48828,-0.58594 c 6.65235,-1.49219 13.40625,-2.56641 20.21094,-3.10938 l 1.27734,-0.10546 0.32032,-0.0234 0.32422,-0.0195 1.93359,-0.11719 c 0.42969,-0.0234 0.86719,-0.0547 1.28125,-0.0625 l 2.5,-0.0937 0.19141,-0.008 h 0.16015 l 0.31641,-0.008 0.63672,-0.008 1.26953,-0.0234 c 0.84765,-0.0195 1.69531,-0.0156 2.54687,-0.0156 0.84766,0.004 1.69532,-0.004 2.54688,0.0195 l 2.54297,0.0508 2.54687,0.0977 0.63672,0.0234 c 0.21094,0.0117 0.42578,0.0273 0.63672,0.0391 l 1.27344,0.0781 1.26953,0.0742 c 0.21484,0.0117 0.42578,0.0273 0.63672,0.043 l 0.63672,0.0547 c 0.84765,0.0703 1.69531,0.13281 2.54296,0.20703 l 2.53907,0.26953 0.63281,0.0664 0.63672,0.082 2.53125,0.32422 c 0.42187,0.0625 0.84375,0.1289 1.26562,0.1914 l 1.26172,0.19922 0.62891,0.0977 0.3164,0.0508 0.31641,0.0586 2.51563,0.46094 c 0.42187,0.0703 0.83593,0.16406 1.2539,0.25391 l 1.25,0.26562 1.25391,0.26953 1.24219,0.30469 1.24609,0.30469 0.62109,0.15234 c 0.20703,0.0508 0.41407,0.11328 0.61719,0.16797 l 2.77734,0.77344 0.92188,0.28906 1.22266,0.38281 0.60937,0.19141 c 0.20313,0.0664 0.41016,0.125 0.61328,0.19922 l 1.22656,0.43359 1.22657,0.42969 0.60937,0.21875 0.58203,0.22656 2.32813,0.91406 0.1875,0.0742 0.14453,0.0625 0.29687,0.12891 0.58985,0.25391 1.17969,0.51171 c 0.39843,0.16407 0.78125,0.35157 1.16796,0.53125 l 1.15625,0.54688 c 0.78125,0.35156 1.53125,0.75 2.29297,1.125 0.37891,0.19531 0.76172,0.37891 1.13672,0.57812 l 1.1211,0.59375 c 2.99609,1.58204 5.90625,3.26172 8.79687,4.92969 2.88672,1.67188 5.75,3.33203 8.64844,4.89063 0.71875,0.40234 1.44922,0.76953 2.17969,1.15234 0.36328,0.1875 0.72265,0.38281 1.08984,0.5625 l 1.10156,0.54297 1.10156,0.53906 c 0.36719,0.17578 0.73829,0.33984 1.11329,0.50781 l 1.10937,0.50782 c 0.37109,0.17578 0.74219,0.3164 1.11328,0.47656 l 1.10938,0.46484 0.55468,0.22656 c 0.19141,0.0781 0.39063,0.14844 0.58594,0.21875 l 1.17188,0.4375 0.58203,0.21875 0.29687,0.10938 c 0.0547,0.0195 0.004,0 0.0352,0.0117 l 0.0703,0.0234 0.14453,0.0469 c 1.50782,0.52344 3.06641,0.94922 4.64063,1.32813 3.16015,0.75781 6.41406,1.30078 9.69531,1.8164 1.64453,0.25781 3.29297,0.50781 4.95313,0.78125 l 0.62109,0.0977 0.625,0.10937 c 0.41406,0.0703 0.83984,0.13672 1.24609,0.21485 l 2.46094,0.44922 c 3.26563,0.58984 6.55469,1.13671 9.84766,1.70703 6.58203,1.13672 13.1914,2.35156 19.68359,4.13281 3.24609,0.89062 6.46484,1.91797 9.59375,3.19531 1.56641,0.63672 3.10938,1.33594 4.61328,2.10938 l 0.28516,0.14453 0.28125,0.14844 0.55859,0.30468 c 0.3711,0.19922 0.73438,0.41797 1.10547,0.625 0.36328,0.21875 0.72656,0.4336 1.08594,0.66016 0.35547,0.23437 0.71875,0.45703 1.0664,0.69922 l 0.52344,0.35937 0.51563,0.375 c 0.34765,0.2461 0.67968,0.50782 1.01953,0.76953 0.16797,0.12891 0.33203,0.26563 0.49609,0.40235 l 0.48828,0.40625 0.47657,0.42578 c 0.16015,0.14062 0.32031,0.27734 0.47265,0.42969 l 0.46485,0.4375 0.11328,0.10937 0.33593,0.34375 c 0.14454,0.15235 0.30079,0.30469 0.44141,0.46094 l 0.42969,0.47266 c 0.0703,0.082 0.14453,0.15625 0.21094,0.23828 l 0.20703,0.24609 0.41015,0.48828 0.39063,0.50391 c 0.1289,0.17187 0.26172,0.33984 0.3789,0.51562 l 0.36719,0.51953 c 0.0625,0.0859 0.1211,0.17579 0.17969,0.26563 l 0.34375,0.53906 c 0.0586,0.0859 0.11719,0.17578 0.16797,0.26953 l 0.32031,0.55078 c 0.0547,0.0898 0.11328,0.1836 0.16016,0.27735 l 0.44531,0.84375 0.26953,0.57812 c 0.0898,0.19141 0.18359,0.38282 0.26172,0.57813 l 0.24219,0.58984 0.0625,0.14844 0.0547,0.14453 0.10938,0.30078 c 0.0703,0.19922 0.14453,0.39844 0.21094,0.59766 l 0.1875,0.60937 0.0976,0.30078 c 0.0312,0.10157 0.0547,0.20704 0.082,0.3086 l 0.16016,0.61719 0.043,0.15234 c 0.0117,0.0508 0.0234,0.10547 0.0352,0.15234 l 0.19921,0.91797 c 0.0352,0.17969 -0.0742,0.35547 -0.2539,0.40235 -0.1836,0.0508 -0.3711,-0.0625 -0.41797,-0.2461 l -0.15625,-0.60547 -0.0781,-0.30078 c -0.0117,-0.0508 -0.0234,-0.10156 -0.0391,-0.15234 l -0.043,-0.14453 -0.17968,-0.58594 c -0.0312,-0.0937 -0.0547,-0.19141 -0.0899,-0.28906 l -0.10156,-0.28907 -0.20703,-0.57812 c -0.0703,-0.19141 -0.15235,-0.37891 -0.22656,-0.57031 l -0.11719,-0.28125 -0.0547,-0.14063 -0.0664,-0.14062 -0.2539,-0.5586 c -0.082,-0.18359 -0.17969,-0.36328 -0.27344,-0.54687 l -0.28125,-0.54297 -0.30078,-0.53125 -0.15234,-0.26563 c -0.0508,-0.0859 -0.10547,-0.17187 -0.16016,-0.25781 l -0.32813,-0.51562 c -0.0508,-0.0898 -0.10937,-0.17188 -0.16796,-0.25782 l -0.17579,-0.25 -0.17187,-0.25 c -0.0586,-0.082 -0.11719,-0.16796 -0.17969,-0.24609 L 332.54297,168.25 c -0.1211,-0.16406 -0.25391,-0.32031 -0.38281,-0.47656 l -0.38672,-0.46875 -0.41016,-0.45313 -0.20312,-0.22656 c -0.0703,-0.0742 -0.14063,-0.14844 -0.21094,-0.22266 l -0.42578,-0.4375 c -0.14063,-0.14453 -0.29297,-0.28125 -0.44141,-0.42578 l -0.21875,-0.21094 -0.11328,-0.10546 -0.11328,-0.0977 -0.45703,-0.40625 c -0.14844,-0.13672 -0.3086,-0.26563 -0.46875,-0.39453 l -0.46875,-0.39063 -0.48438,-0.37109 c -0.16015,-0.12891 -0.32422,-0.25391 -0.48828,-0.37109 -0.33203,-0.23829 -0.66016,-0.48047 -1.00391,-0.70313 l -0.5039,-0.33984 -0.52344,-0.32813 c -0.33984,-0.22265 -0.69531,-0.42578 -1.04687,-0.63672 -0.17579,-0.10547 -0.35547,-0.20312 -0.53125,-0.30468 l -0.53516,-0.30079 c -0.36719,-0.1875 -0.72266,-0.38281 -1.08984,-0.57031 l -0.55079,-0.26953 -0.27343,-0.13672 -0.28125,-0.13281 c -1.48047,-0.70313 -3,-1.33203 -4.54297,-1.90234 -3.08594,-1.14063 -6.26563,-2.04297 -9.47656,-2.8125 -3.21485,-0.76954 -6.46875,-1.39844 -9.73438,-1.96094 -3.27344,-0.5586 -6.55859,-1.04297 -9.85547,-1.51172 -3.29687,-0.46484 -6.60547,-0.91016 -9.91797,-1.41797 l -2.47656,-0.375 c -0.41016,-0.0664 -0.8125,-0.11719 -1.22266,-0.17578 l -0.60937,-0.0859 -0.61328,-0.082 c -1.64453,-0.21875 -3.29688,-0.42187 -4.95703,-0.63281 -1.66016,-0.21094 -3.32422,-0.4336 -4.9961,-0.6875 -1.67187,-0.25391 -3.34375,-0.55078 -5.01953,-0.90235 -1.67578,-0.35546 -3.35156,-0.76171 -5.01172,-1.28515 l -0.23437,-0.0703 c -0.0156,-0.004 -0.11719,-0.0391 -0.10938,-0.0352 l -0.89062,-0.30469 -1.1836,-0.40234 c -0.19531,-0.0664 -0.39062,-0.13281 -0.58984,-0.20313 l -0.60547,-0.23047 -1.21484,-0.46484 c -0.81641,-0.30078 -1.58985,-0.64062 -2.37891,-0.97266 -0.39062,-0.16406 -0.78515,-0.32812 -1.17578,-0.5 l -1.16016,-0.52734 -1.15625,-0.53125 c -0.38671,-0.17578 -0.76171,-0.36719 -1.14453,-0.55469 -0.76172,-0.37109 -1.52734,-0.73437 -2.27343,-1.125 -3.01563,-1.52343 -5.96094,-3.13672 -8.88672,-4.72656 -2.92188,-1.59766 -5.83203,-3.16406 -8.76953,-4.63672 l -1.09766,-0.55078 c -0.36719,-0.17969 -0.73828,-0.35156 -1.10938,-0.52734 -0.73828,-0.34766 -1.46875,-0.71094 -2.21875,-1.03125 L 215.17969,127.75 c -0.3711,-0.16406 -0.73828,-0.33594 -1.11719,-0.48047 l -1.125,-0.45703 -0.5625,-0.22656 -0.28516,-0.11328 -0.13672,-0.0625 c -0.004,0 -0.004,0 -0.004,0 0,0 -0.004,0 -0.0273,-0.008 l -0.0742,-0.0273 -2.34766,-0.85937 -0.58984,-0.21485 -0.57032,-0.1875 -1.14453,-0.37109 -1.14062,-0.375 c -0.1875,-0.0664 -0.38672,-0.11719 -0.58203,-0.17578 l -0.58204,-0.16797 -1.7539,-0.50781 -0.29688,-0.0859 -0.29297,-0.0781 -2.36328,-0.60547 c -0.19922,-0.0469 -0.39453,-0.10546 -0.59375,-0.14843 l -0.59375,-0.12891 -1.1914,-0.26953 -1.19141,-0.26172 -2.39844,-0.46094 c -0.39843,-0.0781 -0.79687,-0.16015 -1.20312,-0.21875 l -2.41016,-0.39062 -0.30469,-0.0508 -0.30078,-0.0391 -0.60937,-0.082 -1.21094,-0.16406 c -0.40625,-0.0547 -0.80859,-0.11328 -1.21484,-0.16016 l -1.21485,-0.1289 -1.21875,-0.13281 -0.60547,-0.0664 -0.61328,-0.0508 -2.4414,-0.20313 c -0.8125,-0.0547 -1.63282,-0.0937 -2.44922,-0.14453 l -0.60938,-0.0352 c -0.20312,-0.0117 -0.41015,-0.0234 -0.61328,-0.0312 l -2.45312,-0.082 c -0.20313,-0.004 -0.40625,-0.0117 -0.61328,-0.0195 l -3.07032,-0.0312 -2.45312,0.0234 c -0.82031,0.004 -1.64063,0.0352 -2.45703,0.0586 -0.82032,0.0273 -1.64063,0.0469 -2.46094,0.0937 l -2.41797,0.125 -2.5,0.17969 c -0.42187,0.0234 -0.8125,0.0664 -1.21484,0.10547 l -1.20313,0.11328 -0.60156,0.0547 -0.29688,0.0312 -0.30468,0.0352 -1.21485,0.14062 c -6.47265,0.74609 -12.88672,1.99219 -19.21875,3.55859 -3.16406,0.79297 -6.30468,1.67969 -9.42578,2.63282 l -1.16797,0.36328 -0.58593,0.18359 -0.58203,0.1875 -2.32813,0.76172 -2.32031,0.79297 c -0.19141,0.0664 -0.38281,0.13281 -0.57813,0.19922 l -0.57422,0.20703 -1.15625,0.41797 -0.57812,0.20312 -0.28516,0.10547 -0.0742,0.0234 c -0.004,0.004 -0.0937,0.0391 -0.0234,0.0117 l -0.14844,0.0547 -1.16406,0.44922 -1.46094,0.55469 -0.28125,0.11719 -0.55078,0.22656 -1.10547,0.45313 c -0.36719,0.14843 -0.73438,0.29687 -1.10938,0.46093 l -2.24218,0.97266 -2.23828,1.00781 -0.5625,0.25391 -0.5586,0.25781 -2.24219,1.04297 L 100.25,136.4375 98,137.5 c -5.996094,2.85937 -12.105469,5.78906 -18.519531,8.1875 -3.214844,1.1875 -6.5,2.22266 -9.863281,3.05078 l -0.609376,0.14844 -0.300781,0.0703 -0.324219,0.0703 -1.300781,0.27344 c -0.433593,0.0937 -0.855469,0.16016 -1.285156,0.23828 l -0.636719,0.11328 c -0.214844,0.0352 -0.425781,0.0781 -0.640625,0.10938 l -1.28125,0.1914 c -0.214843,0.0312 -0.425781,0.0664 -0.640625,0.0898 l -0.644531,0.0781 -1.285156,0.15235 -1.285157,0.11328 -0.644531,0.0586 -1.929687,0.1211 c -0.429688,0.0234 -0.859375,0.0312 -1.289063,0.0508 l -0.644531,0.0195 c -0.214844,0.0117 -0.425781,0.008 -0.640625,0.0117 l -1.289063,0.0117 c -0.429687,0.004 -0.855468,-0.0117 -1.285156,-0.0156 -0.855468,-0.004 -1.710937,-0.0469 -2.5625,-0.082 l -0.320312,-0.0117 -0.320313,-0.0234 -1.277343,-0.0859 c -0.210938,-0.0117 -0.425782,-0.0273 -0.640626,-0.0469 -0.847656,-0.0781 -1.695312,-0.14453 -2.542968,-0.25 -0.253906,-0.0312 -0.503906,-0.0586 -0.757813,-0.0898 0.164063,0.22265 0.328125,0.44531 0.476563,0.67578 0.5,0.76953 0.929687,1.58203 1.273437,2.43359 0.339844,0.85547 0.589844,1.7461 0.730469,2.65625 0.07031,0.45313 0.109375,0.91016 0.125,1.36719 0.01563,0.46094 0,0.91406 -0.04297,1.36719 -0.04687,0.44922 -0.113281,0.89843 -0.210937,1.33984 -0.04297,0.21875 -0.105469,0.43359 -0.160156,0.64844 -0.0625,0.21484 -0.121094,0.43359 -0.199219,0.64062 -0.117188,0.35157 -0.253907,0.69532 -0.402344,1.03125 0.234375,-0.1875 0.476563,-0.37109 0.722656,-0.55078 0.164063,-0.11719 0.324219,-0.23437 0.488281,-0.35156 0.167969,-0.11719 0.332032,-0.23047 0.5,-0.34375 l 0.246094,-0.17188 c 0.08594,-0.0625 0.167969,-0.11718 0.253906,-0.17578 l 0.5,-0.33984 0.253907,-0.16797 0.253906,-0.16406 c 0.167969,-0.10938 0.335937,-0.21875 0.507813,-0.32813 0.339843,-0.21484 0.683593,-0.42187 1.019531,-0.625 0.429687,-0.2539 0.855469,-0.49218 1.28125,-0.72265 0.46875,-0.375 0.953125,-0.7461 1.464843,-1.11719 0.726563,-0.52344 1.488282,-1.05078 2.289063,-1.57422 0.203125,-0.12891 0.40625,-0.25781 0.609375,-0.39062 0.207031,-0.125 0.414062,-0.25391 0.621094,-0.38282 0.214844,-0.125 0.425781,-0.2539 0.640625,-0.3789 0.21875,-0.125 0.4375,-0.25 0.65625,-0.375 1.761719,-0.99219 3.679687,-1.9336 5.746093,-2.76172 1.03125,-0.41797 2.097657,-0.8086 3.199219,-1.17578 1.097657,-0.36719 2.226563,-0.70313 3.382813,-1.01172 2.3125,-0.6211 4.738281,-1.125 7.238281,-1.53516 1.25,-0.20312 2.519531,-0.38281 3.804687,-0.54297 1.285157,-0.16015 2.589844,-0.30078 3.90625,-0.42187 0.660157,-0.0625 1.320313,-0.11719 1.984376,-0.16797 0.339843,-0.0273 0.675781,-0.0508 1.015624,-0.0781 0.332032,-0.0195 0.664063,-0.043 0.996094,-0.0625 l 0.5,-0.0312 c 0.171875,-0.008 0.347656,-0.0156 0.515625,-0.0234 0.347657,-0.0156 0.691407,-0.0312 1.039063,-0.043 0.683594,-0.0195 1.371094,-0.0508 2.066406,-0.0547 1.382812,-0.0273 2.777344,-0.0117 4.183594,0.0273 0.351562,0.0117 0.703125,0.0234 1.054687,0.0312 0.355469,0.0156 0.707031,0.0312 1.058594,0.0469 0.355469,0.0195 0.707031,0.0391 1.0625,0.0625 0.351566,0.0195 0.707036,0.0391 1.062506,0.0664 2.83593,0.19531 5.69531,0.5039 8.55468,0.89843 5.71485,0.77735 11.41797,1.85938 17.09375,2.7461 1.42188,0.21875 2.83594,0.42187 4.25781,0.61718 1.42969,0.1875 2.85938,0.37891 4.28516,0.56641 1.42578,0.18359 2.85156,0.36719 4.26953,0.53906 1.41797,0.17188 2.83203,0.34375 4.24219,0.5 5.64062,0.64453 11.19531,1.16797 16.57812,1.51563 5.38282,0.35156 10.59375,0.53125 15.53125,0.51562 2.47266,-0.0117 4.875,-0.0664 7.19532,-0.16406 2.32031,-0.0977 4.5625,-0.25 6.70703,-0.42969 2.14844,-0.1875 4.20312,-0.42187 6.15234,-0.67578 1.94922,-0.25781 3.79297,-0.55078 5.51953,-0.85547 1.72657,-0.30859 3.33594,-0.64062 4.82422,-0.96484 0.36719,-0.0859 0.73047,-0.16797 1.08594,-0.25 0.35547,-0.0859 0.70312,-0.16797 1.04297,-0.25 0.33594,-0.082 0.66797,-0.16406 0.98828,-0.24609 0.32422,-0.0859 0.64062,-0.16016 0.94531,-0.2461 0.60938,-0.16406 1.1875,-0.3164 1.72656,-0.47265 0.26954,-0.0781 0.53516,-0.14844 0.78907,-0.22266 0.25,-0.0742 0.49609,-0.14844 0.73047,-0.21875 0.47265,-0.13672 0.90625,-0.27734 1.30468,-0.39844 0.39844,-0.12109 0.75782,-0.24219 1.08203,-0.34375 0.32032,-0.10937 0.60938,-0.19922 0.85157,-0.28125 0.24609,-0.0859 0.45312,-0.15625 0.62109,-0.21094 0.32813,-0.11328 0.50391,-0.17187 0.50391,-0.17187 0,0 -0.16407,0.0781 -0.48438,0.22656 -0.3164,0.14844 -0.78906,0.3711 -1.41406,0.64453 -0.30859,0.13672 -0.65625,0.29297 -1.04297,0.45313 -0.38672,0.16406 -0.80469,0.34375 -1.26562,0.52344 -0.22657,0.0937 -0.46875,0.1914 -0.71094,0.28906 -0.2461,0.0977 -0.50391,0.19531 -0.76953,0.29687 -0.52735,0.20703 -1.09375,0.41016 -1.69141,0.62891 -2.39844,0.86328 -5.35156,1.80469 -8.80078,2.67187 -1.72266,0.44141 -3.57031,0.85938 -5.52734,1.2461 -1.96094,0.39453 -4.03125,0.74609 -6.19922,1.05859 -4.33985,0.625 -9.07422,1.07813 -14.08985,1.3086 -5.01562,0.22656 -10.3164,0.23437 -15.78515,0.0312 -5.46485,-0.19922 -11.10157,-0.60938 -16.8086,-1.17188 -1.42578,-0.14062 -2.85547,-0.28906 -4.28906,-0.44922 -1.43359,-0.15625 -2.86719,-0.32422 -4.30469,-0.49609 -0.71875,-0.0898 -1.4375,-0.17969 -2.16015,-0.26563 -0.71875,-0.0937 -1.4375,-0.18359 -2.15625,-0.27734 L 129.25,154.44922 c -0.36328,-0.0469 -0.72656,-0.0937 -1.08984,-0.14453 -0.72266,-0.10157 -1.44922,-0.21094 -2.16797,-0.32032 -5.78125,-0.88281 -11.45703,-1.98437 -17.03906,-2.78906 -1.39454,-0.20312 -2.78516,-0.38672 -4.16797,-0.55078 -1.38282,-0.16016 -2.75782,-0.30859 -4.12891,-0.41797 -2.734375,-0.23047 -5.441406,-0.35547 -8.105469,-0.36719 -0.667969,-0.008 -1.328125,0.004 -1.992187,0.008 -0.324219,0.008 -0.652344,0.0156 -0.976563,0.0234 -0.164062,0.004 -0.324219,0.004 -0.488281,0.0117 -0.164062,0.004 -0.332031,0.0117 -0.5,0.0156 -0.332031,0.0117 -0.664062,0.0273 -0.996094,0.0391 -0.324218,0.0156 -0.644531,0.0273 -0.96875,0.043 -0.324218,0.0156 -0.652344,0.0352 -0.976562,0.0508 -0.324219,0.0195 -0.648438,0.0352 -0.96875,0.0547 -1.292969,0.0742 -2.566406,0.16797 -3.816406,0.27734 -1.257813,0.10938 -2.492188,0.23828 -3.707032,0.38281 -1.214844,0.14454 -2.40625,0.31641 -3.578125,0.50782 -1.171875,0.1875 -2.316406,0.40625 -3.433593,0.64453 -2.242188,0.48047 -4.378907,1.05469 -6.386719,1.73047 -2.007813,0.67578 -3.898438,1.44531 -5.648438,2.27734 -0.871093,0.41797 -1.714843,0.85156 -2.523437,1.28906 -0.808594,0.44532 -1.578125,0.89453 -2.316406,1.35157 -0.742188,0.45703 -1.449219,0.91015 -2.121094,1.37109 -0.675782,0.45312 -1.316406,0.91016 -1.921875,1.35937 -0.609375,0.44922 -1.1875,0.89063 -1.734375,1.32032 -0.472656,0.375 -0.921875,0.73828 -1.351563,1.09375 -0.0625,0.0625 -0.125,0.125 -0.191406,0.1875 -0.269531,0.25781 -0.523437,0.51953 -0.78125,0.76953 -0.519531,0.49609 -1.023437,0.97265 -1.503906,1.42578 -0.238281,0.22656 -0.464844,0.45312 -0.6875,0.67187 -0.113281,0.10547 -0.226563,0.21094 -0.332031,0.32032 -0.105469,0.10547 -0.207032,0.21093 -0.308594,0.3125 -0.417969,0.40625 -0.78125,0.79687 -1.121094,1.13281 -0.08594,0.082 -0.160156,0.17187 -0.238281,0.25 -0.07813,0.082 -0.152344,0.16406 -0.222657,0.23828 -0.144531,0.14844 -0.28125,0.28516 -0.402343,0.41016 -0.234375,0.25781 -0.425781,0.45703 -0.558594,0.59375 -0.136719,0.13281 -0.210937,0.20312 -0.210937,0.20312 l -0.0039,0.004 c -0.02734,0.0234 -0.0625,0.0352 -0.09766,0.0273 -0.05469,-0.0156 -0.08984,-0.0703 -0.07422,-0.125 0,0 0.02344,-0.10156 0.07813,-0.28515 0.05078,-0.1875 0.132813,-0.45704 0.253907,-0.79688 0.05859,-0.16797 0.136718,-0.34766 0.21875,-0.54687 0.08984,-0.19922 0.175781,-0.42188 0.289062,-0.64063 0.109375,-0.22266 0.238281,-0.45703 0.367188,-0.70703 0.132812,-0.25 0.292968,-0.49609 0.453124,-0.75781 0.08203,-0.13282 0.164063,-0.26172 0.253907,-0.39844 0.08984,-0.13281 0.183593,-0.26172 0.28125,-0.39844 0.199219,-0.26953 0.390625,-0.55078 0.621093,-0.82031 0.148438,-0.19141 0.316407,-0.375 0.484376,-0.56641 0.175781,-0.35937 0.34375,-0.72265 0.492187,-1.08984 0.03516,-0.0977 0.07813,-0.19141 0.109375,-0.28516 l 0.105469,-0.28515 0.05078,-0.14063 0.04687,-0.14453 0.09375,-0.28516 c 0.117187,-0.38671 0.222656,-0.76953 0.296875,-1.16015 0.04297,-0.19531 0.06641,-0.39063 0.101562,-0.58594 0.02344,-0.19531 0.05469,-0.38672 0.06641,-0.58203 0.03906,-0.39063 0.05078,-0.78125 0.03906,-1.16797 0,-0.19141 -0.01563,-0.38281 -0.03125,-0.57422 -0.01953,-0.1914 -0.03906,-0.38281 -0.06641,-0.57031 -0.05859,-0.38281 -0.136719,-0.75391 -0.234375,-1.125 -0.101562,-0.36719 -0.226562,-0.72656 -0.371094,-1.07813 -0.140625,-0.35156 -0.304687,-0.69531 -0.480468,-1.03515 -0.359376,-0.67188 -0.789063,-1.3086 -1.273438,-1.90625 -0.480469,-0.59766 -1.019531,-1.15235 -1.589844,-1.66797 -0.289062,-0.25781 -0.582031,-0.50391 -0.886718,-0.73438 -0.148438,-0.11328 -0.300782,-0.22656 -0.453126,-0.33593 -0.07812,-0.0547 -0.15625,-0.10547 -0.230468,-0.15235 l -0.109375,-0.0742 -0.05469,-0.0312 c -0.01172,-0.0117 -0.03906,-0.0234 -0.03516,-0.0234 l 1.03125,-2.76953"
         fill-opacity="1"
         fill-rule="nonzero"
         id="path15"
         style="fill:#ffffff" />
    </g>
    <g
       fill="#ffffff"
       fill-opacity="1"
       id="g25"
       style="fill:#ffffff"
       transform="translate(-38.29649,-113.57422)">
      <g
         transform="translate(37.510053,217.63195)"
         id="g23"
         style="fill:#ffffff">
        <g
           id="g21"
           style="fill:#ffffff">
          <path
             d="m 8.65625,0.328125 c -2.5,0 -4.359375,-0.878906 -5.578125,-2.640625 C 1.859375,-4.070312 1.25,-6.738281 1.25,-10.3125 v -14.890625 c 0,-3.195313 0.707031,-5.613281 2.125,-7.25 1.425781,-1.632813 3.550781,-2.453125 6.375,-2.453125 2.28125,0 4.050781,0.460938 5.3125,1.375 1.257812,0.90625 2.128906,2.234375 2.609375,3.984375 0.488281,1.742187 0.734375,3.980469 0.734375,6.71875 H 11.640625 V -25.9375 c 0,-0.820312 -0.117187,-1.460938 -0.34375,-1.921875 -0.230469,-0.457031 -0.640625,-0.6875 -1.234375,-0.6875 -1.3125,0 -1.96875,0.859375 -1.96875,2.578125 v 16.75 c 0,1.042969 0.132812,1.835938 0.40625,2.375 0.269531,0.53125 0.738281,0.796875 1.40625,0.796875 0.664062,0 1.132812,-0.265625 1.40625,-0.796875 0.269531,-0.539062 0.40625,-1.332031 0.40625,-2.375 v -4.953125 H 9.859375 V -20.125 h 8.46875 V 0 h -2.78125 L 14.375,-2.90625 C 13.132812,-0.75 11.226562,0.328125 8.65625,0.328125 Z m 0,0"
             id="path19"
             style="fill:#ffffff" />
        </g>
      </g>
    </g>
    <g
       fill="#ffffff"
       fill-opacity="1"
       id="g33"
       style="fill:#ffffff"
       transform="translate(-38.29649,-113.57422)">
      <g
         transform="translate(58.488691,217.63195)"
         id="g31"
         style="fill:#ffffff">
        <g
           id="g29"
           style="fill:#ffffff">
          <path
             d="M 1.53125,0 V -34.59375 H 15.375 v 6.6875 H 8.578125 v 6.734375 h 6.515625 v 6.515625 H 8.578125 v 7.9375 h 7.25 V 0 Z m 0,0"
             id="path27"
             style="fill:#ffffff" />
        </g>
      </g>
    </g>
    <g
       fill="#ffffff"
       fill-opacity="1"
       id="g41"
       style="fill:#ffffff"
       transform="translate(-38.29649,-113.57422)">
      <g
         transform="translate(76.527937,217.63195)"
         id="g39"
         style="fill:#ffffff">
        <g
           id="g37"
           style="fill:#ffffff">
          <path
             d="m 9.78125,0.328125 c -2.792969,0 -4.914062,-0.851563 -6.359375,-2.5625 C 1.972656,-3.941406 1.25,-6.335938 1.25,-9.421875 v -16.46875 c 0,-2.976563 0.722656,-5.222656 2.171875,-6.734375 1.445313,-1.519531 3.566406,-2.28125 6.359375,-2.28125 2.789062,0 4.910156,0.761719 6.359375,2.28125 1.457031,1.511719 2.1875,3.757812 2.1875,6.734375 v 16.46875 c 0,3.117187 -0.730469,5.523437 -2.1875,7.21875 -1.449219,1.6875 -3.570313,2.53125 -6.359375,2.53125 z m 0,-6.375 c 0.613281,0 1.03125,-0.265625 1.25,-0.796875 0.21875,-0.539062 0.328125,-1.289062 0.328125,-2.25 v -16.921875 c 0,-0.75 -0.105469,-1.359375 -0.3125,-1.828125 -0.199219,-0.46875 -0.605469,-0.703125 -1.21875,-0.703125 -1.15625,0 -1.734375,0.871094 -1.734375,2.609375 v 16.875 c 0,1 0.117188,1.757812 0.359375,2.265625 0.238281,0.5 0.679687,0.75 1.328125,0.75 z m 0,0"
             id="path35"
             style="fill:#ffffff" />
        </g>
      </g>
    </g>
    <g
       fill="#ffffff"
       fill-opacity="1"
       id="g49"
       style="fill:#ffffff"
       transform="translate(-38.29649,-113.57422)">
      <g
         transform="translate(97.546847,217.63195)"
         id="g47"
         style="fill:#ffffff">
        <g
           id="g45"
           style="fill:#ffffff">
          <path
             d="m 1.53125,-34.59375 h 10.625 c 1.695312,0 3.003906,0.386719 3.921875,1.15625 0.925781,0.761719 1.550781,1.835938 1.875,3.21875 0.320313,1.386719 0.484375,3.152344 0.484375,5.296875 0,1.960937 -0.257812,3.492187 -0.765625,4.59375 -0.511719,1.09375 -1.398437,1.859375 -2.65625,2.296875 1.050781,0.210938 1.8125,0.730469 2.28125,1.5625 C 17.765625,-15.632812 18,-14.507812 18,-13.09375 L 17.921875,0 H 11.15625 v -13.53125 c 0,-0.96875 -0.1875,-1.582031 -0.5625,-1.84375 -0.375,-0.269531 -1.0625,-0.40625 -2.0625,-0.40625 V 0 h -7 z m 8.703125,12.8125 c 0.957031,0 1.4375,-1.046875 1.4375,-3.140625 0,-0.914063 -0.04297,-1.597656 -0.125,-2.046875 -0.07422,-0.457031 -0.21875,-0.773438 -0.4375,-0.953125 C 10.898438,-28.097656 10.59375,-28.1875 10.1875,-28.1875 H 8.578125 v 6.40625 z m 0,0"
             id="path43"
             style="fill:#ffffff" />
        </g>
      </g>
    </g>
    <g
       fill="#ffffff"
       fill-opacity="1"
       id="g57"
       style="fill:#ffffff"
       transform="translate(-38.29649,-113.57422)">
      <g
         transform="translate(118.20337,217.63195)"
         id="g55"
         style="fill:#ffffff">
        <g
           id="g53"
           style="fill:#ffffff">
          <path
             d="m 8.65625,0.328125 c -2.5,0 -4.359375,-0.878906 -5.578125,-2.640625 C 1.859375,-4.070312 1.25,-6.738281 1.25,-10.3125 v -14.890625 c 0,-3.195313 0.707031,-5.613281 2.125,-7.25 1.425781,-1.632813 3.550781,-2.453125 6.375,-2.453125 2.28125,0 4.050781,0.460938 5.3125,1.375 1.257812,0.90625 2.128906,2.234375 2.609375,3.984375 0.488281,1.742187 0.734375,3.980469 0.734375,6.71875 H 11.640625 V -25.9375 c 0,-0.820312 -0.117187,-1.460938 -0.34375,-1.921875 -0.230469,-0.457031 -0.640625,-0.6875 -1.234375,-0.6875 -1.3125,0 -1.96875,0.859375 -1.96875,2.578125 v 16.75 c 0,1.042969 0.132812,1.835938 0.40625,2.375 0.269531,0.53125 0.738281,0.796875 1.40625,0.796875 0.664062,0 1.132812,-0.265625 1.40625,-0.796875 0.269531,-0.539062 0.40625,-1.332031 0.40625,-2.375 v -4.953125 H 9.859375 V -20.125 h 8.46875 V 0 h -2.78125 L 14.375,-2.90625 C 13.132812,-0.75 11.226562,0.328125 8.65625,0.328125 Z m 0,0"
             id="path51"
             style="fill:#ffffff" />
        </g>
      </g>
    </g>
    <g
       fill="#ffffff"
       fill-opacity="1"
       id="g65"
       style="fill:#ffffff"
       transform="translate(-38.29649,-113.57422)">
      <g
         transform="translate(139.18201,217.63195)"
         id="g63"
         style="fill:#ffffff">
        <g
           id="g61"
           style="fill:#ffffff">
          <path
             d="m 1.203125,0 v -34.59375 h 6.6875 V 0 Z m 0,0"
             id="path59"
             style="fill:#ffffff" />
        </g>
      </g>
    </g>
    <g
       fill="#ffffff"
       fill-opacity="1"
       id="g73"
       style="fill:#ffffff"
       transform="translate(-38.29649,-113.57422)">
      <g
         transform="translate(149.7721,217.63195)"
         id="g71"
         style="fill:#ffffff">
        <g
           id="g69"
           style="fill:#ffffff">
          <path
             d="m 0.609375,0 3.34375,-34.59375 H 15.65625 L 18.96875,0 h -6.5625 l -0.484375,-5.59375 h -4.1875 L 7.328125,0 Z M 8.25,-11.109375 h 3.140625 l -1.53125,-17.59375 h -0.3125 z m 0,0"
             id="path67"
             style="fill:#ffffff" />
        </g>
      </g>
    </g>
    <g
       fill="#ffffff"
       fill-opacity="1"
       id="g87"
       style="fill:#ffffff"
       transform="translate(-38.29649,-113.57422)">
      <g
         transform="translate(181.6227,217.63195)"
         id="g85"
         style="fill:#ffffff">
        <g
           id="g83"
           style="fill:#ffffff">
          <path
             d="M 1.53125,0 V -34.59375 H 8.453125 V -5.875 h 7.125 V 0 Z m 0,0"
             id="path81"
             style="fill:#ffffff" />
        </g>
      </g>
    </g>
    <g
       fill="#ffffff"
       fill-opacity="1"
       id="g95"
       style="fill:#ffffff"
       transform="translate(-38.29649,-113.57422)">
      <g
         transform="translate(199.05795,217.63195)"
         id="g93"
         style="fill:#ffffff">
        <g
           id="g91"
           style="fill:#ffffff">
          <path
             d="m 1.203125,0 v -34.59375 h 6.6875 V 0 Z m 0,0"
             id="path89"
             style="fill:#ffffff" />
        </g>
      </g>
    </g>
    <g
       fill="#ffffff"
       fill-opacity="1"
       id="g103"
       style="fill:#ffffff"
       transform="translate(-38.29649,-113.57422)">
      <g
         transform="translate(209.64804,217.63195)"
         id="g101"
         style="fill:#ffffff">
        <g
           id="g99"
           style="fill:#ffffff">
          <path
             d="M 1.53125,0 V -34.59375 H 8.375 v 13.859375 L 11.59375,-34.59375 H 18.5625 L 14.703125,-18.765625 19.375,0 H 12.203125 L 8.421875,-16.75 V 0 Z m 0,0"
             id="path97"
             style="fill:#ffffff" />
        </g>
      </g>
    </g>
    <g
       fill="#ffffff"
       fill-opacity="1"
       id="g111"
       style="fill:#ffffff"
       transform="translate(-38.29649,-113.57422)">
      <g
         transform="translate(230.10323,217.63195)"
         id="g109"
         style="fill:#ffffff">
        <g
           id="g107"
           style="fill:#ffffff">
          <path
             d="M 1.53125,0 V -34.59375 H 15.375 v 6.6875 H 8.578125 v 6.734375 h 6.515625 v 6.515625 H 8.578125 v 7.9375 h 7.25 V 0 Z m 0,0"
             id="path105"
             style="fill:#ffffff" />
        </g>
      </g>
    </g>
    <g
       fill="#ffffff"
       fill-opacity="1"
       id="g125"
       style="fill:#ffffff"
       transform="translate(-38.29649,-113.57422)">
      <g
         transform="translate(259.01444,217.63195)"
         id="g123"
         style="fill:#ffffff">
        <g
           id="g121"
           style="fill:#ffffff">
          <path
             d="m 0.609375,0 3.34375,-34.59375 H 15.65625 L 18.96875,0 h -6.5625 l -0.484375,-5.59375 h -4.1875 L 7.328125,0 Z M 8.25,-11.109375 h 3.140625 l -1.53125,-17.59375 h -0.3125 z m 0,0"
             id="path119"
             style="fill:#ffffff" />
        </g>
      </g>
    </g>
    <g
       fill="#ffffff"
       fill-opacity="1"
       id="g133"
       style="fill:#ffffff"
       transform="translate(-38.29649,-113.57422)">
      <g
         transform="translate(279.99308,217.63195)"
         id="g131"
         style="fill:#ffffff">
        <g
           id="g129"
           style="fill:#ffffff">
          <path
             d="m 9.546875,0.328125 c -2.84375,0 -4.960937,-0.804687 -6.34375,-2.421875 C 1.816406,-3.707031 1.125,-6.097656 1.125,-9.265625 V -34.59375 h 6.734375 v 25.046875 c 0,1.105469 0.101563,1.964844 0.3125,2.578125 0.21875,0.617188 0.675781,0.921875 1.375,0.921875 0.695313,0 1.148437,-0.300781 1.359375,-0.90625 0.21875,-0.601563 0.328125,-1.46875 0.328125,-2.59375 V -34.59375 h 6.71875 v 25.328125 c 0,3.167969 -0.695313,5.558594 -2.078125,7.171875 -1.375,1.617188 -3.484375,2.421875 -6.328125,2.421875 z m 0,0"
             id="path127"
             style="fill:#ffffff" />
        </g>
      </g>
    </g>
    <g
       fill="#ffffff"
       fill-opacity="1"
       id="g141"
       style="fill:#ffffff"
       transform="translate(-38.29649,-113.57422)">
      <g
         transform="translate(300.52879,217.63195)"
         id="g139"
         style="fill:#ffffff">
        <g
           id="g137"
           style="fill:#ffffff">
          <path
             d="M 4.515625,0 V -27.9375 H 0.40625 v -6.65625 h 15.140625 v 6.65625 H 11.4375 V 0 Z m 0,0"
             id="path135"
             style="fill:#ffffff" />
        </g>
      </g>
    </g>
    <g
       fill="#ffffff"
       fill-opacity="1"
       id="g149"
       style="fill:#ffffff"
       transform="translate(-38.29649,-113.57422)">
      <g
         transform="translate(317.92379,217.63195)"
         id="g147"
         style="fill:#ffffff">
        <g
           id="g145"
           style="fill:#ffffff">
          <path
             d="m 9.78125,0.328125 c -2.792969,0 -4.914062,-0.851563 -6.359375,-2.5625 C 1.972656,-3.941406 1.25,-6.335938 1.25,-9.421875 v -16.46875 c 0,-2.976563 0.722656,-5.222656 2.171875,-6.734375 1.445313,-1.519531 3.566406,-2.28125 6.359375,-2.28125 2.789062,0 4.910156,0.761719 6.359375,2.28125 1.457031,1.511719 2.1875,3.757812 2.1875,6.734375 v 16.46875 c 0,3.117187 -0.730469,5.523437 -2.1875,7.21875 -1.449219,1.6875 -3.570313,2.53125 -6.359375,2.53125 z m 0,-6.375 c 0.613281,0 1.03125,-0.265625 1.25,-0.796875 0.21875,-0.539062 0.328125,-1.289062 0.328125,-2.25 v -16.921875 c 0,-0.75 -0.105469,-1.359375 -0.3125,-1.828125 -0.199219,-0.46875 -0.605469,-0.703125 -1.21875,-0.703125 -1.15625,0 -1.734375,0.871094 -1.734375,2.609375 v 16.875 c 0,1 0.117188,1.757812 0.359375,2.265625 0.238281,0.5 0.679687,0.75 1.328125,0.75 z m 0,0"
             id="path143"
             style="fill:#ffffff" />
        </g>
      </g>
    </g>
    <g
       fill="#ffffff"
       fill-opacity="1"
       id="g157"
       style="fill:#ffffff"
       transform="translate(-38.29649,-113.57422)">
      <g
         transform="translate(96.088185,248.98074)"
         id="g155"
         style="fill:#ffffff">
        <g
           id="g153"
           style="fill:#ffffff">
          <path
             d="m 9.734375,-14.796875 c -1.417969,0 -2.511719,0.53125 -3.28125,1.59375 -0.773437,1.054687 -1.15625,2.527344 -1.15625,4.421875 0,3.9375 1.476563,5.90625 4.4375,5.90625 1.238281,0 2.738281,-0.3125 4.5,-0.9375 v 3.140625 C 12.785156,-0.0664062 11.164062,0.234375 9.375,0.234375 6.800781,0.234375 4.832031,-0.539062 3.46875,-2.09375 2.113281,-3.65625 1.4375,-5.894531 1.4375,-8.8125 c 0,-1.832031 0.332031,-3.4375 1,-4.8125 0.664062,-1.382812 1.625,-2.445312 2.875,-3.1875 1.257812,-0.738281 2.734375,-1.109375 4.421875,-1.109375 1.707031,0 3.429687,0.417969 5.171875,1.25 L 13.6875,-13.625 c -0.65625,-0.320312 -1.324219,-0.597656 -2,-0.828125 -0.667969,-0.226563 -1.320312,-0.34375 -1.953125,-0.34375 z m 0,0"
             id="path151"
             style="fill:#ffffff" />
        </g>
      </g>
    </g>
    <g
       fill="#ffffff"
       fill-opacity="1"
       id="g165"
       style="fill:#ffffff"
       transform="translate(-38.29649,-113.57422)">
      <g
         transform="translate(115.15137,248.98074)"
         id="g163"
         style="fill:#ffffff">
        <g
           id="g161"
           style="fill:#ffffff">
          <path
             d="M 10.515625,0 9.796875,-1.84375 H 9.703125 C 9.085938,-1.0625 8.445312,-0.519531 7.78125,-0.21875 7.125,0.0820312 6.269531,0.234375 5.21875,0.234375 c -1.292969,0 -2.3125,-0.367187 -3.0625,-1.109375 -0.742188,-0.738281 -1.109375,-1.789062 -1.109375,-3.15625 0,-1.4375 0.5,-2.492188 1.5,-3.171875 1,-0.6875 2.507813,-1.066406 4.53125,-1.140625 l 2.34375,-0.0625 V -9 c 0,-1.375 -0.699219,-2.0625 -2.09375,-2.0625 -1.085937,0 -2.355469,0.328125 -3.8125,0.984375 L 2.296875,-12.5625 c 1.550781,-0.8125 3.273437,-1.21875 5.171875,-1.21875 1.8125,0 3.203125,0.398438 4.171875,1.1875 0.96875,0.78125 1.453125,1.980469 1.453125,3.59375 V 0 Z M 9.421875,-6.265625 8,-6.21875 c -1.074219,0.042969 -1.871094,0.242188 -2.390625,0.59375 -0.523437,0.355469 -0.78125,0.890625 -0.78125,1.609375 0,1.042969 0.59375,1.5625 1.78125,1.5625 0.851563,0 1.535156,-0.242187 2.046875,-0.734375 0.507812,-0.488281 0.765625,-1.140625 0.765625,-1.953125 z m 0,0"
             id="path159"
             style="fill:#ffffff" />
        </g>
      </g>
    </g>
    <g
       fill="#ffffff"
       fill-opacity="1"
       id="g173"
       style="fill:#ffffff"
       transform="translate(-38.29649,-113.57422)">
      <g
         transform="translate(133.39277,248.98074)"
         id="g171"
         style="fill:#ffffff">
        <g
           id="g169"
           style="fill:#ffffff">
          <path
             d="m 9.46875,-13.765625 c 0.5,0 0.914062,0.03906 1.25,0.109375 l -0.28125,3.453125 c -0.292969,-0.08203 -0.652344,-0.125 -1.078125,-0.125 -1.179687,0 -2.09375,0.304687 -2.75,0.90625 C 5.953125,-8.816406 5.625,-7.96875 5.625,-6.875 V 0 H 1.9375 v -13.515625 h 2.78125 l 0.546875,2.28125 h 0.1875 c 0.414063,-0.757813 0.976563,-1.367187 1.6875,-1.828125 0.71875,-0.46875 1.492187,-0.703125 2.328125,-0.703125 z m 0,0"
             id="path167"
             style="fill:#ffffff" />
        </g>
      </g>
    </g>
    <g
       fill="#ffffff"
       fill-opacity="1"
       id="g187"
       style="fill:#ffffff"
       transform="translate(-38.29649,-113.57422)">
      <g
         transform="translate(157.6456,248.98074)"
         id="g185"
         style="fill:#ffffff">
        <g
           id="g183"
           style="fill:#ffffff">
          <path
             d="m 12.65625,-4.90625 c 0,1.59375 -0.578125,2.851562 -1.734375,3.765625 -1.148437,0.917969 -2.742187,1.375 -4.78125,1.375 -1.886719,0 -3.554687,-0.351563 -5,-1.0625 v -3.46875 c 1.1875,0.53125 2.191406,0.90625 3.015625,1.125 0.832031,0.210937 1.585938,0.3125 2.265625,0.3125 0.820313,0 1.453125,-0.15625 1.890625,-0.46875 0.445312,-0.3125 0.671875,-0.773437 0.671875,-1.390625 0,-0.351562 -0.101563,-0.660156 -0.296875,-0.921875 C 8.5,-5.910156 8.21875,-6.171875 7.84375,-6.421875 7.46875,-6.671875 6.703125,-7.070312 5.546875,-7.625 4.460938,-8.132812 3.648438,-8.617188 3.109375,-9.078125 c -0.53125,-0.46875 -0.960937,-1.015625 -1.28125,-1.640625 -0.324219,-0.625 -0.484375,-1.347656 -0.484375,-2.171875 0,-1.5625 0.523438,-2.789063 1.578125,-3.6875 1.0625,-0.894531 2.53125,-1.34375 4.40625,-1.34375 0.914063,0 1.789063,0.109375 2.625,0.328125 0.832031,0.21875 1.703125,0.527344 2.609375,0.921875 l -1.203125,2.90625 c -0.9375,-0.382813 -1.71875,-0.648437 -2.34375,-0.796875 -0.617187,-0.15625 -1.21875,-0.234375 -1.8125,-0.234375 -0.710937,0 -1.257813,0.167969 -1.640625,0.5 -0.375,0.324219 -0.5625,0.75 -0.5625,1.28125 0,0.335937 0.078125,0.625 0.234375,0.875 0.15625,0.242187 0.398437,0.476563 0.734375,0.703125 0.332031,0.230469 1.125,0.640625 2.375,1.234375 1.644531,0.792969 2.773438,1.585937 3.390625,2.375 0.613281,0.792969 0.921875,1.765625 0.921875,2.921875 z m 0,0"
             id="path181"
             style="fill:#ffffff" />
        </g>
      </g>
    </g>
    <g
       fill="#ffffff"
       fill-opacity="1"
       id="g195"
       style="fill:#ffffff"
       transform="translate(-38.29649,-113.57422)">
      <g
         transform="translate(174.56975,248.98074)"
         id="g193"
         style="fill:#ffffff">
        <g
           id="g191"
           style="fill:#ffffff">
          <path
             d="m 7.53125,-11.140625 c -0.78125,0 -1.398438,0.25 -1.84375,0.75 -0.4375,0.492187 -0.6875,1.1875 -0.75,2.09375 h 5.171875 c -0.02344,-0.90625 -0.261719,-1.601563 -0.71875,-2.09375 -0.460937,-0.5 -1.078125,-0.75 -1.859375,-0.75 z m 0.515625,11.375 C 5.867188,0.234375 4.164062,-0.363281 2.9375,-1.5625 1.71875,-2.757812 1.109375,-4.457031 1.109375,-6.65625 c 0,-2.269531 0.5625,-4.019531 1.6875,-5.25 C 3.929688,-13.144531 5.5,-13.765625 7.5,-13.765625 c 1.914062,0 3.40625,0.546875 4.46875,1.640625 1.0625,1.085938 1.59375,2.585938 1.59375,4.5 v 1.78125 H 4.84375 c 0.039062,1.054688 0.347656,1.875 0.921875,2.46875 0.582031,0.585938 1.398437,0.875 2.453125,0.875 0.8125,0 1.578125,-0.082031 2.296875,-0.25 0.726563,-0.175781 1.488281,-0.445312 2.28125,-0.8125 v 2.84375 C 12.148438,-0.394531 11.457031,-0.15625 10.71875,0 9.988281,0.15625 9.097656,0.234375 8.046875,0.234375 Z m 0,0"
             id="path189"
             style="fill:#ffffff" />
        </g>
      </g>
    </g>
    <g
       fill="#ffffff"
       fill-opacity="1"
       id="g203"
       style="fill:#ffffff"
       transform="translate(-38.29649,-113.57422)">
      <g
         transform="translate(192.48485,248.98074)"
         id="g201"
         style="fill:#ffffff">
        <g
           id="g199"
           style="fill:#ffffff">
          <path
             d="m 9.46875,-13.765625 c 0.5,0 0.914062,0.03906 1.25,0.109375 l -0.28125,3.453125 c -0.292969,-0.08203 -0.652344,-0.125 -1.078125,-0.125 -1.179687,0 -2.09375,0.304687 -2.75,0.90625 C 5.953125,-8.816406 5.625,-7.96875 5.625,-6.875 V 0 H 1.9375 v -13.515625 h 2.78125 l 0.546875,2.28125 h 0.1875 c 0.414063,-0.757813 0.976563,-1.367187 1.6875,-1.828125 0.71875,-0.46875 1.492187,-0.703125 2.328125,-0.703125 z m 0,0"
             id="path197"
             style="fill:#ffffff" />
        </g>
      </g>
    </g>
    <g
       fill="#ffffff"
       fill-opacity="1"
       id="g211"
       style="fill:#ffffff"
       transform="translate(-38.29649,-113.57422)">
      <g
         transform="translate(207.01617,248.98074)"
         id="g209"
         style="fill:#ffffff">
        <g
           id="g207"
           style="fill:#ffffff">
          <path
             d="M 5.140625,0 0,-13.515625 H 3.859375 L 6.46875,-5.8125 c 0.289062,0.980469 0.472656,1.902344 0.546875,2.765625 h 0.0625 C 7.117188,-3.816406 7.300781,-4.738281 7.625,-5.8125 l 2.59375,-7.703125 h 3.859375 L 8.9375,0 Z m 0,0"
             id="path205"
             style="fill:#ffffff" />
        </g>
      </g>
    </g>
    <g
       fill="#ffffff"
       fill-opacity="1"
       id="g219"
       style="fill:#ffffff"
       transform="translate(-38.29649,-113.57422)">
      <g
         transform="translate(224.38746,248.98074)"
         id="g217"
         style="fill:#ffffff">
        <g
           id="g215"
           style="fill:#ffffff">
          <path
             d="m 1.78125,-17 c 0,-1.195312 0.664062,-1.796875 2,-1.796875 1.332031,0 2,0.601563 2,1.796875 0,0.574219 -0.167969,1.023438 -0.5,1.34375 -0.335938,0.3125 -0.835938,0.46875 -1.5,0.46875 -1.335938,0 -2,-0.601562 -2,-1.8125 z M 5.625,0 H 1.9375 V -13.515625 H 5.625 Z m 0,0"
             id="path213"
             style="fill:#ffffff" />
        </g>
      </g>
    </g>
    <g
       fill="#ffffff"
       fill-opacity="1"
       id="g227"
       style="fill:#ffffff"
       transform="translate(-38.29649,-113.57422)">
      <g
         transform="translate(235.23286,248.98074)"
         id="g225"
         style="fill:#ffffff">
        <g
           id="g223"
           style="fill:#ffffff">
          <path
             d="m 7.421875,0.234375 c -4.210937,0 -6.3125,-2.304687 -6.3125,-6.921875 0,-2.289062 0.570313,-4.039062 1.71875,-5.25 1.144531,-1.21875 2.785156,-1.828125 4.921875,-1.828125 1.5625,0 2.960938,0.308594 4.203125,0.921875 L 10.859375,-10 C 10.285156,-10.226562 9.75,-10.414062 9.25,-10.5625 c -0.5,-0.15625 -1,-0.234375 -1.5,-0.234375 -1.917969,0 -2.875,1.367187 -2.875,4.09375 0,2.636719 0.957031,3.953125 2.875,3.953125 0.707031,0 1.363281,-0.09375 1.96875,-0.28125 0.601562,-0.1875 1.207031,-0.484375 1.8125,-0.890625 v 3.15625 c -0.59375,0.386719 -1.199219,0.648437 -1.8125,0.78125 -0.605469,0.144531 -1.371094,0.21875 -2.296875,0.21875 z m 0,0"
             id="path221"
             style="fill:#ffffff" />
        </g>
      </g>
    </g>
    <g
       fill="#ffffff"
       fill-opacity="1"
       id="g235"
       style="fill:#ffffff"
       transform="translate(-38.29649,-113.57422)">
      <g
         transform="translate(251.25063,248.98074)"
         id="g233"
         style="fill:#ffffff">
        <g
           id="g231"
           style="fill:#ffffff">
          <path
             d="m 7.53125,-11.140625 c -0.78125,0 -1.398438,0.25 -1.84375,0.75 -0.4375,0.492187 -0.6875,1.1875 -0.75,2.09375 h 5.171875 c -0.02344,-0.90625 -0.261719,-1.601563 -0.71875,-2.09375 -0.460937,-0.5 -1.078125,-0.75 -1.859375,-0.75 z m 0.515625,11.375 C 5.867188,0.234375 4.164062,-0.363281 2.9375,-1.5625 1.71875,-2.757812 1.109375,-4.457031 1.109375,-6.65625 c 0,-2.269531 0.5625,-4.019531 1.6875,-5.25 C 3.929688,-13.144531 5.5,-13.765625 7.5,-13.765625 c 1.914062,0 3.40625,0.546875 4.46875,1.640625 1.0625,1.085938 1.59375,2.585938 1.59375,4.5 v 1.78125 H 4.84375 c 0.039062,1.054688 0.347656,1.875 0.921875,2.46875 0.582031,0.585938 1.398437,0.875 2.453125,0.875 0.8125,0 1.578125,-0.082031 2.296875,-0.25 0.726563,-0.175781 1.488281,-0.445312 2.28125,-0.8125 v 2.84375 C 12.148438,-0.394531 11.457031,-0.15625 10.71875,0 9.988281,0.15625 9.097656,0.234375 8.046875,0.234375 Z m 0,0"
             id="path229"
             style="fill:#ffffff" />
        </g>
      </g>
    </g>
  </g>
</svg>
