<?xml version="1.0" encoding="iso-8859-1"?>
<!-- Uploaded to: SVG Repo, www.svgrepo.com, Generator: SVG Repo Mixer Tools -->
<svg fill="#000000" version="1.1" id="Layer_1" xmlns="http://www.w3.org/2000/svg" xmlns:xlink="http://www.w3.org/1999/xlink" 
	 viewBox="0 0 295.991 295.991" xml:space="preserve">
<g>
	<g>
		<g>
			<path d="M286.091,167.419V63.781l9.523-19.048V0.752h-57.143v43.981l9.524,19.048v103.638h-9.524v104.762
				c0,13.129,10.681,23.81,23.81,23.81h9.524c13.129,0,23.81-10.681,23.81-23.81V167.419H286.091z M271.804,286.467h-9.524
				c-7.876,0-14.286-6.41-14.286-14.286v-95.238h38.095v95.238h0.001C286.09,280.057,279.68,286.467,271.804,286.467z
				 M286.09,42.485l-9.524,19.048v105.886h-19.047V61.533l-9.524-19.048v-32.21h38.095V42.485z"/>
			<rect x="262.281" y="186.467" width="9.524" height="9.524"/>
			<rect x="262.281" y="205.662" width="9.524" height="9.524"/>
			<rect x="262.281" y="224.562" width="9.524" height="9.524"/>
			<path d="M200.376,105.514c0-31.738-14.581-60.895-39.995-79.995l-7.624-5.729v10.771L100.376,0L47.995,30.557V19.79l-7.624,5.724
				c-25.414,19.095-39.995,48.252-39.995,80c0,40.005,23.667,74.5,57.686,90.476h-0.543v100h9.524v-96.31
				c10.443,3.71,21.633,5.833,33.333,5.833c11.7,0,22.89-2.124,33.333-5.833v96.31h9.524v-100h-0.543
				C176.71,180.014,200.376,145.519,200.376,105.514z M47.995,41.581l52.381-30.552l52.381,30.557v65.962l-52.381,30.557
				l-52.381-30.557V41.581z M47.995,118.567l52.381,30.557l52.381-30.557v8.024l-52.381,30.557L47.995,126.59V118.567z
				 M100.376,195.99c-49.89,0-90.476-40.585-90.476-90.476c0-25.386,10.3-48.938,28.571-65.995v73.495v19.048l61.905,36.11
				l61.905-36.11v-19.048V39.519c18.267,17.062,28.571,40.619,28.571,65.995C190.852,155.404,150.266,195.99,100.376,195.99z"/>
			<polygon points="105.138,110.276 105.138,76.943 138.471,76.943 138.471,67.419 105.138,67.419 105.138,34.086 95.614,34.086 
				95.614,67.419 62.281,67.419 62.281,76.943 95.614,76.943 95.614,110.276 			"/>
			<path d="M155.319,210.814l4.405,8.443c31.386-16.367,54.819-45.21,64.29-79.133l-9.176-2.562
				C206.071,168.967,184.381,195.667,155.319,210.814z"/>
			<path d="M155.319,239.386l4.405,8.443c9.662-5.038,19.543-11.619,29.367-19.567l-5.99-7.405
				C173.767,228.41,164.419,234.643,155.319,239.386z"/>
			<rect x="76.567" y="215.038" width="9.524" height="9.524"/>
			<rect x="76.567" y="234.086" width="9.524" height="9.524"/>
			<path d="M179.424,1.705l-5.714,7.619c20.605,15.457,34.443,35.429,41.129,59.376l9.176-2.562
				C216.748,40.124,201.748,18.448,179.424,1.705z"/>
		</g>
	</g>
</g>
</svg>