<?xml version="1.0" encoding="iso-8859-1"?>
<!-- Uploaded to: SVG Repo, www.svgrepo.com, Generator: SVG Repo Mixer Tools -->
<!DOCTYPE svg PUBLIC "-//W3C//DTD SVG 1.1//EN" "http://www.w3.org/Graphics/SVG/1.1/DTD/svg11.dtd">
<svg fill="#000000" height="800px" width="800px" version="1.1" id="Capa_1" xmlns="http://www.w3.org/2000/svg" xmlns:xlink="http://www.w3.org/1999/xlink" 
	 viewBox="0 0 297 297" xml:space="preserve">
<g>
	<path d="M264.124,72.473h-6.585V32.959c0-3.819-2.174-7.303-5.603-8.984C219.92,8.291,184.152,0,148.5,0S77.08,8.291,45.064,23.975
		c-3.429,1.68-5.603,5.165-5.603,8.984v39.514h-6.585c-14.572,0-26.426,11.855-26.426,26.426v33.178
		c0,14.572,11.855,26.426,26.426,26.426h6.585v105.538c0,3.819,2.174,7.303,5.603,8.984C77.08,288.71,112.848,297,148.5,297
		s71.42-8.29,103.436-23.974c3.429-1.68,5.603-5.165,5.603-8.984V158.504h6.585c14.572,0,26.426-11.855,26.426-26.426V98.9
		C290.551,84.328,278.696,72.473,264.124,72.473z M59.468,75.974h178.064v65.189H59.468V75.974z M59.468,39.294
		c56.917-25.929,121.147-25.929,178.064,0v16.673H59.468V39.294z M26.456,132.078V98.9c0-3.539,2.88-6.419,6.419-6.419h6.585v46.016
		h-6.585C29.336,138.497,26.456,135.617,26.456,132.078z M237.532,257.707c-56.917,25.929-121.147,25.929-178.064,0v-96.536h178.064
		V257.707z M270.544,132.078c0,3.539-2.88,6.419-6.419,6.419h-6.585V92.48h6.585c3.539,0,6.419,2.88,6.419,6.419V132.078z"/>
	<path d="M143.548,88.029l-33.012,33.012c-2.734,2.735-2.734,7.169,0,9.904c1.368,1.367,3.16,2.051,4.952,2.051
		s3.584-0.684,4.952-2.051l33.012-33.012c2.734-2.735,2.734-7.169,0-9.904C150.717,85.295,146.283,85.295,143.548,88.029z"/>
	<path d="M120.44,88.029c-2.735-2.733-7.169-2.733-9.904,0L77.524,121.04c-2.734,2.735-2.734,7.169,0,9.904
		c1.368,1.367,3.16,2.051,4.952,2.051c1.792,0,3.584-0.684,4.952-2.051l33.012-33.012C123.175,95.197,123.175,90.764,120.44,88.029z
		"/>
	<path d="M214.521,188.515c1.84,0,3.651-0.75,4.952-2.051c1.3-1.301,2.051-3.111,2.051-4.952c0-1.84-0.75-3.652-2.051-4.952
		c-1.301-1.3-3.102-2.051-4.952-2.051c-1.841,0-3.642,0.75-4.952,2.051c-1.3,1.3-2.051,3.111-2.051,4.952
		c0,1.841,0.75,3.651,2.051,4.952C210.879,187.765,212.68,188.515,214.521,188.515z"/>
	<path d="M108.882,188.515c3.872,0,7.003-3.131,7.003-7.003s-3.131-7.003-7.003-7.003c-3.861,0-7.003,3.131-7.003,7.003
		S105.022,188.515,108.882,188.515z"/>
	<path d="M135.292,188.515c3.872,0,7.003-3.131,7.003-7.003s-3.131-7.003-7.003-7.003c-3.862,0-7.003,3.131-7.003,7.003
		S131.43,188.515,135.292,188.515z"/>
	<path d="M161.702,188.515c3.871,0,7.003-3.131,7.003-7.003s-3.132-7.003-7.003-7.003c-3.862,0-7.003,3.131-7.003,7.003
		S157.84,188.515,161.702,188.515z"/>
	<path d="M188.111,188.515c3.872,0,7.003-3.131,7.003-7.003s-3.131-7.003-7.003-7.003c-3.862,0-7.003,3.131-7.003,7.003
		S184.249,188.515,188.111,188.515z"/>
	<path d="M82.473,188.515c1.841,0,3.651-0.75,4.952-2.051c1.31-1.301,2.051-3.111,2.051-4.952c0-1.84-0.741-3.652-2.051-4.952
		c-1.301-1.3-3.111-2.051-4.952-2.051c-1.84,0-3.642,0.75-4.952,2.051c-1.3,1.3-2.051,3.111-2.051,4.952
		c0,1.841,0.75,3.651,2.051,4.952C78.831,187.765,80.633,188.515,82.473,188.515z"/>
	<path d="M214.521,37.461c-1.841,0-3.642,0.75-4.952,2.051c-1.3,1.3-2.051,3.111-2.051,4.952c0,1.841,0.75,3.651,2.051,4.952
		c1.31,1.3,3.111,2.051,4.952,2.051c1.85,0,3.651-0.75,4.952-2.051c1.31-1.301,2.051-3.111,2.051-4.952
		c0-1.84-0.74-3.652-2.051-4.952C218.171,38.211,216.371,37.461,214.521,37.461z"/>
	<path d="M188.111,37.461c-3.862,0-7.003,3.131-7.003,7.003s3.141,7.003,7.003,7.003c3.872,0,7.003-3.131,7.003-7.003
		S191.982,37.461,188.111,37.461z"/>
	<path d="M161.702,37.461c-3.862,0-7.003,3.131-7.003,7.003s3.141,7.003,7.003,7.003c3.871,0,7.003-3.131,7.003-7.003
		S165.573,37.461,161.702,37.461z"/>
	<path d="M135.292,37.461c-3.862,0-7.003,3.131-7.003,7.003s3.141,7.003,7.003,7.003c3.872,0,7.003-3.131,7.003-7.003
		S139.164,37.461,135.292,37.461z"/>
	<path d="M108.882,37.461c-3.861,0-7.003,3.131-7.003,7.003s3.142,7.003,7.003,7.003c3.872,0,7.003-3.131,7.003-7.003
		S112.754,37.461,108.882,37.461z"/>
	<path d="M82.473,37.461c-1.84,0-3.652,0.75-4.952,2.051s-2.051,3.111-2.051,4.952c0,1.841,0.75,3.651,2.051,4.952
		c1.3,1.3,3.111,2.051,4.952,2.051c1.85,0,3.651-0.75,4.952-2.051c1.31-1.301,2.051-3.111,2.051-4.952
		c0-1.84-0.741-3.652-2.051-4.952C86.124,38.211,84.324,37.461,82.473,37.461z"/>
</g>
</svg>